<?xml version="1.0" standalone="no"?>
<!DOCTYPE svg PUBLIC "-//W3C//DTD SVG 1.1//EN" "http://www.w3.org/Graphics/SVG/1.1/DTD/svg11.dtd" >
<svg xmlns="http://www.w3.org/2000/svg" xmlns:xlink="http://www.w3.org/1999/xlink" version="1.1">
<metadata>
Created by FontForge 20170731 at Fri Dec 11 12:29:47 2020
 By Aleksey,,,
Copyright (c) 2014 by Rene' Bieder. All rights reserved.
</metadata>
<defs>
<font id="GalanoGrotesque-Thin" horiz-adv-x="1249" >
  <font-face 
    font-family="GalanoGrotesque-Thin"
    font-weight="400"
    font-stretch="normal"
    units-per-em="2048"
    panose-1="0 0 3 0 0 0 0 0 0 0"
    ascent="1630"
    descent="-418"
    x-height="995"
    cap-height="1372"
    bbox="-348 -389 2417 1919"
    underline-thickness="102"
    underline-position="-204"
    unicode-range="U+0020-FB02"
  />
<missing-glyph horiz-adv-x="1667" 
d="M834 1399q296 0 503 -204t207 -513q0 -308 -207 -510q-208 -203 -503 -203q-296 0 -504 203q-207 202 -207 510q0 309 207 513t504 204zM834 1362q-279 0 -475 -193q-195 -192 -195 -485q0 -288 195 -482q196 -194 475 -194q278 0 474 194q195 194 195 482
q0 293 -195 485q-196 193 -474 193zM1098 821q0 -101 -72 -167t-178 -72v-115h-43v158h22q97 0 161 54q65 54 65 142q0 89 -59 142t-156 53q-102 0 -163 -64q-61 -65 -57 -166l-45 5q-1 119 72 192q74 74 193 74q115 0 187 -66q73 -67 73 -170zM827 371q13 0 26 -11
q11 -10 11 -24q0 -16 -11 -27q-12 -12 -26 -12q-16 0 -27 11q-12 12 -12 28q0 14 12 24q13 11 27 11z" />
    <glyph glyph-name="fi" unicode="fi" horiz-adv-x="1216" 
d="M981 995v-995h-43v954h-659v-954h-43v954h-195v41h195v207q0 144 76 229t212 85q110 0 193 -62l-23 -33q-79 54 -168 54q-116 0 -182 -75q-65 -74 -65 -198v-207h702zM958 1350q21 0 36 -15q16 -16 16 -35t-15 -34t-37 -15q-21 0 -36 15t-15 34t16 35q15 15 35 15z" />
    <glyph glyph-name="fl" unicode="fl" horiz-adv-x="1175" 
d="M279 995h423v-41h-423v-954h-43v954h-195v41h195v207q0 144 76 229t212 85q79 0 148 -33l-19 -37q-58 29 -127 29q-116 0 -182 -75q-65 -74 -65 -198v-207zM961 1475v-1475h-43v1475h43z" />
    <glyph glyph-name=".notdef" horiz-adv-x="1667" 
d="M834 1399q296 0 503 -204t207 -513q0 -308 -207 -510q-208 -203 -503 -203q-296 0 -504 203q-207 202 -207 510q0 309 207 513t504 204zM834 1362q-279 0 -475 -193q-195 -192 -195 -485q0 -288 195 -482q196 -194 475 -194q278 0 474 194q195 194 195 482
q0 293 -195 485q-196 193 -474 193zM1098 821q0 -101 -72 -167t-178 -72v-115h-43v158h22q97 0 161 54q65 54 65 142q0 89 -59 142t-156 53q-102 0 -163 -64q-61 -65 -57 -166l-45 5q-1 119 72 192q74 74 193 74q115 0 187 -66q73 -67 73 -170zM827 371q13 0 26 -11
q11 -10 11 -24q0 -16 -11 -27q-12 -12 -26 -12q-16 0 -27 11q-12 12 -12 28q0 14 12 24q13 11 27 11z" />
    <glyph glyph-name=".null" horiz-adv-x="0" 
 />
    <glyph glyph-name="nonmarkingreturn" horiz-adv-x="681" 
 />
    <glyph glyph-name="space" unicode=" " horiz-adv-x="532" 
 />
    <glyph glyph-name="exclam" unicode="!" horiz-adv-x="512" 
d="M279 1372v-1005h-43v1005h43zM256 94q22 0 36 -14q15 -15 15 -35q0 -21 -14 -35t-37 -14t-37 14t-14 35q0 20 15 35q14 14 36 14z" />
    <glyph glyph-name="quotedbl" unicode="&#x22;" horiz-adv-x="514" 
d="M123 844v528h43v-528h-43zM348 844v528h43v-528h-43z" />
    <glyph glyph-name="numbersign" unicode="#" horiz-adv-x="1361" 
d="M1042 926l-129 -500h226l-11 -41h-225l-100 -385h-45l100 385h-506l-100 -385h-45l100 385h-225l10 41h225l129 500h-225l12 41h226l104 405h45l-104 -405h506l104 405h45l-104 -405h225l-12 -41h-226zM997 926h-505l-130 -500h506z" />
    <glyph glyph-name="dollar" unicode="$" horiz-adv-x="1173" 
d="M616 713l138 -33q68 -16 107 -31q45 -17 93 -49q50 -33 75 -87q26 -55 26 -128q0 -159 -120 -254q-119 -94 -317 -94h-2v-242h-43v244q-189 11 -313 112q-125 102 -141 259l45 12q16 -145 128 -237q110 -91 281 -103v598l-131 31q-276 63 -276 284q0 153 114 245
q113 90 293 95v242h43v-242q169 -7 280 -100q110 -92 128 -227l-41 -13q-21 128 -119 207q-100 81 -248 88v-577zM573 725v567q-162 -2 -261 -81t-99 -214q0 -107 67 -162q68 -55 189 -85zM616 80h5q175 0 281 83t106 220q0 112 -69 169t-191 85l-132 31v-588z" />
    <glyph glyph-name="percent" unicode="%" horiz-adv-x="1761" 
d="M453 1393q138 0 233 -88q96 -89 96 -234q0 -137 -97 -227t-232 -90q-132 0 -231 90t-99 227q0 146 98 234t232 88zM315 0l1047 1372h47l-1047 -1372h-47zM453 1358q-118 0 -206 -81q-89 -81 -89 -206q0 -120 89 -200q87 -78 206 -78q117 0 204 78q88 79 88 200
q0 125 -88 206q-89 81 -204 81zM1309 618q138 0 233 -88q96 -89 96 -233q0 -137 -97 -227t-232 -90q-132 0 -231 90t-99 227q0 145 98 233t232 88zM1309 584q-117 0 -206 -81t-89 -206q0 -120 89 -200q88 -79 206 -79q116 0 204 79q89 80 89 200q0 125 -89 206t-204 81z" />
    <glyph glyph-name="ampersand" unicode="&#x26;" horiz-adv-x="1478" 
d="M1393 -20l-291 231q-78 -111 -205 -172q-122 -59 -270 -59q-212 0 -340 104q-129 105 -129 278q0 138 82 242q83 105 204 160q-127 143 -127 289q0 150 100 245t257 95q148 0 246 -85q98 -84 116 -245l-39 -12q-18 153 -105 228t-220 75q-137 0 -225 -83
q-87 -83 -87 -216q0 -89 50 -175t131 -163q90 -85 237 -201l314 -248q86 146 86 336v74h41v-74q0 -209 -95 -360l293 -234zM627 18q135 0 252 57t190 161l-317 253q-178 139 -279 242q-274 -117 -274 -369q0 -156 117 -249q119 -95 311 -95z" />
    <glyph glyph-name="quotesingle" unicode="'" horiz-adv-x="288" 
d="M123 844v528h43v-528h-43z" />
    <glyph glyph-name="parenleft" unicode="(" horiz-adv-x="694" 
d="M188 684q0 -486 363 -823l-29 -29q-379 348 -379 852t379 852l29 -31q-363 -336 -363 -821z" />
    <glyph glyph-name="parenright" unicode=")" horiz-adv-x="694" 
d="M143 1505l29 31q379 -348 379 -852t-379 -852l-29 29q363 337 363 823q0 485 -363 821z" />
    <glyph glyph-name="asterisk" unicode="*" horiz-adv-x="831" 
d="M459 1133l272 -156l-22 -35l-273 154v-310h-41v310l-272 -154l-23 35l273 156l-273 153l23 35l272 -154v308h41v-308l273 154l22 -35z" />
    <glyph glyph-name="plus" unicode="+" horiz-adv-x="1187" 
d="M1024 604h-410v-409h-41v409h-409v41h409v410h41v-410h410v-41z" />
    <glyph glyph-name="comma" unicode="," horiz-adv-x="344" 
d="M82 -270h-41l147 528h58v-4z" />
    <glyph glyph-name="hyphen" unicode="-" horiz-adv-x="897" 
d="M774 502h-651v41h651v-41z" />
    <glyph glyph-name="period" unicode="." horiz-adv-x="348" 
d="M174 94q22 0 36 -14q15 -15 15 -35q0 -21 -14 -35t-37 -14t-37 14t-14 35q0 20 15 35q14 14 36 14z" />
    <glyph glyph-name="slash" unicode="/" horiz-adv-x="651" 
d="M641 1516l-590 -1663h-41l590 1663h41z" />
    <glyph glyph-name="zero" unicode="0" horiz-adv-x="1359" 
d="M680 1393q246 0 396 -195q151 -196 151 -512t-151 -512q-149 -194 -396 -194t-396 194q-151 196 -151 512t151 512q150 195 396 195zM680 23q226 0 363 182q139 184 139 481q0 298 -139 482t-363 184q-225 0 -364 -184q-138 -183 -138 -482q0 -298 138 -481
q137 -182 364 -182z" />
    <glyph glyph-name="one" unicode="1" horiz-adv-x="696" 
d="M492 1372v-1372h-46v1313l-395 -240v51l414 248h27z" />
    <glyph glyph-name="two" unicode="2" horiz-adv-x="1036" 
d="M975 41v-41h-914v27l517 456q190 166 261 266q70 98 70 234q0 165 -108 267t-285 102q-180 0 -290 -111t-111 -293l-45 6q5 197 127 318t319 121q196 0 317 -113q119 -112 119 -297q0 -81 -19 -144q-20 -65 -72 -131q-57 -72 -102 -118q-40 -41 -151 -139l-465 -410h832z
" />
    <glyph glyph-name="three" unicode="3" horiz-adv-x="1228" 
d="M143 436l45 8q6 -193 127 -308q122 -116 320 -116q182 0 295 98q112 97 112 257q0 149 -108 232q-109 83 -295 83h-119v39h117q167 0 270 80t103 215q0 148 -108 238t-281 90q-181 0 -293 -106q-111 -105 -121 -283l-45 8q11 191 134 306q125 116 327 116q192 0 311 -102
t119 -267q0 -118 -72 -201q-71 -81 -199 -110v-2q144 -27 224 -113q79 -85 79 -221q0 -180 -123 -288q-124 -109 -327 -109q-218 0 -349 124q-132 125 -143 332z" />
    <glyph glyph-name="four" unicode="4" horiz-adv-x="1275" 
d="M1204 383h-258v-383h-45v383h-799v53l803 936h41v-948h258v-41zM901 424v874l-751 -874h751z" />
    <glyph glyph-name="five" unicode="5" horiz-adv-x="1136" 
d="M238 770h362q207 0 320 -94q114 -94 114 -285q0 -187 -126 -299q-125 -112 -333 -112q-217 0 -346 126q-131 128 -135 336l45 9q0 -195 120 -313q119 -118 316 -118q189 0 303 102q113 101 113 269q0 173 -103 255q-104 83 -290 83h-405l38 643h760v-41h-717z" />
    <glyph glyph-name="six" unicode="6" horiz-adv-x="1243" 
d="M1067 1116l-45 -8q-33 117 -129 180q-98 64 -231 64q-190 0 -312 -131q-174 -191 -174 -590q0 -73 2 -117h6q21 160 153 265q133 106 314 106q207 0 333 -128t126 -323t-125 -325q-125 -129 -334 -129q-254 0 -386 171t-132 482q0 425 189 620q135 140 342 140
q148 0 258 -73q107 -71 145 -204zM651 23q188 0 302 118t114 293q0 174 -114 291t-302 117q-199 0 -317 -124q-119 -125 -119 -290q0 -177 125 -291q124 -114 311 -114z" />
    <glyph glyph-name="seven" unicode="7" horiz-adv-x="995" 
d="M965 1372v-24l-603 -1348h-53l602 1331h-850v41h904z" />
    <glyph glyph-name="eight" unicode="8" horiz-adv-x="1206" 
d="M719 711q197 -24 286 -127t89 -232q0 -167 -135 -270q-133 -102 -353 -102q-223 0 -358 102t-135 270q0 131 89 232q88 100 281 127q-178 27 -256 119q-80 94 -80 214q0 158 125 253q126 96 334 96q203 0 329 -96q124 -94 124 -253q0 -120 -80 -215q-79 -94 -260 -118z
M190 1044q-1 -135 110 -222t304 -87q196 0 303 88q109 89 109 221q0 137 -113 223q-112 85 -297 85q-189 0 -302 -85q-114 -85 -114 -223zM604 25q199 0 320 90q120 89 120 237q0 142 -115 236t-323 94q-202 0 -323 -94t-121 -236q0 -147 122 -237q121 -90 320 -90z" />
    <glyph glyph-name="nine" unicode="9" horiz-adv-x="1243" 
d="M176 256l45 8q33 -117 129 -180q98 -64 232 -64q188 0 311 132q174 190 174 589q0 73 -2 117h-6q-21 -160 -153 -265q-133 -106 -314 -106q-207 0 -333 128q-126 127 -126 323t125 326q124 129 334 129q254 0 386 -171t132 -483q0 -426 -188 -620q-135 -139 -342 -139
q-150 0 -258 72t-146 204zM592 1350q-188 0 -302 -119t-114 -293t114 -291t302 -117q199 0 317 124q119 125 119 290q0 177 -125 291q-126 115 -311 115z" />
    <glyph glyph-name="colon" unicode=":" horiz-adv-x="348" 
d="M174 897q22 0 36 -14q15 -15 15 -35q0 -21 -14 -35t-37 -14t-37 14t-14 35q0 20 15 35q14 14 36 14zM174 94q22 0 36 -14q15 -15 15 -35q0 -21 -14 -35t-37 -14t-37 14t-14 35q0 20 15 35q14 14 36 14z" />
    <glyph glyph-name="semicolon" unicode=";" horiz-adv-x="393" 
d="M219 897q22 0 36 -14q15 -15 15 -35q0 -21 -14 -35t-37 -14t-37 14t-14 35q0 20 15 35q14 14 36 14zM82 -270h-41l147 528h58v-4z" />
    <glyph glyph-name="less" unicode="&#x3c;" horiz-adv-x="868" 
d="M786 250l-725 362v25l725 362v-47l-659 -327l659 -328v-47z" />
    <glyph glyph-name="equal" unicode="=" horiz-adv-x="1187" 
d="M1024 809h-860v41h860v-41zM1024 440h-860v41h860v-41z" />
    <glyph glyph-name="greater" unicode="&#x3e;" horiz-adv-x="868" 
d="M741 625l-659 327v47l725 -362v-25l-725 -362v47z" />
    <glyph glyph-name="question" unicode="?" horiz-adv-x="1044" 
d="M526 1393q196 0 317 -113q120 -112 120 -297q0 -177 -125 -291q-126 -116 -310 -123v-202h-45v243h23q172 0 293 105t121 268q0 164 -109 267q-108 102 -285 102q-180 0 -289 -114q-110 -115 -110 -296l-45 6q0 199 123 322t321 123zM506 94q22 0 36 -14q15 -15 15 -35
q0 -21 -14 -35t-37 -14t-37 14t-14 35q0 20 15 35q14 14 36 14z" />
    <glyph glyph-name="at" unicode="@" horiz-adv-x="1996" 
d="M1001 1393q355 0 593 -225q239 -225 239 -572q0 -192 -75 -322q-75 -131 -224 -131q-100 0 -161 55q-60 54 -60 142v47q-46 -106 -142 -168q-94 -61 -213 -61q-168 0 -283 115q-116 116 -116 298q0 181 116 299q115 117 283 117q119 0 213 -61q96 -62 142 -168v209h41
v-629q0 -73 49 -116q50 -44 129 -44q126 0 192 122t66 298q0 330 -225 544q-224 214 -564 214q-341 0 -568 -219q-226 -219 -226 -553q0 -332 222 -554q223 -223 540 -223q121 0 256 33q134 33 223 90l22 -36q-90 -59 -233 -94q-135 -33 -266 -33q-339 0 -573 231t-234 584
q0 352 238 581q239 230 599 230zM961 195q148 0 250 105t102 273q0 167 -102 270t-250 103q-152 0 -256 -103q-105 -103 -105 -270q0 -168 105 -273t256 -105z" />
    <glyph glyph-name="A" unicode="A" horiz-adv-x="1388" 
d="M1348 0h-48l-186 401h-840l-186 -401h-47l635 1372h37zM1096 442l-402 867l-401 -867h803z" />
    <glyph glyph-name="B" unicode="B" horiz-adv-x="1386" 
d="M950 698v-4q147 -15 230 -103q84 -89 84 -226q0 -161 -114 -263t-296 -102h-639v1372h588q195 0 302 -94t107 -248q0 -128 -72 -223q-71 -94 -190 -109zM260 1331v-616h588q145 0 235 87q91 88 91 228q0 136 -98 219q-97 82 -273 82h-543zM260 41h594q164 0 264 90
q101 90 101 234q0 141 -104 225q-103 84 -267 84h-588v-633z" />
    <glyph glyph-name="C" unicode="C" horiz-adv-x="1622" 
d="M846 20q207 0 363 97q155 96 227 258l43 -17q-77 -171 -245 -275q-166 -103 -388 -103q-296 0 -499 204q-204 206 -204 502t204 502q204 205 499 205q221 0 388 -104q168 -104 245 -275l-41 -17q-69 158 -227 257q-157 98 -365 98q-276 0 -467 -193t-191 -473t191 -473
t467 -193z" />
    <glyph glyph-name="D" unicode="D" horiz-adv-x="1527" 
d="M215 1372h403q366 0 566 -196t200 -490q0 -293 -200 -489q-202 -197 -566 -197h-403v1372zM260 41h356q346 0 535 186q188 185 188 459t-188 459q-189 186 -535 186h-356v-1290z" />
    <glyph glyph-name="E" unicode="E" horiz-adv-x="1310" 
d="M260 1331v-620h856v-41h-856v-629h918v-41h-963v1372h963v-41h-918z" />
    <glyph glyph-name="F" unicode="F" horiz-adv-x="1198" 
d="M260 1331v-620h836v-41h-836v-670h-45v1372h942v-41h-897z" />
    <glyph glyph-name="G" unicode="G" horiz-adv-x="1667" 
d="M1524 707v-21q0 -295 -190 -502q-188 -204 -490 -204q-297 0 -498 204q-203 206 -203 502t203 502q202 205 498 205q224 0 391 -104q166 -103 242 -275l-41 -17q-69 159 -226 257t-366 98q-276 0 -466 -193t-190 -473t190 -473t466 -193q274 0 450 187q178 188 185 459
h-723v41h768z" />
    <glyph glyph-name="H" unicode="H" horiz-adv-x="1513" 
d="M1298 1372v-1372h-45v672h-993v-672h-45v1372h45v-659h993v659h45z" />
    <glyph glyph-name="I" unicode="I" horiz-adv-x="475" 
d="M260 0h-45v1372h45v-1372z" />
    <glyph glyph-name="J" unicode="J" horiz-adv-x="1216" 
d="M1022 1372v-860q0 -239 -133 -385q-133 -147 -348 -147q-196 0 -324 119t-151 315l43 14q23 -187 139 -296t293 -109q196 0 316 135t120 354v860h45z" />
    <glyph glyph-name="K" unicode="K" horiz-adv-x="1368" 
d="M1266 0h-66l-878 666h-62v-666h-45v1372h45v-665h66l829 665h62l-850 -688z" />
    <glyph glyph-name="L" unicode="L" horiz-adv-x="1187" 
d="M1126 41v-41h-911v1372h45v-1331h866z" />
    <glyph glyph-name="M" unicode="M" horiz-adv-x="1861" 
d="M1647 1372v-1372h-43v1268l-652 -1268h-43l-651 1268v-1268h-43v1372h41l676 -1313l674 1313h41z" />
    <glyph glyph-name="N" unicode="N" horiz-adv-x="1554" 
d="M1339 1372v-1372h-45l-1034 1298v-1298h-45v1372h45l1034 -1298v1298h45z" />
    <glyph glyph-name="O" unicode="O" horiz-adv-x="1677" 
d="M840 1393q291 0 492 -205q202 -207 202 -502q0 -296 -201 -502q-200 -204 -493 -204q-295 0 -495 204q-202 207 -202 502t202 502q201 205 495 205zM840 20q270 0 460 193q189 192 189 473q0 278 -189 472t-460 194q-274 0 -463 -194t-189 -472q0 -281 189 -473
q190 -193 463 -193z" />
    <glyph glyph-name="P" unicode="P" horiz-adv-x="1302" 
d="M215 1372h559q199 0 323 -109t124 -282t-124 -282t-323 -109h-514v-590h-45v1372zM260 631h514q181 0 291 98q111 99 111 252t-111 252q-110 98 -291 98h-514v-700z" />
    <glyph glyph-name="Q" unicode="Q" horiz-adv-x="1677" 
d="M1520 -322l-332 394q-157 -92 -348 -92q-295 0 -495 204q-202 207 -202 502t202 502q201 205 495 205q291 0 492 -205q202 -207 202 -502q0 -184 -83 -339t-224 -251l327 -389zM188 686q0 -281 189 -473q190 -193 463 -193q270 0 460 193q189 192 189 473q0 278 -189 472
t-460 194q-274 0 -463 -194t-189 -472z" />
    <glyph glyph-name="R" unicode="R" horiz-adv-x="1363" 
d="M1282 0h-65l-601 672h-356v-672h-45v1372h612q183 0 294 -96q112 -97 112 -254t-112 -254q-111 -96 -294 -96h-151zM260 713h567q165 0 263 85t98 224t-98 224t-263 85h-567v-618z" />
    <glyph glyph-name="S" unicode="S" horiz-adv-x="1253" 
d="M625 1393q196 0 325 -100q127 -98 160 -259l-43 -14q-30 155 -148 243q-119 89 -296 89q-175 0 -287 -88q-113 -89 -113 -238q0 -121 74 -181q75 -61 205 -91l303 -76q66 -16 119 -35q48 -17 102 -53q55 -36 81 -93q28 -61 28 -139q0 -174 -129 -276t-344 -102
q-224 0 -372 111t-171 296l49 12q16 -171 154 -275q137 -104 342 -104q194 0 309 92q114 91 114 244q0 128 -68 187q-69 60 -218 94l-328 80q-299 72 -299 309q0 166 126 266q127 101 325 101z" />
    <glyph glyph-name="T" unicode="T" horiz-adv-x="1294" 
d="M1233 1331h-561v-1331h-49v1331h-562v41h1172v-41z" />
    <glyph glyph-name="U" unicode="U" horiz-adv-x="1495" 
d="M1300 1372v-788q0 -274 -152 -439t-400 -165q-249 0 -401 165t-152 439v788h45v-788q0 -256 139 -408q139 -153 369 -153q229 0 368 153q139 152 139 408v788h45z" />
    <glyph glyph-name="V" unicode="V" horiz-adv-x="1355" 
d="M1305 1372l-607 -1372h-41l-606 1372h47l580 -1304l579 1304h48z" />
    <glyph glyph-name="W" unicode="W" horiz-adv-x="1933" 
d="M1882 1372l-444 -1372h-39l-432 1303l-432 -1303h-39l-445 1372h47l420 -1302l426 1302h45l426 -1302l420 1302h47z" />
    <glyph glyph-name="X" unicode="X" horiz-adv-x="1232" 
d="M1124 0l-508 657l-507 -657h-58l535 690l-514 682h57l487 -649l488 649h57l-516 -682l537 -690h-58z" />
    <glyph glyph-name="Y" unicode="Y" horiz-adv-x="1331" 
d="M688 520v-520h-45v520l-592 852h53l562 -815l561 815h53z" />
    <glyph glyph-name="Z" unicode="Z" horiz-adv-x="1282" 
d="M1159 1348l-952 -1307h952v-41h-1016v27l951 1304h-922v41h987v-24z" />
    <glyph glyph-name="bracketleft" unicode="[" horiz-adv-x="772" 
d="M260 1475v-1602h369v-41h-414v1684h414v-41h-369z" />
    <glyph glyph-name="backslash" unicode="\" horiz-adv-x="651" 
d="M641 -147h-41l-590 1663h41z" />
    <glyph glyph-name="bracketright" unicode="]" horiz-adv-x="772" 
d="M557 1516v-1684h-414v41h369v1602h-369v41h414z" />
    <glyph glyph-name="asciicircum" unicode="^" horiz-adv-x="704" 
d="M113 985h-52l277 387h29l276 -387h-51l-240 334z" />
    <glyph glyph-name="underscore" unicode="_" horiz-adv-x="962" 
d="M922 -156h-881v41h881v-41z" />
    <glyph glyph-name="grave" unicode="`" horiz-adv-x="1228" 
d="M446 1440l191 -279h-43l-195 279h47z" />
    <glyph glyph-name="a" unicode="a" horiz-adv-x="1320" 
d="M1106 995v-995h-43v283q-58 -142 -183 -223q-124 -80 -280 -80q-215 0 -361 143q-147 144 -147 375q0 230 147 374t361 144q154 0 280 -81t183 -222v282h43zM600 20q186 0 325 134q138 134 138 344t-138 344q-137 133 -325 133q-195 0 -330 -132t-135 -345t135 -345
q136 -133 330 -133z" />
    <glyph glyph-name="b" unicode="b" horiz-adv-x="1341" 
d="M721 1016q214 0 361 -144t147 -374q0 -231 -147 -375q-146 -143 -361 -143q-156 0 -280 80q-125 81 -183 223v-283h-43v1475h43v-762q57 141 183 222t280 81zM721 20q194 0 330 133q135 132 135 345t-135 345t-330 132q-188 0 -325 -133q-138 -134 -138 -344t138 -344
q139 -134 325 -134z" />
    <glyph glyph-name="c" unicode="c" horiz-adv-x="1177" 
d="M618 20q140 0 255 68q113 67 151 186l39 -14q-39 -131 -163 -206q-123 -74 -282 -74q-209 0 -357 142t-148 376q0 227 149 372q151 146 356 146q156 0 281 -80q126 -80 166 -215l-39 -16q-37 122 -153 196t-255 74q-188 0 -325 -134t-137 -343q0 -216 136 -346
q138 -132 326 -132z" />
    <glyph glyph-name="d" unicode="d" horiz-adv-x="1341" 
d="M1126 1475v-1475h-43v283q-58 -142 -183 -223q-124 -80 -279 -80q-216 0 -362 143t-146 375q0 231 146 374q147 144 362 144q153 0 279 -81t183 -222v762h43zM621 20q185 0 324 134q138 134 138 344t-138 344q-137 133 -324 133q-195 0 -330 -132t-135 -345t135 -345
q136 -133 330 -133z" />
    <glyph glyph-name="e" unicode="e" horiz-adv-x="1216" 
d="M156 508v-10v-4q0 -213 139 -343q140 -131 317 -131q159 0 271 76q114 77 164 221l36 -12q-50 -154 -174 -240q-122 -85 -297 -85q-196 0 -348 141q-151 141 -151 373q0 233 153 377q154 145 363 145q207 0 338 -135q131 -136 137 -353v-20h-948zM629 975
q-177 0 -315 -117t-156 -309h901q-12 194 -132 310q-121 116 -298 116z" />
    <glyph glyph-name="f" unicode="f" horiz-adv-x="702" 
d="M702 954h-423v-954h-43v954h-195v41h195v207q0 144 76 229t212 85q79 0 148 -33l-19 -37q-58 29 -127 29q-116 0 -182 -75q-65 -74 -65 -198v-207h423v-41z" />
    <glyph glyph-name="g" unicode="g" horiz-adv-x="1308" 
d="M1094 995v-932q-1 -203 -130 -328q-127 -124 -337 -124q-381 0 -492 299l43 16q102 -274 449 -274q189 0 305 112q117 113 119 299v269q-57 -130 -174 -203q-118 -74 -265 -74q-212 0 -355 133q-144 133 -144 349q0 215 144 346q145 131 355 131q148 0 265 -72t174 -201
v254h43zM612 96q180 0 310 122q129 122 129 319q0 196 -129 316t-310 120q-192 0 -324 -120t-132 -316q0 -197 132 -319q133 -122 324 -122z" />
    <glyph glyph-name="h" unicode="h" horiz-adv-x="1294" 
d="M698 1016q180 0 291 -118t111 -312v-586h-43v586q0 172 -98 281q-97 108 -254 108q-201 0 -324 -125q-123 -124 -123 -332v-518h-43v1475h43v-756q49 138 165 218q115 79 275 79z" />
    <glyph glyph-name="i" unicode="i" horiz-adv-x="514" 
d="M256 1350q21 0 36 -15t15 -35t-14 -34q-15 -15 -37 -15t-37 15q-14 14 -14 34t15 35t36 15zM279 0h-43v995h43v-995z" />
    <glyph glyph-name="j" unicode="j" horiz-adv-x="559" 
d="M301 1350q21 0 36 -15t15 -35t-14 -34q-15 -15 -37 -15t-37 15q-14 14 -14 34t15 35t36 15zM-10 -336l18 35q45 -27 101 -27q75 0 122 47q48 48 48 123v1153h43v-1153q0 -92 -58 -152q-57 -59 -151 -59q-71 0 -123 33z" />
    <glyph glyph-name="k" unicode="k" horiz-adv-x="1128" 
d="M1108 0h-76l-713 492h-61v-492h-43v1475h43v-943h80l625 463h67l-657 -487z" />
    <glyph glyph-name="l" unicode="l" horiz-adv-x="473" 
d="M258 0h-43v1475h43v-1475z" />
    <glyph glyph-name="m" unicode="m" horiz-adv-x="1931" 
d="M1382 1016q157 0 256 -96t99 -252v-668h-43v668q0 139 -87 223t-231 84q-171 0 -276 -120t-105 -316v-539h-43v668q0 136 -87 222q-86 85 -228 85q-170 0 -275 -120q-104 -119 -104 -316v-539h-43v995h43v-258q46 132 145 205q101 74 238 74q139 0 232 -75
q94 -76 116 -202q46 129 151 203q104 74 242 74z" />
    <glyph glyph-name="n" unicode="n" horiz-adv-x="1294" 
d="M698 1016q180 0 291 -118t111 -312v-586h-43v586q0 172 -98 281q-97 108 -254 108q-201 0 -324 -125q-123 -124 -123 -332v-518h-43v995h43v-276q49 138 165 218q115 79 275 79z" />
    <glyph glyph-name="o" unicode="o" horiz-adv-x="1259" 
d="M629 1016q223 0 370 -147q148 -148 148 -369q0 -222 -148 -372q-147 -148 -370 -148q-222 0 -369 148t-147 372q0 222 147 369t369 147zM629 20q205 0 340 137q135 136 135 343q0 205 -135 340t-340 135q-203 0 -338 -135t-135 -340q0 -206 135 -342q136 -138 338 -138z
" />
    <glyph glyph-name="p" unicode="p" horiz-adv-x="1341" 
d="M721 1016q214 0 361 -144t147 -374q0 -231 -147 -375q-146 -143 -361 -143q-156 0 -280 80q-125 81 -183 223v-631h-43v1343h43v-282q57 141 183 222t280 81zM721 20q194 0 330 133q135 132 135 345t-135 345t-330 132q-188 0 -325 -133q-138 -134 -138 -344t138 -344
q139 -134 325 -134z" />
    <glyph glyph-name="q" unicode="q" horiz-adv-x="1341" 
d="M1126 995v-1343h-43v631q-58 -142 -183 -223q-124 -80 -279 -80q-216 0 -362 143t-146 375q0 231 146 374q147 144 362 144q153 0 279 -81t183 -222v282h43zM621 20q185 0 324 134q138 134 138 344t-138 344q-137 133 -324 133q-195 0 -330 -132t-135 -345t135 -345
q136 -133 330 -133z" />
    <glyph glyph-name="r" unicode="r" horiz-adv-x="806" 
d="M707 1001q39 0 69 -6l-10 -39q-23 5 -59 5q-203 0 -325 -154t-122 -361v-446h-43v995h43v-319q57 145 175 235q119 90 272 90z" />
    <glyph glyph-name="s" unicode="s" horiz-adv-x="1040" 
d="M129 274l39 15q11 -124 117 -197q107 -74 266 -74q144 0 234 64q89 63 89 176q0 90 -57 133q-58 44 -160 68l-256 57q-117 24 -177 79q-58 54 -58 148q0 123 97 198q98 75 253 75q151 0 249 -71t128 -187l-39 -17q-22 107 -112 171q-88 63 -226 63q-136 0 -222 -63
q-85 -63 -85 -169q0 -87 56 -128q57 -42 159 -66l242 -53q50 -12 89 -26q36 -14 78 -39q41 -25 63 -70q22 -46 22 -103q0 -126 -102 -203q-100 -75 -265 -75q-179 0 -291 79q-113 80 -131 215z" />
    <glyph glyph-name="t" unicode="t" horiz-adv-x="722" 
d="M662 94l24 -33q-87 -81 -203 -81q-120 0 -191 74q-73 76 -73 198v702h-219v41h219v336h43v-336h389v-41h-389v-702q0 -104 62 -168t161 -64q97 0 177 74z" />
    <glyph glyph-name="u" unicode="u" horiz-adv-x="1294" 
d="M1079 995v-995h-43v276q-49 -138 -165 -218q-113 -78 -275 -78q-181 0 -291 117t-110 313v585h43v-585q0 -175 97 -282q97 -108 255 -108q200 0 323 125t123 332v518h43z" />
    <glyph glyph-name="v" unicode="v" horiz-adv-x="1091" 
d="M1040 995l-469 -995h-51l-469 995h51l445 -948l442 948h51z" />
    <glyph glyph-name="w" unicode="w" horiz-adv-x="1536" 
d="M1485 997l-340 -1003h-49l-328 928l-328 -928h-49l-340 1003h47l320 -931l332 929h36l332 -929l320 931h47z" />
    <glyph glyph-name="x" unicode="x" horiz-adv-x="1155" 
d="M606 498l426 -498h-55l-399 467l-400 -467h-55l426 498l-426 497h55l400 -467l399 467h55z" />
    <glyph glyph-name="y" unicode="y" horiz-adv-x="1107" 
d="M1057 995l-645 -1343h-47l167 348l-481 995h51l453 -946l455 946h47z" />
    <glyph glyph-name="z" unicode="z" horiz-adv-x="1001" 
d="M920 41v-41h-838v35l758 919h-736v41h797v-34l-758 -920h777z" />
    <glyph glyph-name="braceleft" unicode="{" horiz-adv-x="890" 
d="M420 1264v-359q0 -171 -139 -231q139 -60 139 -232v-358q0 -96 56 -153q57 -58 147 -58h125v-41h-125q-113 0 -181 69q-67 68 -67 183v358q0 94 -57 153q-57 58 -146 58h-29v41h29q89 0 146 59t57 152v359q0 115 67 183q68 69 181 69h125v-41h-125q-90 0 -147 -59
q-56 -57 -56 -152z" />
    <glyph glyph-name="bar" unicode="|" horiz-adv-x="475" 
d="M260 -147h-45v1663h45v-1663z" />
    <glyph glyph-name="braceright" unicode="}" horiz-adv-x="890" 
d="M748 694v-41h-29q-90 0 -147 -58q-56 -57 -56 -153v-358q0 -115 -67 -183q-67 -69 -181 -69h-125v41h125q90 0 147 58q56 57 56 153v358q0 172 139 232q-139 60 -139 231v359q0 95 -56 152q-57 59 -147 59h-125v41h125q114 0 181 -69q67 -68 67 -183v-359q0 -95 56 -152
q57 -59 147 -59h29z" />
    <glyph glyph-name="asciitilde" unicode="~" horiz-adv-x="925" 
d="M133 506h-53q0 96 54 153q55 58 142 58q85 0 195 -88t180 -88q68 0 107 46t37 126h51q0 -98 -53 -157q-52 -58 -142 -58q-67 0 -131 44q-55 38 -124 88q-61 44 -120 44q-68 0 -109 -45q-40 -44 -34 -123z" />
    <glyph glyph-name="exclamdown" unicode="&#xa1;" horiz-adv-x="512" 
d="M256 918q-22 0 -36 14q-15 15 -15 35t14 34q15 15 37 15t37 -15q14 -14 14 -34t-15 -35q-14 -14 -36 -14zM236 645h43v-1005h-43v1005z" />
    <glyph glyph-name="cent" unicode="&#xa2;" horiz-adv-x="1177" 
d="M633 975v-955q138 5 247 72t144 182l39 -14q-37 -127 -157 -202q-117 -73 -273 -78v-246h-43v246q-202 11 -339 152q-138 142 -138 366q0 220 139 363q140 144 338 155v274h43v-274q150 -4 272 -84q121 -79 160 -211l-39 -16q-38 119 -146 192q-109 73 -247 78zM156 498
q0 -206 126 -337t308 -141v955q-179 -10 -307 -144q-127 -133 -127 -333z" />
    <glyph glyph-name="sterling" unicode="&#xa3;" horiz-adv-x="1327" 
d="M1204 41v-41h-1061v29l174 10v586h-174v41h174v303q0 190 120 307t315 117q193 0 315 -116q121 -115 121 -304l-45 -10q0 176 -108 281q-109 106 -283 106t-282 -105t-108 -276v-303h609v-41h-609v-584h842z" />
    <glyph glyph-name="yen" unicode="&#xa5;" horiz-adv-x="1310" 
d="M702 590h402v-41h-426v-205h426v-41h-426v-303h-45v303h-426v41h426v205h-426v41h401l-526 782h53l520 -782l521 782h53z" />
    <glyph glyph-name="section" unicode="&#xa7;" horiz-adv-x="1079" 
d="M977 467q0 -107 -51 -174t-131 -96q100 -79 100 -197q0 -128 -99 -207q-100 -80 -261 -80q-194 0 -303 97q-107 95 -105 253l41 13q0 -151 94 -236q95 -86 270 -86q144 0 231 69t87 177q0 138 -170 215l-344 158q-127 59 -185 120q-57 60 -57 146q0 107 51 174t131 96
q-100 79 -100 197q0 128 99 207q100 80 262 80q178 0 284 -97q105 -96 105 -252l-43 -14q0 148 -91 235q-92 87 -253 87q-143 0 -231 -68q-87 -68 -87 -178q0 -135 170 -215l344 -158q129 -60 186 -120q56 -59 56 -146zM758 221q174 66 174 242q0 71 -47 126
q-45 53 -170 109l-344 156q-50 26 -58 31q-174 -63 -174 -242q0 -71 47 -126q45 -53 170 -109l344 -156q25 -12 58 -31z" />
    <glyph glyph-name="dieresis" unicode="&#xa8;" horiz-adv-x="1228" 
d="M430 1311q21 0 36 -15t15 -34q0 -21 -14 -35q-15 -15 -37 -15t-37 15q-14 14 -14 35q0 19 15 34t36 15zM799 1311q21 0 36 -15t15 -34q0 -21 -14 -35q-15 -15 -37 -15t-37 15q-14 14 -14 35q0 19 15 34t36 15z" />
    <glyph glyph-name="copyright" unicode="&#xa9;" horiz-adv-x="1626" 
d="M813 1393q293 0 500 -202q205 -201 205 -509q0 -304 -205 -503t-500 -199t-500 199q-204 198 -204 503q0 309 204 509q207 202 500 202zM813 1354q-276 0 -469 -191q-192 -191 -192 -479q0 -286 192 -475t469 -189t469 189q193 190 193 475q0 288 -193 479t-469 191z
M829 1071q126 0 229 -73q101 -71 122 -185l-39 -10q-27 101 -116 164t-196 63q-141 0 -240 -96q-100 -97 -100 -248q0 -153 100 -251q98 -97 240 -97q108 0 196 64q89 65 116 165l37 -12q-27 -114 -125 -185q-100 -73 -224 -73q-161 0 -273 109t-112 280q0 169 112 278
q110 107 273 107z" />
    <glyph glyph-name="ordfeminine" unicode="&#xaa;" horiz-adv-x="788" 
d="M412 1378q117 0 185 -64q69 -64 69 -181v-426h-41v129q-90 -144 -283 -144q-101 0 -160 52t-59 139q0 90 77 144t218 54h207v52q0 99 -59 155q-58 55 -156 55q-87 0 -146 -46t-76 -138l-36 6q16 105 86 159q69 54 174 54zM346 727q120 0 200 71q79 70 79 177v74h-207
q-122 0 -189 -44q-65 -43 -65 -122q0 -72 50 -114t132 -42z" />
    <glyph glyph-name="guillemotleft" unicode="&#xab;" horiz-adv-x="731" 
d="M51 537l271 364h51l-271 -364l271 -365h-51zM358 537l271 364h51l-270 -364l270 -365h-51z" />
    <glyph glyph-name="registered" unicode="&#xae;" horiz-adv-x="1024" 
d="M512 1393q172 0 291 -117t119 -295q0 -176 -119 -293t-291 -117t-291 117t-119 293q0 178 119 295t291 117zM512 606q157 0 266 107t109 268q0 162 -109 271q-108 108 -266 108t-266 -108q-109 -109 -109 -271q0 -161 109 -268t266 -107zM686 1067q0 -54 -37 -88
q-38 -35 -98 -39l158 -147h-47l-156 147h-103v-147h-32v399h166q68 0 108 -34q41 -35 41 -91zM403 971h129q54 0 86 26q33 27 33 70t-30 69q-29 25 -84 25h-134v-190z" />
    <glyph glyph-name="macron" unicode="&#xaf;" horiz-adv-x="1228" 
d="M870 1219h-512v34h512v-34z" />
    <glyph glyph-name="degree" unicode="&#xb0;" horiz-adv-x="813" 
d="M408 1393q99 0 172 -67q71 -65 71 -173q0 -103 -71 -170q-73 -68 -172 -68q-101 0 -174 68q-72 67 -72 170q0 107 72 173q73 67 174 67zM408 954q82 0 142 57t60 142q0 88 -60 145q-61 58 -142 58t-144 -58q-61 -57 -61 -145q0 -85 61 -142q62 -57 144 -57z" />
    <glyph glyph-name="plusminus" unicode="&#xb1;" horiz-adv-x="1187" 
d="M1024 696v-41h-410v-389h-41v389h-409v41h409v389h41v-389h410zM164 41h860v-41h-860v41z" />
    <glyph glyph-name="acute" unicode="&#xb4;" horiz-adv-x="1228" 
d="M594 1161h-43l190 279h47z" />
    <glyph glyph-name="paragraph" unicode="&#xb6;" horiz-adv-x="1075" 
d="M616 0h-45v612h-102q-184 0 -307 106q-121 105 -121 281q0 182 107 277q108 96 292 96h176v-1372zM860 0h-45v1372h45v-1372z" />
    <glyph glyph-name="periodcentered" unicode="&#xb7;" horiz-adv-x="348" 
d="M174 598q22 0 36 -14q15 -15 15 -35q0 -21 -14 -35t-37 -14t-37 14t-14 35q0 20 15 35q14 14 36 14z" />
    <glyph glyph-name="cedilla" unicode="&#xb8;" horiz-adv-x="1228" 
d="M594 0h43l-205 -369h-53z" />
    <glyph glyph-name="ordmasculine" unicode="&#xba;" horiz-adv-x="925" 
d="M463 1378q141 0 240 -96q100 -97 100 -246q0 -151 -100 -248q-99 -96 -240 -96q-139 0 -240 96q-100 96 -100 248q0 151 101 246q102 96 239 96zM463 729q123 0 212 86t89 221q0 133 -89 219t-212 86q-118 0 -209 -86q-90 -85 -90 -219q0 -133 90 -220t209 -87z" />
    <glyph glyph-name="guillemotright" unicode="&#xbb;" horiz-adv-x="731" 
d="M51 172l271 365l-271 364h51l271 -364l-271 -365h-51zM358 172l271 365l-271 364h52l270 -364l-270 -365h-52z" />
    <glyph glyph-name="onequarter" unicode="&#xbc;" horiz-adv-x="1359" 
d="M246 1317l-193 -113v43l209 125h27v-735h-43v680zM1198 1372l-1046 -1372h-48l1047 1372h47zM1319 197h-137v-197h-41v197h-434v43l432 493h43v-500h137v-36zM1141 233v443l-391 -443h391z" />
    <glyph glyph-name="onehalf" unicode="&#xbd;" horiz-adv-x="1462" 
d="M246 1317l-193 -113v43l209 125h27v-735h-43v680zM1178 1372l-1047 -1372h-47l1046 1372h48zM1401 37v-37h-510v27l283 241q95 81 135 135q37 50 37 119q0 82 -57 133q-58 52 -146 52q-95 0 -150 -57q-55 -56 -55 -148l-41 6q0 100 68 168q67 67 178 67q108 0 177 -60
t69 -161q0 -78 -43 -137q-40 -55 -140 -141l-243 -207h438z" />
    <glyph glyph-name="threequarters" unicode="&#xbe;" horiz-adv-x="1566" 
d="M608 852q0 -95 -70 -155t-186 -60q-115 0 -195 68t-81 184l37 4q2 -102 71 -161q68 -58 168 -58q95 0 156 50q59 49 59 128q0 74 -58 117t-157 43h-67v32h67q92 0 144 40q53 41 53 108q0 72 -57 119q-58 47 -148 47q-93 0 -156 -54t-65 -149l-37 6q1 104 75 168
q73 64 183 64q107 0 176 -57q70 -58 70 -144q0 -58 -35 -102q-34 -43 -92 -60q145 -40 145 -178zM1425 1372l-1046 -1372h-47l1046 1372h47zM1526 197h-137v-197h-41v197h-435v43l433 493h43v-500h137v-36zM1348 233v443l-392 -443h392z" />
    <glyph glyph-name="questiondown" unicode="&#xbf;" horiz-adv-x="1044" 
d="M539 918q-22 0 -36 14q-16 16 -16 35t15 34t37 15q21 0 36 -15t15 -34t-16 -35q-14 -14 -35 -14zM918 70l45 -7q0 -198 -123 -321t-322 -123q-195 0 -316 113q-120 112 -120 297q0 176 125 290q126 116 309 123v203h45v-244h-22q-173 0 -293 -104q-121 -105 -121 -268
q0 -166 108 -268q107 -101 285 -101q180 0 290 114q110 115 110 296z" />
    <glyph glyph-name="Agrave" unicode="&#xc0;" horiz-adv-x="1388" 
d="M670 1538l-195 279h47l191 -279h-43zM1348 0h-48l-186 401h-840l-186 -401h-47l635 1372h37zM1096 442l-402 867l-401 -867h803z" />
    <glyph glyph-name="Aacute" unicode="&#xc1;" horiz-adv-x="1388" 
d="M729 1538h-43l191 279h47zM1348 0h-48l-186 401h-840l-186 -401h-47l635 1372h37zM1096 442l-402 867l-401 -867h803z" />
    <glyph glyph-name="Acircumflex" unicode="&#xc2;" horiz-adv-x="1388" 
d="M479 1524h-51l246 276h41l246 -276h-52l-215 239zM1348 0h-48l-186 401h-840l-186 -401h-47l635 1372h37zM1096 442l-402 867l-401 -867h803z" />
    <glyph glyph-name="Atilde" unicode="&#xc3;" horiz-adv-x="1388" 
d="M565 1714q-45 0 -70 -30q-26 -31 -26 -80h-43q0 68 38 109q37 40 99 40q58 0 131 -58q74 -59 121 -59q43 0 68 31q24 30 24 84h43q0 -71 -37 -112q-37 -42 -98 -42q-54 0 -130 59q-74 58 -120 58zM1348 0h-48l-186 401h-840l-186 -401h-47l635 1372h37zM1096 442
l-402 867l-401 -867h803z" />
    <glyph glyph-name="Adieresis" unicode="&#xc4;" horiz-adv-x="1388" 
d="M510 1589q-22 0 -37 15q-14 14 -14 34t15 35t36 15t36 -15t15 -35t-14 -34q-15 -15 -37 -15zM879 1589q-22 0 -37 15t-15 34t16 35q15 15 36 15q20 0 35 -15q16 -16 16 -35t-15 -34t-36 -15zM1348 0h-48l-186 401h-840l-186 -401h-47l635 1372h37zM1096 442l-402 867
l-401 -867h803z" />
    <glyph glyph-name="Aring" unicode="&#xc5;" horiz-adv-x="1388" 
d="M694 1513q-75 0 -128 53q-52 52 -52 124t52 124t128 52t128 -52t52 -124t-52 -124q-53 -53 -128 -53zM694 1829q-58 0 -101 -41q-42 -40 -42 -98t42 -99q43 -41 101 -41q59 0 102 41q42 41 42 99t-42 98q-43 41 -102 41zM1348 0h-48l-186 401h-840l-186 -401h-47
l635 1372h37zM1096 442l-402 867l-401 -867h803z" />
    <glyph glyph-name="AE" unicode="&#xc6;" horiz-adv-x="2127" 
d="M1139 1331v-620h856v-41h-856v-629h917v-41h-962v381h-711l-289 -381h-53l1044 1372h971v-41h-917zM1094 422v893l-680 -893h680z" />
    <glyph glyph-name="Ccedilla" unicode="&#xc7;" horiz-adv-x="1622" 
d="M846 20q207 0 363 97q155 96 227 258l43 -17q-78 -170 -243 -273t-384 -105l-193 -349h-53l203 349q-282 15 -474 217q-192 203 -192 489q0 296 204 502q204 205 499 205q221 0 388 -104q168 -104 245 -275l-41 -17q-69 158 -227 257q-157 98 -365 98q-276 0 -467 -193
t-191 -473t191 -473t467 -193z" />
    <glyph glyph-name="Egrave" unicode="&#xc8;" horiz-adv-x="1310" 
d="M672 1538l-195 279h47l191 -279h-43zM260 1331v-620h856v-41h-856v-629h918v-41h-963v1372h963v-41h-918z" />
    <glyph glyph-name="Eacute" unicode="&#xc9;" horiz-adv-x="1310" 
d="M731 1538h-43l191 279h47zM260 1331v-620h856v-41h-856v-629h918v-41h-963v1372h963v-41h-918z" />
    <glyph glyph-name="Ecircumflex" unicode="&#xca;" horiz-adv-x="1310" 
d="M481 1524h-51l246 276h41l246 -276h-52l-215 239zM260 1331v-620h856v-41h-856v-629h918v-41h-963v1372h963v-41h-918z" />
    <glyph glyph-name="Edieresis" unicode="&#xcb;" horiz-adv-x="1310" 
d="M512 1589q-22 0 -37 15q-14 14 -14 34t15 35t36 15t36 -15t15 -35t-14 -34q-15 -15 -37 -15zM881 1589q-22 0 -37 15t-15 34t16 35q15 15 36 15q20 0 35 -15q16 -16 16 -35q0 -20 -14 -34q-15 -15 -37 -15zM260 1331v-620h856v-41h-856v-629h918v-41h-963v1372h963v-41
h-918z" />
    <glyph glyph-name="Igrave" unicode="&#xcc;" horiz-adv-x="475" 
d="M66 1817l190 -279h-43l-195 279h48zM260 0h-45v1372h45v-1372z" />
    <glyph glyph-name="Iacute" unicode="&#xcd;" horiz-adv-x="475" 
d="M272 1538h-43l191 279h47zM260 0h-45v1372h45v-1372z" />
    <glyph glyph-name="Icircumflex" unicode="&#xce;" horiz-adv-x="475" 
d="M504 1524h-51l-215 239l-215 -239h-52l246 276h41zM215 1372h45v-1372h-45v1372z" />
    <glyph glyph-name="Idieresis" unicode="&#xcf;" horiz-adv-x="475" 
d="M53 1688q21 0 36 -15t15 -35t-14 -34q-15 -15 -37 -15t-37 15q-14 14 -14 34t15 35t36 15zM422 1688q21 0 36 -15t15 -35t-14 -34q-15 -15 -37 -15t-37 15q-14 14 -14 34t15 35t36 15zM260 0h-45v1372h45v-1372z" />
    <glyph glyph-name="Eth" unicode="&#xd0;" horiz-adv-x="1538" 
d="M246 1372h403q365 0 565 -196q201 -197 201 -490q0 -292 -201 -489q-202 -197 -565 -197h-403v672h-185v41h185v659zM291 41h356q346 0 535 186q188 185 188 459t-188 459q-189 186 -535 186h-356v-618h401v-41h-401v-631z" />
    <glyph glyph-name="Ntilde" unicode="&#xd1;" horiz-adv-x="1554" 
d="M670 1714q-46 0 -71 -30q-26 -31 -26 -80h-43q0 68 38 109q37 40 100 40q58 0 131 -58q74 -59 121 -59q42 0 67 31t25 84h43q0 -71 -37 -112q-38 -42 -98 -42q-54 0 -130 59q-74 58 -120 58zM1339 1372v-1372h-45l-1034 1298v-1298h-45v1372h45l1034 -1298v1298h45z" />
    <glyph glyph-name="Ograve" unicode="&#xd2;" horiz-adv-x="1677" 
d="M815 1538l-194 279h47l190 -279h-43zM840 1393q291 0 492 -205q202 -207 202 -502q0 -296 -201 -502q-200 -204 -493 -204q-295 0 -495 204q-202 207 -202 502t202 502q201 205 495 205zM840 20q270 0 460 193q189 192 189 473q0 278 -189 472t-460 194q-274 0 -463 -194
t-189 -472q0 -281 189 -473q190 -193 463 -193z" />
    <glyph glyph-name="Oacute" unicode="&#xd3;" horiz-adv-x="1677" 
d="M874 1538h-43l191 279h47zM840 1393q291 0 492 -205q202 -207 202 -502q0 -296 -201 -502q-200 -204 -493 -204q-295 0 -495 204q-202 207 -202 502t202 502q201 205 495 205zM840 20q270 0 460 193q189 192 189 473q0 278 -189 472t-460 194q-274 0 -463 -194t-189 -472
q0 -281 189 -473q190 -193 463 -193z" />
    <glyph glyph-name="Ocircumflex" unicode="&#xd4;" horiz-adv-x="1677" 
d="M625 1524h-52l246 276h41l246 -276h-51l-215 239zM840 1393q291 0 492 -205q202 -207 202 -502q0 -296 -201 -502q-200 -204 -493 -204q-295 0 -495 204q-202 207 -202 502t202 502q201 205 495 205zM840 20q270 0 460 193q189 192 189 473q0 278 -189 472t-460 194
q-274 0 -463 -194t-189 -472q0 -281 189 -473q190 -193 463 -193z" />
    <glyph glyph-name="Otilde" unicode="&#xd5;" horiz-adv-x="1677" 
d="M711 1714q-45 0 -71 -30q-26 -31 -26 -80h-43q0 68 38 109q37 40 100 40q58 0 131 -58q74 -59 121 -59q42 0 67 31t25 84h43q0 -71 -37 -112q-37 -42 -98 -42q-55 0 -131 59q-74 58 -119 58zM840 1393q291 0 492 -205q202 -207 202 -502q0 -296 -201 -502
q-200 -204 -493 -204q-295 0 -495 204q-202 207 -202 502t202 502q201 205 495 205zM840 20q270 0 460 193q189 192 189 473q0 278 -189 472t-460 194q-274 0 -463 -194t-189 -472q0 -281 189 -473q190 -193 463 -193z" />
    <glyph glyph-name="Odieresis" unicode="&#xd6;" horiz-adv-x="1677" 
d="M655 1589q-22 0 -37 15q-14 14 -14 34q0 19 16 35q15 15 35 15q21 0 36 -15q16 -16 16 -35t-15 -34t-37 -15zM1024 1589q-22 0 -37 15q-14 14 -14 34t15 35t36 15t36 -15t15 -35t-14 -34q-15 -15 -37 -15zM840 1393q291 0 492 -205q202 -207 202 -502q0 -296 -201 -502
q-200 -204 -493 -204q-295 0 -495 204q-202 207 -202 502t202 502q201 205 495 205zM840 20q270 0 460 193q189 192 189 473q0 278 -189 472t-460 194q-274 0 -463 -194t-189 -472q0 -281 189 -473q190 -193 463 -193z" />
    <glyph glyph-name="multiply" unicode="&#xd7;" horiz-adv-x="995" 
d="M528 625l303 -303l-30 -31l-303 303l-303 -303l-31 31l303 303l-303 303l31 30l303 -303l303 303l30 -30z" />
    <glyph glyph-name="Oslash" unicode="&#xd8;" horiz-adv-x="1677" 
d="M1485 1303l-133 -134q182 -204 182 -483q0 -296 -201 -502q-200 -204 -493 -204q-287 0 -484 194l-133 -133l-28 29l133 133q-185 202 -185 483q0 295 202 502q201 205 495 205q282 0 483 -195l133 133zM188 686q0 -262 170 -453l934 934q-190 185 -452 185
q-274 0 -463 -194t-189 -472zM840 20q270 0 460 193q189 192 189 473q0 262 -168 451l-934 -932q190 -185 453 -185z" />
    <glyph glyph-name="Ugrave" unicode="&#xd9;" horiz-adv-x="1495" 
d="M723 1538l-195 279h47l191 -279h-43zM1300 1372v-788q0 -274 -152 -439t-400 -165q-249 0 -401 165t-152 439v788h45v-788q0 -256 139 -408q139 -153 369 -153q229 0 368 153q139 152 139 408v788h45z" />
    <glyph glyph-name="Uacute" unicode="&#xda;" horiz-adv-x="1495" 
d="M782 1538h-43l191 279h47zM1300 1372v-788q0 -274 -152 -439t-400 -165q-249 0 -401 165t-152 439v788h45v-788q0 -256 139 -408q139 -153 369 -153q229 0 368 153q139 152 139 408v788h45z" />
    <glyph glyph-name="Ucircumflex" unicode="&#xdb;" horiz-adv-x="1495" 
d="M532 1524h-51l246 276h41l246 -276h-51l-215 239zM1300 1372v-788q0 -274 -152 -439t-400 -165q-249 0 -401 165t-152 439v788h45v-788q0 -256 139 -408q139 -153 369 -153q229 0 368 153q139 152 139 408v788h45z" />
    <glyph glyph-name="Udieresis" unicode="&#xdc;" horiz-adv-x="1495" 
d="M563 1589q-22 0 -37 15q-14 14 -14 34t15 35t36 15t36 -15t15 -35t-14 -34q-15 -15 -37 -15zM932 1589q-22 0 -37 15q-14 14 -14 34t15 35t36 15t36 -15t15 -35t-14 -34q-15 -15 -37 -15zM1300 1372v-788q0 -274 -152 -439t-400 -165q-249 0 -401 165t-152 439v788h45
v-788q0 -256 139 -408q139 -153 369 -153q229 0 368 153q139 152 139 408v788h45z" />
    <glyph glyph-name="Yacute" unicode="&#xdd;" horiz-adv-x="1331" 
d="M700 1538h-43l191 279h47zM688 520v-520h-45v520l-592 852h53l562 -815l561 815h53z" />
    <glyph glyph-name="Thorn" unicode="&#xde;" horiz-adv-x="1241" 
d="M260 1098h455q206 0 336 -116q129 -115 129 -296q0 -180 -129 -296q-130 -116 -336 -116h-455v-274h-45v1372h45v-274zM260 315h455q186 0 303 105t117 266t-117 266t-303 105h-455v-742z" />
    <glyph glyph-name="germandbls" unicode="&#xdf;" horiz-adv-x="1335" 
d="M840 786q174 -24 279 -126q106 -103 106 -267q0 -173 -116 -294q-115 -119 -321 -119q-211 0 -380 100l24 37q164 -97 359 -97q181 0 286 108t105 265q0 176 -128 275q-126 98 -337 98h-115v43h115q168 0 272 91q105 92 105 237q0 148 -110 240q-109 91 -290 91
q-196 0 -316 -128t-120 -343v-997h-43v997q0 233 132 373q132 139 347 139q201 0 321 -101q122 -102 122 -263q0 -129 -80 -229t-217 -130z" />
    <glyph glyph-name="agrave" unicode="&#xe0;" horiz-adv-x="1320" 
d="M606 1161l-194 279h47l190 -279h-43zM1106 995v-995h-43v283q-58 -142 -183 -223q-124 -80 -280 -80q-215 0 -361 143q-147 144 -147 375q0 230 147 374t361 144q154 0 280 -81t183 -222v282h43zM600 20q186 0 325 134q138 134 138 344t-138 344q-137 133 -325 133
q-195 0 -330 -132t-135 -345t135 -345q136 -133 330 -133z" />
    <glyph glyph-name="aacute" unicode="&#xe1;" horiz-adv-x="1320" 
d="M666 1161h-43l190 279h47zM1106 995v-995h-43v283q-58 -142 -183 -223q-124 -80 -280 -80q-215 0 -361 143q-147 144 -147 375q0 230 147 374t361 144q154 0 280 -81t183 -222v282h43zM600 20q186 0 325 134q138 134 138 344t-138 344q-137 133 -325 133
q-195 0 -330 -132t-135 -345t135 -345q136 -133 330 -133z" />
    <glyph glyph-name="acircumflex" unicode="&#xe2;" horiz-adv-x="1320" 
d="M416 1147h-51l245 276h41l246 -276h-51l-215 239zM1106 995v-995h-43v283q-58 -142 -183 -223q-124 -80 -280 -80q-215 0 -361 143q-147 144 -147 375q0 230 147 374t361 144q154 0 280 -81t183 -222v282h43zM600 20q186 0 325 134q138 134 138 344t-138 344
q-137 133 -325 133q-195 0 -330 -132t-135 -345t135 -345q136 -133 330 -133z" />
    <glyph glyph-name="atilde" unicode="&#xe3;" horiz-adv-x="1320" 
d="M502 1337q-46 0 -71 -29t-25 -81h-44q0 68 38 109q37 40 100 40q58 0 131 -58t121 -58q43 0 67 30q25 31 25 84h43q0 -70 -37 -111q-38 -42 -98 -42q-56 0 -130 58t-120 58zM1106 995v-995h-43v283q-58 -142 -183 -223q-124 -80 -280 -80q-215 0 -361 143
q-147 144 -147 375q0 230 147 374t361 144q154 0 280 -81t183 -222v282h43zM600 20q186 0 325 134q138 134 138 344t-138 344q-137 133 -325 133q-195 0 -330 -132t-135 -345t135 -345q136 -133 330 -133z" />
    <glyph glyph-name="adieresis" unicode="&#xe4;" horiz-adv-x="1320" 
d="M446 1212q-21 0 -36 15t-15 35q0 18 16 34q15 15 35 15q21 0 36 -15q16 -16 16 -34q0 -20 -15 -35t-37 -15zM815 1212q-22 0 -37 15q-14 14 -14 35q0 19 15 34t36 15t36 -15t15 -34q0 -21 -14 -35q-15 -15 -37 -15zM1106 995v-995h-43v283q-58 -142 -183 -223
q-124 -80 -280 -80q-215 0 -361 143q-147 144 -147 375q0 230 147 374t361 144q154 0 280 -81t183 -222v282h43zM600 20q186 0 325 134q138 134 138 344t-138 344q-137 133 -325 133q-195 0 -330 -132t-135 -345t135 -345q136 -133 330 -133z" />
    <glyph glyph-name="aring" unicode="&#xe5;" horiz-adv-x="1320" 
d="M631 1137q-76 0 -128 52t-52 124t52 124t128 52t128 -52t52 -124t-52 -124t-128 -52zM631 1452q-59 0 -102 -41q-42 -41 -42 -98q0 -59 42 -99q41 -40 102 -40q60 0 101 40q42 40 42 99q0 57 -42 98q-43 41 -101 41zM1106 995v-995h-43v283q-58 -142 -183 -223
q-124 -80 -280 -80q-215 0 -361 143q-147 144 -147 375q0 230 147 374t361 144q154 0 280 -81t183 -222v282h43zM600 20q186 0 325 134q138 134 138 344t-138 344q-137 133 -325 133q-195 0 -330 -132t-135 -345t135 -345q136 -133 330 -133z" />
    <glyph glyph-name="ae" unicode="&#xe6;" horiz-adv-x="1951" 
d="M1839 492h-885q1 -216 124 -345q121 -127 313 -127q125 0 240 82q116 83 153 217l39 -12q-34 -143 -163 -235q-128 -92 -269 -92q-172 0 -292 93q-121 93 -167 261q-38 -165 -159 -259q-122 -95 -288 -95q-179 0 -275 77q-97 78 -97 203q0 129 99 201q98 71 269 71h430
v130q0 141 -92 227t-244 86q-161 0 -257 -70q-95 -69 -113 -190l-39 12q16 133 122 211q105 78 287 78q153 0 254 -82q103 -83 121 -217q56 143 171 221q114 78 272 78q196 0 318 -143t128 -363v-18zM954 532h840q-12 197 -123 320t-276 123q-187 0 -309 -120
q-121 -120 -132 -323zM911 492h-430q-147 0 -237 -61q-88 -60 -88 -171q0 -108 85 -174t244 -66q183 0 305 125q121 124 121 330v17z" />
    <glyph glyph-name="ccedilla" unicode="&#xe7;" horiz-adv-x="1177" 
d="M618 20q140 0 255 68q113 67 151 186l39 -14q-38 -125 -155 -201q-115 -74 -269 -79l-195 -349h-53l203 349q-200 10 -341 151q-140 140 -140 367t149 372q151 146 356 146q156 0 281 -80q126 -80 166 -215l-39 -16q-37 122 -153 196t-255 74q-188 0 -325 -134t-137 -343
q0 -216 136 -346q138 -132 326 -132z" />
    <glyph glyph-name="egrave" unicode="&#xe8;" horiz-adv-x="1216" 
d="M602 1161l-194 279h47l190 -279h-43zM156 508v-10v-4q0 -213 139 -343q140 -131 317 -131q159 0 271 76q114 77 164 221l36 -12q-50 -154 -174 -240q-122 -85 -297 -85q-196 0 -348 141q-151 141 -151 373q0 233 153 377q154 145 363 145q207 0 338 -135
q131 -136 137 -353v-20h-948zM629 975q-177 0 -315 -117t-156 -309h901q-12 194 -132 310q-121 116 -298 116z" />
    <glyph glyph-name="eacute" unicode="&#xe9;" horiz-adv-x="1216" 
d="M662 1161h-44l191 279h47zM156 508v-10v-4q0 -213 139 -343q140 -131 317 -131q159 0 271 76q114 77 164 221l36 -12q-50 -154 -174 -240q-122 -85 -297 -85q-196 0 -348 141q-151 141 -151 373q0 233 153 377q154 145 363 145q207 0 338 -135q131 -136 137 -353v-20
h-948zM629 975q-177 0 -315 -117t-156 -309h901q-12 194 -132 310q-121 116 -298 116z" />
    <glyph glyph-name="ecircumflex" unicode="&#xea;" horiz-adv-x="1216" 
d="M412 1147h-52l246 276h41l246 -276h-51l-215 239zM156 508v-10v-4q0 -213 139 -343q140 -131 317 -131q159 0 271 76q114 77 164 221l36 -12q-50 -154 -174 -240q-122 -85 -297 -85q-196 0 -348 141q-151 141 -151 373q0 233 153 377q154 145 363 145q207 0 338 -135
q131 -136 137 -353v-20h-948zM629 975q-177 0 -315 -117t-156 -309h901q-12 194 -132 310q-121 116 -298 116z" />
    <glyph glyph-name="edieresis" unicode="&#xeb;" horiz-adv-x="1216" 
d="M442 1212q-21 0 -36 15t-15 35q0 18 16 34q15 15 35 15q21 0 36 -15q16 -16 16 -34q0 -20 -15 -35t-37 -15zM811 1212q-22 0 -37 15q-14 14 -14 35q0 19 15 34t36 15t36 -15t15 -34q0 -21 -14 -35q-15 -15 -37 -15zM156 508v-10v-4q0 -213 139 -343q140 -131 317 -131
q159 0 271 76q114 77 164 221l36 -12q-50 -154 -174 -240q-122 -85 -297 -85q-196 0 -348 141q-151 141 -151 373q0 233 153 377q154 145 363 145q207 0 338 -135q131 -136 137 -353v-20h-948zM629 975q-177 0 -315 -117t-156 -309h901q-12 194 -132 310q-121 116 -298 116z
" />
    <glyph glyph-name="igrave" unicode="&#xec;" horiz-adv-x="534" 
d="M96 1440l191 -279h-43l-195 279h47zM289 0h-43v995h43v-995z" />
    <glyph glyph-name="iacute" unicode="&#xed;" horiz-adv-x="534" 
d="M303 1161h-43l191 279h47zM289 0h-43v995h43v-995z" />
    <glyph glyph-name="icircumflex" unicode="&#xee;" horiz-adv-x="534" 
d="M535 1147h-52l-215 239l-215 -239h-51l246 276h41zM246 995h43v-995h-43v995z" />
    <glyph glyph-name="idieresis" unicode="&#xef;" horiz-adv-x="534" 
d="M84 1311q21 0 36 -15t15 -34q0 -21 -14 -35q-15 -15 -37 -15t-37 15q-14 14 -14 35q0 19 15 34t36 15zM453 1311q20 0 35 -15q16 -16 16 -34q0 -20 -15 -35t-36 -15q-22 0 -37 15t-15 35q0 18 16 34q15 15 36 15zM289 0h-43v995h43v-995z" />
    <glyph glyph-name="eth" unicode="&#xf0;" 
d="M905 1376l-196 -100q204 -162 316 -371t112 -399q0 -233 -149 -380q-147 -146 -355 -146q-216 0 -368 145t-152 373q0 227 152 372q154 146 362 146q235 0 379 -170l4 2q-122 233 -344 407l-265 -133l-18 35l246 125q-150 111 -332 184v9h86q165 -75 289 -170l213 108z
M633 20q218 0 340 152q121 151 121 334q0 201 -140 335t-327 134q-189 0 -331 -134q-140 -133 -140 -343t140 -343q143 -135 337 -135z" />
    <glyph glyph-name="ntilde" unicode="&#xf1;" horiz-adv-x="1294" 
d="M545 1337q-46 0 -71 -29t-25 -81h-43q0 69 37 109t100 40q58 0 131 -58t121 -58q43 0 67 30q25 31 25 84h43q0 -70 -37 -111q-37 -42 -98 -42q-56 0 -130 58t-120 58zM698 1016q180 0 291 -118t111 -312v-586h-43v586q0 172 -98 281q-97 108 -254 108q-201 0 -324 -125
q-123 -124 -123 -332v-518h-43v995h43v-276q49 138 165 218q115 79 275 79z" />
    <glyph glyph-name="ograve" unicode="&#xf2;" horiz-adv-x="1259" 
d="M604 1182l-194 278h47l190 -278h-43zM629 1016q223 0 370 -147q148 -148 148 -369q0 -222 -148 -372q-147 -148 -370 -148q-222 0 -369 148t-147 372q0 222 147 369t369 147zM629 20q205 0 340 137q135 136 135 343q0 205 -135 340t-340 135q-203 0 -338 -135t-135 -340
q0 -206 135 -342q136 -138 338 -138z" />
    <glyph glyph-name="oacute" unicode="&#xf3;" horiz-adv-x="1259" 
d="M664 1182h-43l190 278h47zM629 1016q223 0 370 -147q148 -148 148 -369q0 -222 -148 -372q-147 -148 -370 -148q-222 0 -369 148t-147 372q0 222 147 369t369 147zM629 20q205 0 340 137q135 136 135 343q0 205 -135 340t-340 135q-203 0 -338 -135t-135 -340
q0 -206 135 -342q136 -138 338 -138z" />
    <glyph glyph-name="ocircumflex" unicode="&#xf4;" horiz-adv-x="1259" 
d="M414 1167h-52l246 277h41l246 -277h-51l-215 240zM629 1016q223 0 370 -147q148 -148 148 -369q0 -222 -148 -372q-147 -148 -370 -148q-222 0 -369 148t-147 372q0 222 147 369t369 147zM629 20q205 0 340 137q135 136 135 343q0 205 -135 340t-340 135
q-203 0 -338 -135t-135 -340q0 -206 135 -342q136 -138 338 -138z" />
    <glyph glyph-name="otilde" unicode="&#xf5;" horiz-adv-x="1259" 
d="M500 1358q-46 0 -71 -30q-26 -31 -26 -81h-43q0 69 38 110q37 40 100 40q57 0 131 -59q73 -58 121 -58q42 0 67 31t25 84h43q0 -71 -37 -112q-38 -42 -98 -42q-56 0 -130 58q-76 59 -120 59zM629 1016q223 0 370 -147q148 -148 148 -369q0 -222 -148 -372
q-147 -148 -370 -148q-222 0 -369 148t-147 372q0 222 147 369t369 147zM629 20q205 0 340 137q135 136 135 343q0 205 -135 340t-340 135q-203 0 -338 -135t-135 -340q0 -206 135 -342q136 -138 338 -138z" />
    <glyph glyph-name="odieresis" unicode="&#xf6;" horiz-adv-x="1259" 
d="M444 1233q-22 0 -36 14q-15 15 -15 35q0 19 16 35q14 14 35 14q22 0 36 -14q16 -16 16 -35q0 -20 -15 -35q-14 -14 -37 -14zM813 1233q-23 0 -37 14t-14 35q0 20 15 35q14 14 36 14t36 -14q15 -15 15 -35q0 -21 -14 -35t-37 -14zM629 1016q223 0 370 -147
q148 -148 148 -369q0 -222 -148 -372q-147 -148 -370 -148q-222 0 -369 148t-147 372q0 222 147 369t369 147zM629 20q205 0 340 137q135 136 135 343q0 205 -135 340t-340 135q-203 0 -338 -135t-135 -340q0 -206 135 -342q136 -138 338 -138z" />
    <glyph glyph-name="divide" unicode="&#xf7;" horiz-adv-x="1187" 
d="M594 1051q21 0 36 -15t15 -35t-14 -34q-15 -15 -37 -15t-37 15q-14 14 -14 34t15 35t36 15zM1024 604h-860v41h860v-41zM594 297q22 0 36 -14q15 -15 15 -35q0 -21 -14 -35t-37 -14t-37 14t-14 35q0 20 15 35q14 14 36 14z" />
    <glyph glyph-name="oslash" unicode="&#xf8;" 
d="M1137 979l-125 -123q135 -145 135 -356q0 -222 -148 -372q-147 -148 -370 -148q-212 0 -357 137l-131 -131l-28 28l131 131q-131 148 -131 355q0 222 147 369t369 147q209 0 354 -131l125 123zM156 500q0 -194 118 -324l680 678q-133 121 -325 121q-203 0 -338 -135
t-135 -340zM629 20q205 0 340 137q135 136 135 343q0 192 -121 325l-680 -680q136 -125 326 -125z" />
    <glyph glyph-name="ugrave" unicode="&#xf9;" horiz-adv-x="1294" 
d="M608 1161l-194 279h47l190 -279h-43zM1079 995v-995h-43v276q-49 -138 -165 -218q-113 -78 -275 -78q-181 0 -291 117t-110 313v585h43v-585q0 -175 97 -282q97 -108 255 -108q200 0 323 125t123 332v518h43z" />
    <glyph glyph-name="uacute" unicode="&#xfa;" horiz-adv-x="1294" 
d="M668 1161h-43l190 279h47zM1079 995v-995h-43v276q-49 -138 -165 -218q-113 -78 -275 -78q-181 0 -291 117t-110 313v585h43v-585q0 -175 97 -282q97 -108 255 -108q200 0 323 125t123 332v518h43z" />
    <glyph glyph-name="ucircumflex" unicode="&#xfb;" horiz-adv-x="1294" 
d="M418 1147h-51l245 276h41l246 -276h-51l-215 239zM1079 995v-995h-43v276q-49 -138 -165 -218q-113 -78 -275 -78q-181 0 -291 117t-110 313v585h43v-585q0 -175 97 -282q97 -108 255 -108q200 0 323 125t123 332v518h43z" />
    <glyph glyph-name="udieresis" unicode="&#xfc;" horiz-adv-x="1294" 
d="M449 1212q-22 0 -37 15t-15 35q0 18 16 34q15 15 36 15q20 0 35 -15q16 -16 16 -34q0 -20 -15 -35t-36 -15zM817 1212q-22 0 -37 15q-14 14 -14 35q0 19 15 34t36 15t36 -15t15 -34q0 -21 -14 -35q-15 -15 -37 -15zM1079 995v-995h-43v276q-49 -138 -165 -218
q-113 -78 -275 -78q-181 0 -291 117t-110 313v585h43v-585q0 -175 97 -282q97 -108 255 -108q200 0 323 125t123 332v518h43z" />
    <glyph glyph-name="yacute" unicode="&#xfd;" horiz-adv-x="1107" 
d="M612 1161h-43l191 279h47zM1057 995l-645 -1343h-47l167 348l-481 995h51l453 -946l455 946h47z" />
    <glyph glyph-name="thorn" unicode="&#xfe;" horiz-adv-x="1341" 
d="M721 1016q214 0 361 -144t147 -374q0 -231 -147 -375q-146 -143 -361 -143q-156 0 -280 80q-125 81 -183 223v-631h-43v1823h43v-762q57 141 183 222t280 81zM721 20q194 0 330 133q135 132 135 345t-135 345t-330 132q-188 0 -325 -133q-138 -134 -138 -344t138 -344
q139 -134 325 -134z" />
    <glyph glyph-name="ydieresis" unicode="&#xff;" horiz-adv-x="1107" 
d="M393 1212q-22 0 -37 15q-14 14 -14 35q0 19 15 34t36 15t36 -15t15 -34q0 -21 -14 -35q-15 -15 -37 -15zM762 1212q-22 0 -37 15q-14 14 -14 35q0 19 15 34t36 15t36 -15t15 -34q0 -21 -14 -35q-15 -15 -37 -15zM1057 995l-645 -1343h-47l167 348l-481 995h51l453 -946
l455 946h47z" />
    <glyph glyph-name="Amacron" unicode="&#x100;" horiz-adv-x="1388" 
d="M950 1595h-512v35h512v-35zM1348 0h-48l-186 401h-840l-186 -401h-47l635 1372h37zM1096 442l-402 867l-401 -867h803z" />
    <glyph glyph-name="amacron" unicode="&#x101;" horiz-adv-x="1320" 
d="M887 1219h-512v34h512v-34zM1106 995v-995h-43v283q-58 -142 -183 -223q-124 -80 -280 -80q-215 0 -361 143q-147 144 -147 375q0 230 147 374t361 144q154 0 280 -81t183 -222v282h43zM600 20q186 0 325 134q138 134 138 344t-138 344q-137 133 -325 133
q-195 0 -330 -132t-135 -345t135 -345q136 -133 330 -133z" />
    <glyph glyph-name="Abreve" unicode="&#x102;" horiz-adv-x="1388" 
d="M694 1526q-109 0 -180 67q-72 67 -72 176h39q0 -92 62 -149t151 -57q90 0 152 57q61 57 61 149h39q0 -109 -72 -176q-71 -67 -180 -67zM1348 0h-48l-186 401h-840l-186 -401h-47l635 1372h37zM1096 442l-402 867l-401 -867h803z" />
    <glyph glyph-name="abreve" unicode="&#x103;" horiz-adv-x="1320" 
d="M631 1149q-107 0 -180 68q-72 67 -72 176h39q0 -93 61 -150t152 -57q90 0 151 57q62 57 62 150h39q0 -109 -72 -176q-73 -68 -180 -68zM1106 995v-995h-43v283q-58 -142 -183 -223q-124 -80 -280 -80q-215 0 -361 143q-147 144 -147 375q0 230 147 374t361 144
q154 0 280 -81t183 -222v282h43zM600 20q186 0 325 134q138 134 138 344t-138 344q-137 133 -325 133q-195 0 -330 -132t-135 -345t135 -345q136 -133 330 -133z" />
    <glyph glyph-name="Aogonek" unicode="&#x104;" horiz-adv-x="1388" 
d="M1401 -328l12 -39q-67 -22 -102 -22q-63 0 -109 36q-47 36 -47 120q0 58 32 108q32 51 113 127l-186 399h-840l-186 -401h-47l635 1372h37l635 -1372q-88 -85 -119 -130q-33 -48 -33 -103q0 -115 113 -115q29 0 92 20zM1096 442l-402 867l-401 -867h803z" />
    <glyph glyph-name="aogonek" unicode="&#x105;" horiz-adv-x="1320" 
d="M1159 -328l12 -39q-67 -22 -102 -22q-61 0 -108 36q-48 37 -48 120q0 58 32 108q28 44 118 131v277q-58 -142 -183 -223q-124 -80 -280 -80q-215 0 -361 143q-147 144 -147 375q0 230 147 374t361 144q154 0 280 -81t183 -222v282h43v-995q-88 -85 -119 -130
q-33 -48 -33 -103q0 -115 113 -115q29 0 92 20zM600 20q186 0 325 134q138 134 138 344t-138 344q-137 133 -325 133q-195 0 -330 -132t-135 -345t135 -345q136 -133 330 -133z" />
    <glyph glyph-name="Cacute" unicode="&#x106;" horiz-adv-x="1622" 
d="M874 1538h-43l191 279h47zM846 20q207 0 363 97q155 96 227 258l43 -17q-77 -171 -245 -275q-166 -103 -388 -103q-296 0 -499 204q-204 206 -204 502t204 502q204 205 499 205q221 0 388 -104q168 -104 245 -275l-41 -17q-69 158 -227 257q-157 98 -365 98
q-276 0 -467 -193t-191 -473t191 -473t467 -193z" />
    <glyph glyph-name="cacute" unicode="&#x107;" horiz-adv-x="1177" 
d="M659 1161h-43l191 279h47zM618 20q140 0 255 68q113 67 151 186l39 -14q-39 -131 -163 -206q-123 -74 -282 -74q-209 0 -357 142t-148 376q0 227 149 372q151 146 356 146q156 0 281 -80q126 -80 166 -215l-39 -16q-37 122 -153 196t-255 74q-188 0 -325 -134t-137 -343
q0 -216 136 -346q138 -132 326 -132z" />
    <glyph glyph-name="Cdotaccent" unicode="&#x10a;" horiz-adv-x="1622" 
d="M840 1599q-22 0 -37 15t-15 35q0 18 16 34q15 15 36 15t36 -15t15 -34q0 -21 -14 -35q-15 -15 -37 -15zM846 20q207 0 363 97q155 96 227 258l43 -17q-77 -171 -245 -275q-166 -103 -388 -103q-296 0 -499 204q-204 206 -204 502t204 502q204 205 499 205q221 0 388 -104
q168 -104 245 -275l-41 -17q-69 158 -227 257q-157 98 -365 98q-276 0 -467 -193t-191 -473t191 -473t467 -193z" />
    <glyph glyph-name="cdotaccent" unicode="&#x10b;" horiz-adv-x="1177" 
d="M625 1223q-23 0 -37 14q-15 15 -15 35q0 19 16 35q14 14 36 14q21 0 35 -14q16 -16 16 -35q0 -21 -14 -35t-37 -14zM618 20q140 0 255 68q113 67 151 186l39 -14q-39 -131 -163 -206q-123 -74 -282 -74q-209 0 -357 142t-148 376q0 227 149 372q151 146 356 146
q156 0 281 -80q126 -80 166 -215l-39 -16q-37 122 -153 196t-255 74q-188 0 -325 -134t-137 -343q0 -216 136 -346q138 -132 326 -132z" />
    <glyph glyph-name="Ccaron" unicode="&#x10c;" horiz-adv-x="1622" 
d="M819 1528l-246 276h52l215 -239l215 239h51l-246 -276h-41zM846 20q207 0 363 97q155 96 227 258l43 -17q-77 -171 -245 -275q-166 -103 -388 -103q-296 0 -499 204q-204 206 -204 502t204 502q204 205 499 205q221 0 388 -104q168 -104 245 -275l-41 -17
q-69 158 -227 257q-157 98 -365 98q-276 0 -467 -193t-191 -473t191 -473t467 -193z" />
    <glyph glyph-name="ccaron" unicode="&#x10d;" horiz-adv-x="1177" 
d="M604 1151l-246 276h52l215 -239l215 239h51l-246 -276h-41zM618 20q140 0 255 68q113 67 151 186l39 -14q-39 -131 -163 -206q-123 -74 -282 -74q-209 0 -357 142t-148 376q0 227 149 372q151 146 356 146q156 0 281 -80q126 -80 166 -215l-39 -16q-37 122 -153 196
t-255 74q-188 0 -325 -134t-137 -343q0 -216 136 -346q138 -132 326 -132z" />
    <glyph glyph-name="Dcaron" unicode="&#x10e;" horiz-adv-x="1527" 
d="M686 1528l-246 276h52l215 -239l215 239h51l-246 -276h-41zM215 1372h403q366 0 566 -196t200 -490q0 -293 -200 -489q-202 -197 -566 -197h-403v1372zM260 41h356q346 0 535 186q188 185 188 459t-188 459q-189 186 -535 186h-356v-1290z" />
    <glyph glyph-name="dcaron" unicode="&#x10f;" horiz-adv-x="1341" 
d="M1083 1475h43v-1475h-43v283q-58 -142 -183 -223q-124 -80 -279 -80q-216 0 -362 143t-146 375q0 231 146 374q147 144 362 144q153 0 279 -81t183 -222v762zM1389 1475l-9 -299h-37v299h46zM621 20q185 0 324 134q138 134 138 344t-138 344q-137 133 -324 133
q-195 0 -330 -132t-135 -345t135 -345q136 -133 330 -133z" />
    <glyph glyph-name="Dcroat" unicode="&#x110;" horiz-adv-x="1538" 
d="M246 1372h403q365 0 565 -196q201 -197 201 -490q0 -292 -201 -489q-202 -197 -565 -197h-403v672h-185v41h185v659zM291 41h356q346 0 535 186q188 185 188 459t-188 459q-189 186 -535 186h-356v-618h401v-41h-401v-631z" />
    <glyph glyph-name="dcroat" unicode="&#x111;" horiz-adv-x="1372" 
d="M1311 1219h-185v-1219h-43v283q-58 -142 -183 -223q-124 -80 -279 -80q-216 0 -362 143t-146 375q0 231 146 374q147 144 362 144q153 0 279 -81t183 -222v506h-407v34h407v222h43v-222h185v-34zM621 20q185 0 324 134q138 134 138 344t-138 344q-137 133 -324 133
q-195 0 -330 -132t-135 -345t135 -345q136 -133 330 -133z" />
    <glyph glyph-name="Emacron" unicode="&#x112;" horiz-adv-x="1310" 
d="M952 1595h-512v35h512v-35zM260 1331v-620h856v-41h-856v-629h918v-41h-963v1372h963v-41h-918z" />
    <glyph glyph-name="emacron" unicode="&#x113;" horiz-adv-x="1216" 
d="M883 1219h-512v34h512v-34zM156 508v-10v-4q0 -213 139 -343q140 -131 317 -131q159 0 271 76q114 77 164 221l36 -12q-50 -154 -174 -240q-122 -85 -297 -85q-196 0 -348 141q-151 141 -151 373q0 233 153 377q154 145 363 145q207 0 338 -135q131 -136 137 -353v-20
h-948zM629 975q-177 0 -315 -117t-156 -309h901q-12 194 -132 310q-121 116 -298 116z" />
    <glyph glyph-name="Edotaccent" unicode="&#x116;" horiz-adv-x="1310" 
d="M696 1599q-22 0 -37 15q-14 14 -14 35q0 19 15 34t36 15t36 -15q16 -16 16 -34q0 -20 -15 -35t-37 -15zM260 1331v-620h856v-41h-856v-629h918v-41h-963v1372h963v-41h-918z" />
    <glyph glyph-name="edotaccent" unicode="&#x117;" horiz-adv-x="1216" 
d="M627 1223q-23 0 -37 14q-15 15 -15 35q0 19 16 35q14 14 36 14t36 -14q15 -15 15 -35q0 -21 -14 -35t-37 -14zM156 508v-10v-4q0 -213 139 -343q140 -131 317 -131q159 0 271 76q114 77 164 221l36 -12q-50 -154 -174 -240q-122 -85 -297 -85q-196 0 -348 141
q-151 141 -151 373q0 233 153 377q154 145 363 145q207 0 338 -135q131 -136 137 -353v-20h-948zM629 975q-177 0 -315 -117t-156 -309h901q-12 194 -132 310q-121 116 -298 116z" />
    <glyph glyph-name="Eogonek" unicode="&#x118;" horiz-adv-x="1310" 
d="M260 1331v-620h856v-41h-856v-629h918v-41h-84q-88 -85 -119 -130q-33 -48 -33 -103q0 -115 113 -115q29 0 92 20l12 -39q-67 -22 -102 -22q-63 0 -109 36q-47 36 -47 120q0 55 31 106q30 49 112 127h-829v1372h963v-41h-918z" />
    <glyph glyph-name="eogonek" unicode="&#x119;" horiz-adv-x="1218" 
d="M156 508v-6v-4q0 -213 135 -345q136 -133 315 -133q149 0 274 89q124 88 169 217l30 -13q-22 -71 -78 -145q-145 -188 -187 -256t-42 -127q0 -60 35 -90q36 -31 96 -31q42 0 94 25l13 -41q-56 -27 -107 -27q-81 0 -127 43q-47 44 -47 119q0 50 29 108q30 60 108 166
q-120 -77 -260 -77q-201 0 -347 143t-146 375q0 231 156 375q157 145 360 145q205 0 338 -135q133 -134 139 -353v-22h-950zM629 977q-170 0 -312 -119q-141 -118 -159 -309h903q-15 197 -136 312q-122 116 -296 116z" />
    <glyph glyph-name="Ecaron" unicode="&#x11a;" horiz-adv-x="1310" 
d="M676 1528l-246 276h51l215 -239l215 239h52l-246 -276h-41zM260 1331v-620h856v-41h-856v-629h918v-41h-963v1372h963v-41h-918z" />
    <glyph glyph-name="ecaron" unicode="&#x11b;" horiz-adv-x="1216" 
d="M606 1151l-246 276h52l215 -239l215 239h51l-246 -276h-41zM156 508v-10v-4q0 -213 139 -343q140 -131 317 -131q159 0 271 76q114 77 164 221l36 -12q-50 -154 -174 -240q-122 -85 -297 -85q-196 0 -348 141q-151 141 -151 373q0 233 153 377q154 145 363 145
q207 0 338 -135q131 -136 137 -353v-20h-948zM629 975q-177 0 -315 -117t-156 -309h901q-12 194 -132 310q-121 116 -298 116z" />
    <glyph glyph-name="Gbreve" unicode="&#x11e;" horiz-adv-x="1667" 
d="M844 1526q-109 0 -180 67q-72 67 -72 176h39q0 -92 61 -149q62 -57 152 -57t151 57q62 57 62 149h39q0 -109 -72 -176q-71 -67 -180 -67zM1524 707v-21q0 -295 -190 -502q-188 -204 -490 -204q-297 0 -498 204q-203 206 -203 502t203 502q202 205 498 205q224 0 391 -104
q166 -103 242 -275l-41 -17q-69 159 -226 257t-366 98q-276 0 -466 -193t-190 -473t190 -473t466 -193q274 0 450 187q178 188 185 459h-723v41h768z" />
    <glyph glyph-name="gbreve" unicode="&#x11f;" horiz-adv-x="1308" 
d="M625 1149q-108 0 -181 68q-71 67 -71 176h39q0 -93 61 -150q62 -57 152 -57q89 0 151 57t62 150h39q0 -109 -72 -176q-73 -68 -180 -68zM1094 995v-932q-1 -203 -130 -328q-127 -124 -337 -124q-381 0 -492 299l43 16q102 -274 449 -274q189 0 305 112q117 113 119 299
v269q-57 -130 -174 -203q-118 -74 -265 -74q-212 0 -355 133q-144 133 -144 349q0 215 144 346q145 131 355 131q148 0 265 -72t174 -201v254h43zM612 96q180 0 310 122q129 122 129 319q0 196 -129 316t-310 120q-192 0 -324 -120t-132 -316q0 -197 132 -319
q133 -122 324 -122z" />
    <glyph glyph-name="Gdotaccent" unicode="&#x120;" horiz-adv-x="1667" 
d="M844 1599q-22 0 -37 15q-14 14 -14 35q0 19 15 34t36 15t36 -15t15 -34q0 -21 -14 -35q-15 -15 -37 -15zM1524 707v-21q0 -295 -190 -502q-188 -204 -490 -204q-297 0 -498 204q-203 206 -203 502t203 502q202 205 498 205q224 0 391 -104q166 -103 242 -275l-41 -17
q-69 159 -226 257t-366 98q-276 0 -466 -193t-190 -473t190 -473t466 -193q274 0 450 187q178 188 185 459h-723v41h768z" />
    <glyph glyph-name="gdotaccent" unicode="&#x121;" horiz-adv-x="1308" 
d="M625 1223q-23 0 -37 14q-15 15 -15 35q0 19 16 35q14 14 36 14q21 0 35 -14q16 -16 16 -35q0 -21 -14 -35t-37 -14zM1094 995v-932q-1 -203 -130 -328q-127 -124 -337 -124q-381 0 -492 299l43 16q102 -274 449 -274q189 0 305 112q117 113 119 299v269
q-57 -130 -174 -203q-118 -74 -265 -74q-212 0 -355 133q-144 133 -144 349q0 215 144 346q145 131 355 131q148 0 265 -72t174 -201v254h43zM612 96q180 0 310 122q129 122 129 319q0 196 -129 316t-310 120q-192 0 -324 -120t-132 -316q0 -197 132 -319q133 -122 324 -122
z" />
    <glyph glyph-name="Gcommaaccent" unicode="&#x122;" horiz-adv-x="1667" 
d="M1524 707v-21q0 -295 -190 -502q-188 -204 -490 -204q-297 0 -498 204q-203 206 -203 502t203 502q202 205 498 205q224 0 391 -104q166 -103 242 -275l-41 -17q-69 159 -226 257t-366 98q-276 0 -466 -193t-190 -473t190 -473t466 -193q274 0 450 187q178 188 185 459
h-723v41h768zM791 -92h47l-95 -277h-41z" />
    <glyph glyph-name="gcommaaccent" unicode="&#x123;" horiz-adv-x="1320" 
d="M674 1176h-47l94 276h41zM1094 995v-932q-1 -203 -130 -328q-127 -124 -337 -124q-381 0 -492 299l43 16q102 -274 449 -274q189 0 305 112q117 113 119 299v269q-57 -130 -174 -203q-118 -74 -265 -74q-212 0 -355 133q-144 133 -144 349q0 215 144 346q145 131 355 131
q148 0 265 -72t174 -201v254h43zM612 96q180 0 310 122q129 122 129 319q0 196 -129 316t-310 120q-192 0 -324 -120t-132 -316q0 -197 132 -319q133 -122 324 -122z" />
    <glyph glyph-name="Hbar" unicode="&#x126;" horiz-adv-x="1521" 
d="M1460 995h-157v-995h-46v672h-993v-672h-45v995h-158v41h158v336h45v-336h993v336h46v-336h157v-41zM1257 995h-993v-282h993v282z" />
    <glyph glyph-name="hbar" unicode="&#x127;" horiz-adv-x="1263" 
d="M729 1016q180 0 291 -118q110 -117 110 -312v-586h-43v586q0 174 -97 281q-98 108 -255 108q-200 0 -323 -125q-123 -124 -123 -332v-518h-43v1219h-185v34h185v222h43v-222h407v-34h-407v-500q49 138 165 218q115 79 275 79z" />
    <glyph glyph-name="Imacron" unicode="&#x12a;" horiz-adv-x="475" 
d="M494 1595h-512v35h512v-35zM260 0h-45v1372h45v-1372z" />
    <glyph glyph-name="imacron" unicode="&#x12b;" horiz-adv-x="534" 
d="M524 1219h-512v34h512v-34zM289 0h-43v995h43v-995z" />
    <glyph glyph-name="Iogonek" unicode="&#x12e;" horiz-adv-x="475" 
d="M313 -328l13 -39q-67 -22 -103 -22q-61 0 -108 36t-47 120q0 59 31 108q31 48 116 129v1368h45v-1372q-88 -85 -119 -130q-32 -47 -32 -103q0 -115 112 -115q29 0 92 20z" />
    <glyph glyph-name="iogonek" unicode="&#x12f;" horiz-adv-x="534" 
d="M268 1223q-23 0 -37 14t-14 35q0 20 15 35q14 14 36 14t36 -14q15 -15 15 -35q0 -21 -14 -35t-37 -14zM342 -328l12 -39q-67 -22 -102 -22q-63 0 -109 36q-47 36 -47 120q0 58 32 108q28 44 118 131v989h43v-995q-88 -85 -119 -130q-33 -48 -33 -103q0 -115 113 -115
q29 0 92 20z" />
    <glyph glyph-name="Idotaccent" unicode="&#x130;" horiz-adv-x="475" 
d="M238 1698q20 0 35 -15q16 -16 16 -34q0 -20 -15 -35t-36 -15q-22 0 -37 15t-15 35q0 18 16 34q15 15 36 15zM260 0h-45v1372h45v-1372z" />
    <glyph glyph-name="dotlessi" unicode="&#x131;" horiz-adv-x="534" 
d="M289 0h-43v995h43v-995z" />
    <glyph glyph-name="IJ" unicode="&#x132;" horiz-adv-x="1691" 
d="M215 1372h45v-1372h-45v1372zM1497 1372v-860q0 -239 -133 -385q-134 -147 -348 -147q-196 0 -324 119t-151 315l43 14q23 -187 139 -296t293 -109q196 0 316 135t120 354v860h45z" />
    <glyph glyph-name="ij" unicode="&#x133;" horiz-adv-x="1073" 
d="M256 1350q21 0 36 -15t15 -35t-14 -34q-15 -15 -37 -15t-37 15q-14 14 -14 34t15 35t36 15zM815 1350q21 0 36 -15t15 -35t-14 -34q-15 -15 -37 -15t-37 15q-14 14 -14 34t15 35t36 15zM279 0h-43v995h43v-995zM504 -336l18 35q45 -27 101 -27q76 0 123 47t47 123v1153
h43v-1153q0 -92 -58 -152q-57 -59 -151 -59q-71 0 -123 33z" />
    <glyph glyph-name="Kcommaaccent" unicode="&#x136;" horiz-adv-x="1368" 
d="M1266 0h-66l-878 666h-62v-666h-45v1372h45v-665h66l829 665h62l-850 -688zM633 -92h47l-94 -277h-41z" />
    <glyph glyph-name="kcommaaccent" unicode="&#x137;" horiz-adv-x="1128" 
d="M1108 0h-76l-713 492h-61v-492h-43v1475h43v-943h80l625 463h67l-657 -487zM506 -92h47l-94 -277h-41z" />
    <glyph glyph-name="Lacute" unicode="&#x139;" horiz-adv-x="1187" 
d="M272 1538h-43l191 279h47zM1126 41v-41h-911v1372h45v-1331h866z" />
    <glyph glyph-name="lacute" unicode="&#x13a;" horiz-adv-x="473" 
d="M272 1640h-43l191 279h47zM258 0h-43v1475h43v-1475z" />
    <glyph glyph-name="Lcommaaccent" unicode="&#x13b;" horiz-adv-x="1187" 
d="M1126 41v-41h-911v1372h45v-1331h866zM686 -92h47l-94 -277h-41z" />
    <glyph glyph-name="lcommaaccent" unicode="&#x13c;" horiz-adv-x="473" 
d="M258 0h-43v1475h43v-1475zM123 -369l88 277h47l-94 -277h-41z" />
    <glyph glyph-name="Lcaron" unicode="&#x13d;" horiz-adv-x="1187" 
d="M1126 41v-41h-911v1372h45v-1331h866zM686 1073h-37v299h45z" />
    <glyph glyph-name="lcaron" unicode="&#x13e;" horiz-adv-x="473" 
d="M258 0h-43v1475h43v-1475zM485 1176h-36v299h45z" />
    <glyph glyph-name="Ldot" unicode="&#x13f;" horiz-adv-x="1187" 
d="M1126 41v-41h-911v1372h45v-1331h866zM754 637q-23 0 -37 14q-15 15 -15 35q0 19 16 35q14 14 36 14t36 -14q15 -15 15 -35q0 -21 -14 -35t-37 -14z" />
    <glyph glyph-name="ldot" unicode="&#x140;" horiz-adv-x="540" 
d="M258 0h-43v1475h43v-1475zM467 715q21 0 36 -15t15 -34q0 -21 -14 -35q-15 -15 -37 -15t-37 15q-14 14 -14 35q0 19 15 34t36 15z" />
    <glyph glyph-name="Lslash" unicode="&#x141;" horiz-adv-x="1208" 
d="M1147 41v-41h-911v582l-175 -88v45l175 88v745h45v-723l395 197v-45l-395 -197v-563h866z" />
    <glyph glyph-name="lslash" unicode="&#x142;" horiz-adv-x="573" 
d="M512 860l-203 -137v-723h-43v692l-205 -139v47l205 139v736h43v-705l203 137v-47z" />
    <glyph glyph-name="Nacute" unicode="&#x143;" horiz-adv-x="1554" 
d="M834 1538h-43l190 279h47zM1339 1372v-1372h-45l-1034 1298v-1298h-45v1372h45l1034 -1298v1298h45z" />
    <glyph glyph-name="nacute" unicode="&#x144;" horiz-adv-x="1294" 
d="M709 1161h-43l190 279h47zM698 1016q180 0 291 -118t111 -312v-586h-43v586q0 172 -98 281q-97 108 -254 108q-201 0 -324 -125q-123 -124 -123 -332v-518h-43v995h43v-276q49 138 165 218q115 79 275 79z" />
    <glyph glyph-name="Ncommaaccent" unicode="&#x145;" horiz-adv-x="1554" 
d="M1339 1372v-1372h-45l-1034 1298v-1298h-45v1372h45l1034 -1298v1298h45zM788 -92h48l-95 -277h-41z" />
    <glyph glyph-name="ncommaaccent" unicode="&#x146;" horiz-adv-x="1294" 
d="M698 1016q180 0 291 -118t111 -312v-586h-43v586q0 172 -98 281q-97 108 -254 108q-201 0 -324 -125q-123 -124 -123 -332v-518h-43v995h43v-276q49 138 165 218q115 79 275 79zM641 -92h47l-94 -277h-41z" />
    <glyph glyph-name="Ncaron" unicode="&#x147;" horiz-adv-x="1554" 
d="M778 1528l-246 276h52l215 -239l215 239h51l-246 -276h-41zM1339 1372v-1372h-45l-1034 1298v-1298h-45v1372h45l1034 -1298v1298h45z" />
    <glyph glyph-name="ncaron" unicode="&#x148;" horiz-adv-x="1294" 
d="M653 1151l-245 276h51l215 -239l215 239h51l-246 -276h-41zM698 1016q180 0 291 -118t111 -312v-586h-43v586q0 172 -98 281q-97 108 -254 108q-201 0 -324 -125q-123 -124 -123 -332v-518h-43v995h43v-276q49 138 165 218q115 79 275 79z" />
    <glyph glyph-name="Eng" unicode="&#x14a;" horiz-adv-x="1554" 
d="M1339 1372v-1530q0 -94 -57 -152q-57 -59 -152 -59q-76 0 -137 43l19 39q52 -37 114 -37q78 0 123 45t45 121v158l-1034 1298v-1298h-45v1372h45l1034 -1298v1298h45z" />
    <glyph glyph-name="eng" unicode="&#x14b;" horiz-adv-x="1294" 
d="M698 1016q180 0 291 -118t111 -312v-744q0 -92 -58 -152q-57 -59 -151 -59q-76 0 -137 43l18 35q50 -37 115 -37q76 0 123 47t47 123v744q0 172 -98 281q-97 108 -254 108q-201 0 -324 -125q-123 -124 -123 -332v-518h-43v995h43v-276q49 138 165 218q115 79 275 79z" />
    <glyph glyph-name="Omacron" unicode="&#x14c;" horiz-adv-x="1677" 
d="M1096 1595h-512v35h512v-35zM840 1393q291 0 492 -205q202 -207 202 -502q0 -296 -201 -502q-200 -204 -493 -204q-295 0 -495 204q-202 207 -202 502t202 502q201 205 495 205zM840 20q270 0 460 193q189 192 189 473q0 278 -189 472t-460 194q-274 0 -463 -194
t-189 -472q0 -281 189 -473q190 -193 463 -193z" />
    <glyph glyph-name="omacron" unicode="&#x14d;" horiz-adv-x="1259" 
d="M885 1239h-512v35h512v-35zM629 1016q223 0 370 -147q148 -148 148 -369q0 -222 -148 -372q-147 -148 -370 -148q-222 0 -369 148t-147 372q0 222 147 369t369 147zM629 20q205 0 340 137q135 136 135 343q0 205 -135 340t-340 135q-203 0 -338 -135t-135 -340
q0 -206 135 -342q136 -138 338 -138z" />
    <glyph glyph-name="Ohungarumlaut" unicode="&#x150;" horiz-adv-x="1677" 
d="M729 1538h-43l188 277h56zM979 1538h-43l186 277h56zM840 1393q291 0 492 -205q202 -207 202 -502q0 -296 -201 -502q-200 -204 -493 -204q-295 0 -495 204q-202 207 -202 502t202 502q201 205 495 205zM840 20q270 0 460 193q189 192 189 473q0 278 -189 472t-460 194
q-274 0 -463 -194t-189 -472q0 -281 189 -473q190 -193 463 -193z" />
    <glyph glyph-name="ohungarumlaut" unicode="&#x151;" horiz-adv-x="1259" 
d="M518 1182h-43l189 276h55zM768 1182h-43l186 276h56zM629 1016q223 0 370 -147q148 -148 148 -369q0 -222 -148 -372q-147 -148 -370 -148q-222 0 -369 148t-147 372q0 222 147 369t369 147zM629 20q205 0 340 137q135 136 135 343q0 205 -135 340t-340 135
q-203 0 -338 -135t-135 -340q0 -206 135 -342q136 -138 338 -138z" />
    <glyph glyph-name="OE" unicode="&#x152;" horiz-adv-x="2174" 
d="M1124 1331v-620h856v-41h-856v-629h918v-41h-1057q-397 0 -619 189q-223 190 -223 497q0 302 223 495q221 191 619 191h1057v-41h-918zM1079 41v1290h-94q-379 0 -588 -179t-209 -466q0 -288 209 -467q208 -178 588 -178h94z" />
    <glyph glyph-name="oe" unicode="&#x153;" horiz-adv-x="2209" 
d="M1149 508v-10v-4q0 -213 139 -343q140 -131 318 -131q158 0 270 76q114 77 164 221l37 -12q-50 -154 -174 -240q-122 -85 -297 -85q-162 0 -297 98q-139 101 -183 266q-50 -164 -184 -264t-313 -100q-222 0 -369 148t-147 372q0 222 147 369t369 147q181 0 317 -101
q135 -101 180 -266q46 169 187 269q138 98 309 98q208 0 338 -135q131 -136 137 -353v-20h-948zM629 20q205 0 340 137q135 136 135 343q0 205 -135 340t-340 135q-203 0 -338 -135t-135 -340q0 -206 135 -342q136 -138 338 -138zM1622 975q-176 0 -314 -117
q-139 -118 -157 -309h901q-12 194 -132 310q-121 116 -298 116z" />
    <glyph glyph-name="Racute" unicode="&#x154;" horiz-adv-x="1363" 
d="M688 1538h-43l191 279h47zM1282 0h-65l-601 672h-356v-672h-45v1372h612q183 0 294 -96q112 -97 112 -254t-112 -254q-111 -96 -294 -96h-151zM260 713h567q165 0 263 85t98 224t-98 224t-263 85h-567v-618z" />
    <glyph glyph-name="racute" unicode="&#x155;" horiz-adv-x="806" 
d="M465 1161h-43l190 279h47zM707 1001q39 0 69 -6l-10 -39q-23 5 -59 5q-203 0 -325 -154t-122 -361v-446h-43v995h43v-319q57 145 175 235q119 90 272 90z" />
    <glyph glyph-name="Rcommaaccent" unicode="&#x156;" horiz-adv-x="1363" 
d="M1282 0h-65l-601 672h-356v-672h-45v1372h612q183 0 294 -96q112 -97 112 -254t-112 -254q-111 -96 -294 -96h-151zM260 713h567q165 0 263 85t98 224t-98 224t-263 85h-567v-618zM641 -92h47l-94 -277h-41z" />
    <glyph glyph-name="rcommaaccent" unicode="&#x157;" horiz-adv-x="806" 
d="M707 1001q39 0 69 -6l-10 -39q-23 5 -59 5q-203 0 -325 -154t-122 -361v-446h-43v995h43v-319q57 145 175 235q119 90 272 90zM215 -92h47l-94 -277h-41z" />
    <glyph glyph-name="Rcaron" unicode="&#x158;" horiz-adv-x="1363" 
d="M633 1528l-246 276h51l215 -239l215 239h52l-246 -276h-41zM1282 0h-65l-601 672h-356v-672h-45v1372h612q183 0 294 -96q112 -97 112 -254t-112 -254q-111 -96 -294 -96h-151zM260 713h567q165 0 263 85t98 224t-98 224t-263 85h-567v-618z" />
    <glyph glyph-name="rcaron" unicode="&#x159;" horiz-adv-x="806" 
d="M410 1151l-246 276h51l215 -239l215 239h51l-245 -276h-41zM707 1001q39 0 69 -6l-10 -39q-23 5 -59 5q-203 0 -325 -154t-122 -361v-446h-43v995h43v-319q57 145 175 235q119 90 272 90z" />
    <glyph glyph-name="Sacute" unicode="&#x15a;" horiz-adv-x="1253" 
d="M670 1538h-43l190 279h47zM625 1393q196 0 325 -100q127 -98 160 -259l-43 -14q-30 155 -148 243q-119 89 -296 89q-175 0 -287 -88q-113 -89 -113 -238q0 -121 74 -181q75 -61 205 -91l303 -76q66 -16 119 -35q48 -17 102 -53q55 -36 81 -93q28 -61 28 -139
q0 -174 -129 -276t-344 -102q-224 0 -372 111t-171 296l49 12q16 -171 154 -275q137 -104 342 -104q194 0 309 92q114 91 114 244q0 128 -68 187q-69 60 -218 94l-328 80q-299 72 -299 309q0 166 126 266q127 101 325 101z" />
    <glyph glyph-name="sacute" unicode="&#x15b;" horiz-adv-x="1040" 
d="M561 1161h-43l191 279h47zM129 274l39 15q11 -124 117 -197q107 -74 266 -74q144 0 234 64q89 63 89 176q0 90 -57 133q-58 44 -160 68l-256 57q-117 24 -177 79q-58 54 -58 148q0 123 97 198q98 75 253 75q151 0 249 -71t128 -187l-39 -17q-22 107 -112 171
q-88 63 -226 63q-136 0 -222 -63q-85 -63 -85 -169q0 -87 56 -128q57 -42 159 -66l242 -53q50 -12 89 -26q36 -14 78 -39q41 -25 63 -70q22 -46 22 -103q0 -126 -102 -203q-100 -75 -265 -75q-179 0 -291 79q-113 80 -131 215z" />
    <glyph glyph-name="Scedilla" unicode="&#x15e;" horiz-adv-x="1253" 
d="M1135 358q0 -170 -125 -272q-124 -101 -334 -106l-193 -349h-53l203 349q-211 7 -351 118q-141 111 -163 289l49 12q16 -171 154 -275q137 -104 342 -104q194 0 309 92q114 91 114 244q0 128 -68 187q-69 60 -218 94l-328 80q-299 72 -299 309q0 166 126 266
q127 101 325 101q196 0 325 -100q127 -98 160 -259l-43 -14q-30 155 -148 243q-119 89 -296 89q-175 0 -287 -88q-113 -89 -113 -238q0 -121 74 -181q75 -61 205 -91l303 -76q66 -16 119 -35q48 -17 102 -53q55 -36 81 -93q28 -61 28 -139z" />
    <glyph glyph-name="scedilla" unicode="&#x15f;" horiz-adv-x="1040" 
d="M918 258q0 -123 -95 -198q-93 -74 -250 -80l-194 -349h-53l202 349q-168 6 -274 85q-107 80 -125 209l39 15q11 -124 117 -197q107 -74 266 -74q144 0 234 64q89 63 89 176q0 90 -57 133q-58 44 -160 68l-256 57q-117 24 -177 79q-58 54 -58 148q0 123 97 198
q98 75 253 75q151 0 249 -71t128 -187l-39 -17q-22 107 -112 171q-88 63 -226 63q-136 0 -222 -63q-85 -63 -85 -169q0 -87 56 -128q57 -42 159 -66l242 -53q50 -12 89 -26q36 -14 78 -39q41 -25 63 -70q22 -46 22 -103z" />
    <glyph glyph-name="Scaron" unicode="&#x160;" horiz-adv-x="1253" 
d="M614 1528l-245 276h51l215 -239l215 239h51l-246 -276h-41zM502 754l303 -76q66 -16 119 -35q48 -17 102 -53q55 -36 81 -93q28 -61 28 -139q0 -174 -129 -276t-344 -102q-224 0 -372 111t-171 296l49 12q16 -171 154 -275q137 -104 342 -104q194 0 309 92
q114 91 114 244q0 128 -68 187q-69 60 -218 94l-328 80q-299 72 -299 309q0 166 126 266q127 101 325 101q196 0 325 -100q127 -98 160 -259l-43 -14q-30 155 -148 243q-119 89 -296 89q-175 0 -287 -88q-113 -89 -113 -238q0 -121 74 -181q75 -61 205 -91z" />
    <glyph glyph-name="scaron" unicode="&#x161;" horiz-adv-x="1040" 
d="M506 1151l-246 276h51l215 -239l215 239h52l-246 -276h-41zM424 549l242 -53q50 -12 89 -26q36 -14 78 -39q41 -25 63 -70q22 -46 22 -103q0 -126 -102 -203q-100 -75 -265 -75q-179 0 -291 79q-113 80 -131 215l39 15q11 -124 117 -197q107 -74 266 -74q144 0 234 64
q89 63 89 176q0 90 -57 133q-58 44 -160 68l-256 57q-117 24 -177 79q-58 54 -58 148q0 123 97 198q98 75 253 75q151 0 249 -71t128 -187l-39 -17q-22 107 -112 171q-88 63 -226 63q-136 0 -222 -63q-85 -63 -85 -169q0 -87 56 -128q57 -42 159 -66z" />
    <glyph glyph-name="tcedilla" unicode="&#x163;" horiz-adv-x="722" 
d="M662 94l24 -33q-87 -81 -203 -81h-14l-195 -349h-53l207 353q-96 18 -153 90q-56 71 -56 178v702h-219v41h219v336h43v-336h389v-41h-389v-702q0 -104 62 -168t161 -64q97 0 177 74z" />
    <glyph glyph-name="Tcaron" unicode="&#x164;" horiz-adv-x="1294" 
d="M629 1528l-246 276h51l215 -239l215 239h51l-245 -276h-41zM1233 1331h-561v-1331h-49v1331h-562v41h1172v-41z" />
    <glyph glyph-name="tcaron" unicode="&#x165;" horiz-adv-x="722" 
d="M469 1126h-37v299h45zM662 94l24 -33q-87 -81 -203 -81q-120 0 -191 74q-73 76 -73 198v702h-219v41h219v336h43v-336h389v-41h-389v-702q0 -104 62 -168t161 -64q97 0 177 74z" />
    <glyph glyph-name="Tbar" unicode="&#x166;" horiz-adv-x="1335" 
d="M672 1331v-622h293v-39h-293v-670h-49v670h-293v39h293v622h-562v41h1172v-41h-561z" />
    <glyph glyph-name="tbar" unicode="&#x167;" horiz-adv-x="722" 
d="M662 94l24 -33q-87 -81 -203 -81q-120 0 -191 74q-73 76 -73 198v362h-217v41h217v299h-219v41h219v336h43v-336h389v-41h-389v-299h334v-41h-334v-362q0 -104 62 -168t161 -64q97 0 177 74z" />
    <glyph glyph-name="Umacron" unicode="&#x16a;" horiz-adv-x="1495" 
d="M1004 1595h-512v35h512v-35zM1300 1372v-788q0 -274 -152 -439t-400 -165q-249 0 -401 165t-152 439v788h45v-788q0 -256 139 -408q139 -153 369 -153q229 0 368 153q139 152 139 408v788h45z" />
    <glyph glyph-name="umacron" unicode="&#x16b;" horiz-adv-x="1294" 
d="M889 1219h-512v34h512v-34zM1079 995v-995h-43v276q-49 -138 -165 -218q-113 -78 -275 -78q-181 0 -291 117t-110 313v585h43v-585q0 -175 97 -282q97 -108 255 -108q200 0 323 125t123 332v518h43z" />
    <glyph glyph-name="Uring" unicode="&#x16e;" horiz-adv-x="1495" 
d="M748 1513q-75 0 -128 53t-53 124t53 124q52 52 128 52t128 -52t52 -124t-52 -124q-53 -53 -128 -53zM748 1829q-59 0 -102 -41q-42 -40 -42 -98t42 -99q43 -41 102 -41q58 0 101 41q42 41 42 99t-42 98q-43 41 -101 41zM1300 1372v-788q0 -274 -152 -439t-400 -165
q-249 0 -401 165t-152 439v788h45v-788q0 -256 139 -408q139 -153 369 -153q229 0 368 153q139 152 139 408v788h45z" />
    <glyph glyph-name="uring" unicode="&#x16f;" horiz-adv-x="1294" 
d="M633 1137q-76 0 -128 52t-52 124t52 124t128 52t128 -52t52 -124t-52 -124t-128 -52zM633 1452q-59 0 -102 -41q-42 -41 -42 -98q0 -59 42 -99q41 -40 102 -40q60 0 101 40q42 40 42 99q0 57 -42 98q-43 41 -101 41zM1079 995v-995h-43v276q-49 -138 -165 -218
q-113 -78 -275 -78q-181 0 -291 117t-110 313v585h43v-585q0 -175 97 -282q97 -108 255 -108q200 0 323 125t123 332v518h43z" />
    <glyph glyph-name="Uhungarumlaut" unicode="&#x170;" horiz-adv-x="1495" 
d="M637 1538h-43l188 277h56zM887 1538h-43l186 277h55zM1300 1372v-788q0 -274 -152 -439t-400 -165q-249 0 -401 165t-152 439v788h45v-788q0 -256 139 -408q139 -153 369 -153q229 0 368 153q139 152 139 408v788h45z" />
    <glyph glyph-name="uhungarumlaut" unicode="&#x171;" horiz-adv-x="1294" 
d="M522 1161h-43l189 277h55zM772 1161h-43l186 277h56zM1079 995v-995h-43v276q-49 -138 -165 -218q-113 -78 -275 -78q-181 0 -291 117t-110 313v585h43v-585q0 -175 97 -282q97 -108 255 -108q200 0 323 125t123 332v518h43z" />
    <glyph glyph-name="Uogonek" unicode="&#x172;" horiz-adv-x="1495" 
d="M1300 1372v-805q0 -154 -55 -271q-55 -118 -139 -187q-205 -171 -255 -224q-48 -51 -48 -118q0 -54 35 -84q36 -31 92 -31q33 0 90 24l12 -38q-66 -27 -102 -27q-79 0 -125 43q-47 44 -47 113q0 62 34 109q35 49 128 130q-82 -26 -172 -26q-248 0 -400 161
q-153 162 -153 426v805h45v-805q0 -246 140 -395t368 -149q227 0 367 149t140 395v805h45z" />
    <glyph glyph-name="uogonek" unicode="&#x173;" horiz-adv-x="1294" 
d="M1133 -328l12 -39q-67 -22 -103 -22q-62 0 -108 36q-47 36 -47 120q0 58 32 108q30 47 117 131v270q-49 -138 -165 -218q-113 -78 -275 -78q-181 0 -291 117t-110 313v585h43v-585q0 -175 97 -282q97 -108 255 -108q200 0 323 125t123 332v518h43v-995q-85 -82 -118 -130
t-33 -103q0 -115 112 -115q30 0 93 20z" />
    <glyph glyph-name="Wcircumflex" unicode="&#x174;" horiz-adv-x="1933" 
d="M752 1524h-52l246 276h41l246 -276h-51l-215 239zM1882 1372l-444 -1372h-39l-432 1303l-432 -1303h-39l-445 1372h47l420 -1302l426 1302h45l426 -1302l420 1302h47z" />
    <glyph glyph-name="wcircumflex" unicode="&#x175;" horiz-adv-x="1536" 
d="M553 1147h-51l246 276h40l246 -276h-51l-215 239zM1485 997l-340 -1003h-49l-328 928l-328 -928h-49l-340 1003h47l320 -931l332 929h36l332 -929l320 931h47z" />
    <glyph glyph-name="Ycircumflex" unicode="&#x176;" horiz-adv-x="1331" 
d="M451 1524h-52l246 276h41l246 -276h-51l-215 239zM688 520v-520h-45v520l-592 852h53l562 -815l561 815h53z" />
    <glyph glyph-name="ycircumflex" unicode="&#x177;" horiz-adv-x="1107" 
d="M362 1147h-51l246 276h41l246 -276h-51l-215 239zM1057 995l-645 -1343h-47l167 348l-481 995h51l453 -946l455 946h47z" />
    <glyph glyph-name="Ydieresis" unicode="&#x178;" horiz-adv-x="1331" 
d="M481 1589q-22 0 -37 15q-14 14 -14 34t15 35t36 15t36 -15t15 -35t-14 -34q-15 -15 -37 -15zM850 1589q-22 0 -37 15q-14 14 -14 34t15 35t36 15t36 -15t15 -35t-14 -34q-15 -15 -37 -15zM688 520v-520h-45v520l-592 852h53l562 -815l561 815h53z" />
    <glyph glyph-name="Zacute" unicode="&#x179;" horiz-adv-x="1282" 
d="M696 1538h-43l191 279h47zM1159 1348l-952 -1307h952v-41h-1016v27l951 1304h-922v41h987v-24z" />
    <glyph glyph-name="zacute" unicode="&#x17a;" horiz-adv-x="1001" 
d="M557 1161h-43l191 279h47zM920 41v-41h-838v35l758 919h-736v41h797v-34l-758 -920h777z" />
    <glyph glyph-name="Zdotaccent" unicode="&#x17b;" horiz-adv-x="1282" 
d="M662 1599q-22 0 -37 15t-15 35q0 18 16 34q15 15 36 15q20 0 35 -15q16 -16 16 -34q0 -20 -15 -35t-36 -15zM1159 1348l-952 -1307h952v-41h-1016v27l951 1304h-922v41h987v-24z" />
    <glyph glyph-name="zdotaccent" unicode="&#x17c;" horiz-adv-x="1001" 
d="M522 1223q-23 0 -37 14t-14 35q0 20 15 35q14 14 36 14t36 -14q15 -15 15 -35q0 -21 -14 -35t-37 -14zM920 41v-41h-838v35l758 919h-736v41h797v-34l-758 -920h777z" />
    <glyph glyph-name="Zcaron" unicode="&#x17d;" horiz-adv-x="1282" 
d="M641 1528l-246 276h51l216 -239l215 239h51l-246 -276h-41zM1159 1348l-952 -1307h952v-41h-1016v27l951 1304h-922v41h987v-24z" />
    <glyph glyph-name="zcaron" unicode="&#x17e;" horiz-adv-x="1001" 
d="M502 1151l-246 276h51l215 -239l215 239h51l-245 -276h-41zM920 41v-41h-838v35l758 919h-736v41h797v-34l-758 -920h777z" />
    <glyph glyph-name="florin" unicode="&#x192;" horiz-adv-x="1058" 
d="M797 1352q-122 0 -204 -77q-82 -78 -106 -204l-65 -364h455v-41h-463l-142 -787q-18 -97 -85 -158q-65 -59 -160 -59q-78 0 -129 45l24 35q41 -39 107 -39q78 0 132 48q53 47 68 128l142 787h-279v41h287l65 364q27 148 122 235q94 87 237 87q131 0 215 -86l-29 -31
q-76 76 -192 76z" />
    <glyph glyph-name="AEacute" unicode="&#x1fc;" horiz-adv-x="2127" 
d="M1477 1538h-43l190 279h47zM1139 1331v-620h856v-41h-856v-629h917v-41h-962v381h-711l-289 -381h-53l1044 1372h971v-41h-917zM1094 422v893l-680 -893h680z" />
    <glyph glyph-name="aeacute" unicode="&#x1fd;" horiz-adv-x="1951" 
d="M1001 1161h-43l191 279h47zM1839 492h-885q1 -216 124 -345q121 -127 313 -127q125 0 240 82q116 83 153 217l39 -12q-34 -143 -163 -235q-128 -92 -269 -92q-172 0 -292 93q-121 93 -167 261q-38 -165 -159 -259q-122 -95 -288 -95q-179 0 -275 77q-97 78 -97 203
q0 129 99 201q98 71 269 71h430v130q0 141 -92 227t-244 86q-161 0 -257 -70q-95 -69 -113 -190l-39 12q16 133 122 211q105 78 287 78q153 0 254 -82q103 -83 121 -217q56 143 171 221q114 78 272 78q196 0 318 -143t128 -363v-18zM954 532h840q-12 197 -123 320t-276 123
q-187 0 -309 -120q-121 -120 -132 -323zM911 492h-430q-147 0 -237 -61q-88 -60 -88 -171q0 -108 85 -174t244 -66q183 0 305 125q121 124 121 330v17z" />
    <glyph glyph-name="Scommaaccent" unicode="&#x218;" horiz-adv-x="1253" 
d="M625 1393q196 0 325 -100q127 -98 160 -259l-43 -14q-30 155 -148 243q-119 89 -296 89q-175 0 -287 -88q-113 -89 -113 -238q0 -121 74 -181q75 -61 205 -91l303 -76q66 -16 119 -35q48 -17 102 -53q55 -36 81 -93q28 -61 28 -139q0 -174 -129 -276t-344 -102
q-224 0 -372 111t-171 296l49 12q16 -171 154 -275q137 -104 342 -104q194 0 309 92q114 91 114 244q0 128 -68 187q-69 60 -218 94l-328 80q-299 72 -299 309q0 166 126 266q127 101 325 101zM522 -369l88 277h47l-94 -277h-41z" />
    <glyph glyph-name="scommaaccent" unicode="&#x219;" horiz-adv-x="1040" 
d="M129 274l39 15q11 -124 117 -197q107 -74 266 -74q144 0 234 64q89 63 89 176q0 90 -57 133q-58 44 -160 68l-256 57q-117 24 -177 79q-58 54 -58 148q0 123 97 198q98 75 253 75q151 0 249 -71t128 -187l-39 -17q-22 107 -112 171q-88 63 -226 63q-136 0 -222 -63
q-85 -63 -85 -169q0 -87 56 -128q57 -42 159 -66l242 -53q50 -12 89 -26q36 -14 78 -39q41 -25 63 -70q22 -46 22 -103q0 -126 -102 -203q-100 -75 -265 -75q-179 0 -291 79q-113 80 -131 215zM418 -369l88 277h47l-94 -277h-41z" />
    <glyph glyph-name="uni021A" unicode="&#x21a;" horiz-adv-x="1294" 
d="M1233 1331h-561v-1331h-49v1331h-562v41h1172v-41zM618 -92h48l-95 -277h-41z" />
    <glyph glyph-name="uni021B" unicode="&#x21b;" horiz-adv-x="722" 
d="M662 94l24 -33q-87 -81 -203 -81q-120 0 -191 74q-73 76 -73 198v702h-219v41h219v336h43v-336h389v-41h-389v-702q0 -104 62 -168t161 -64q97 0 177 74zM401 -92h48l-95 -277h-41z" />
    <glyph glyph-name="circumflex" unicode="&#x2c6;" horiz-adv-x="1228" 
d="M829 1147l-215 239l-215 -239h-51l246 276h41l246 -276h-52z" />
    <glyph glyph-name="caron" unicode="&#x2c7;" horiz-adv-x="1228" 
d="M881 1427l-246 -276h-41l-246 276h51l215 -239l215 239h52z" />
    <glyph glyph-name="breve" unicode="&#x2d8;" horiz-adv-x="1228" 
d="M614 1149q-107 0 -180 68q-72 67 -72 176h39q0 -93 62 -150q61 -57 151 -57t152 57q61 57 61 150h39q0 -109 -71 -176q-73 -68 -181 -68z" />
    <glyph glyph-name="dotaccent" unicode="&#x2d9;" horiz-adv-x="1228" 
d="M614 1321q22 0 36 -14q16 -16 16 -35q0 -20 -15 -35q-14 -14 -37 -14q-22 0 -36 14q-15 15 -15 35q0 19 16 35q14 14 35 14z" />
    <glyph glyph-name="ring" unicode="&#x2da;" horiz-adv-x="1228" 
d="M795 1311q0 -71 -53 -124q-52 -52 -128 -52t-128 52t-52 124t52 124t128 52t128 -52q53 -53 53 -124zM758 1311q0 57 -42 98q-43 41 -102 41q-58 0 -101 -41q-42 -41 -42 -98q0 -59 42 -99q43 -41 101 -41q59 0 102 41q42 40 42 99z" />
    <glyph glyph-name="ogonek" unicode="&#x2db;" horiz-adv-x="1228" 
d="M600 10l39 -10q-88 -85 -119 -130q-33 -48 -33 -103q0 -115 113 -115q29 0 92 20l13 -39q-67 -22 -103 -22q-62 0 -108 36q-48 37 -48 120q0 59 33 110t121 133z" />
    <glyph glyph-name="tilde" unicode="&#x2dc;" horiz-adv-x="1228" 
d="M389 1229h-43q0 68 38 109q37 40 99 40q58 0 131 -58t121 -58q44 0 68 30t24 84h43q0 -71 -36 -111q-38 -42 -99 -42q-56 0 -130 58t-120 58q-45 0 -70 -29q-26 -31 -26 -81z" />
    <glyph glyph-name="hungarumlaut" unicode="&#x2dd;" horiz-adv-x="1228" 
d="M438 1161h-43l189 277h55zM688 1161h-43l186 277h56z" />
    <glyph glyph-name="uni0326" unicode="&#x326;" horiz-adv-x="0" 
d="M481 -369l88 277h47l-94 -277h-41z" />
    <glyph glyph-name="Wgrave" unicode="&#x1e80;" horiz-adv-x="1933" 
d="M942 1538l-194 279h47l190 -279h-43zM1882 1372l-444 -1372h-39l-432 1303l-432 -1303h-39l-445 1372h47l420 -1302l426 1302h45l426 -1302l420 1302h47z" />
    <glyph glyph-name="wgrave" unicode="&#x1e81;" horiz-adv-x="1536" 
d="M743 1161l-194 279h47l190 -279h-43zM1485 997l-340 -1003h-49l-328 928l-328 -928h-49l-340 1003h47l320 -931l332 929h36l332 -929l320 931h47z" />
    <glyph glyph-name="Wacute" unicode="&#x1e82;" horiz-adv-x="1933" 
d="M1001 1538h-43l191 279h47zM1882 1372l-444 -1372h-39l-432 1303l-432 -1303h-39l-445 1372h47l420 -1302l426 1302h45l426 -1302l420 1302h47z" />
    <glyph glyph-name="wacute" unicode="&#x1e83;" horiz-adv-x="1536" 
d="M803 1161h-43l190 279h47zM1485 997l-340 -1003h-49l-328 928l-328 -928h-49l-340 1003h47l320 -931l332 929h36l332 -929l320 931h47z" />
    <glyph glyph-name="Wdieresis" unicode="&#x1e84;" horiz-adv-x="1933" 
d="M782 1589q-22 0 -37 15q-14 14 -14 34t15 35t36 15t36 -15q16 -16 16 -35t-15 -34t-37 -15zM1151 1589q-22 0 -37 15q-14 14 -14 34t15 35t36 15t36 -15t15 -35t-14 -34q-15 -15 -37 -15zM1882 1372l-444 -1372h-39l-432 1303l-432 -1303h-39l-445 1372h47l420 -1302
l426 1302h45l426 -1302l420 1302h47z" />
    <glyph glyph-name="wdieresis" unicode="&#x1e85;" horiz-adv-x="1536" 
d="M584 1212q-22 0 -37 15t-15 35q0 18 16 34q15 15 36 15t36 -15t15 -34q0 -21 -14 -35q-15 -15 -37 -15zM952 1212q-22 0 -37 15q-14 14 -14 35q0 19 15 34t36 15t36 -15q16 -16 16 -34q0 -20 -15 -35t-37 -15zM1485 997l-340 -1003h-49l-328 928l-328 -928h-49l-340 1003
h47l320 -931l332 929h36l332 -929l320 931h47z" />
    <glyph glyph-name="Ygrave" unicode="&#x1ef2;" horiz-adv-x="1331" 
d="M641 1538l-195 279h48l190 -279h-43zM688 520v-520h-45v520l-592 852h53l562 -815l561 815h53z" />
    <glyph glyph-name="ygrave" unicode="&#x1ef3;" horiz-adv-x="1107" 
d="M553 1161l-195 279h48l190 -279h-43zM1057 995l-645 -1343h-47l167 348l-481 995h51l453 -946l455 946h47z" />
    <glyph glyph-name="endash" unicode="&#x2013;" horiz-adv-x="1269" 
d="M1147 502h-1024v41h1024v-41z" />
    <glyph glyph-name="emdash" unicode="&#x2014;" horiz-adv-x="2129" 
d="M2007 502h-1884v41h1884v-41z" />
    <glyph glyph-name="quoteleft" unicode="&#x2018;" horiz-adv-x="446" 
d="M283 1372h41l-148 -528h-57v4z" />
    <glyph glyph-name="quoteright" unicode="&#x2019;" horiz-adv-x="446" 
d="M164 844h-41l147 528h58v-4z" />
    <glyph glyph-name="quotesinglbase" unicode="&#x201a;" horiz-adv-x="446" 
d="M164 -270h-41l147 528h58v-4z" />
    <glyph glyph-name="quotedblleft" unicode="&#x201c;" horiz-adv-x="733" 
d="M283 1372h41l-148 -528h-57v4zM569 1372h41l-147 -528h-57v4z" />
    <glyph glyph-name="quotedblright" unicode="&#x201d;" horiz-adv-x="733" 
d="M164 844h-41l147 528h58v-4zM451 844h-41l147 528h57v-4z" />
    <glyph glyph-name="quotedblbase" unicode="&#x201e;" horiz-adv-x="733" 
d="M164 -270h-41l147 528h58v-4zM451 -270h-41l147 528h57v-4z" />
    <glyph glyph-name="dagger" unicode="&#x2020;" horiz-adv-x="634" 
d="M563 1331v-43h-225v-481h-41v481h-225v43h225v185h41v-185h225z" />
    <glyph glyph-name="daggerdbl" unicode="&#x2021;" horiz-adv-x="634" 
d="M338 1288v-254h225v-43h-225v-184h-41v184h-225v43h225v254h-225v43h225v185h41v-185h225v-43h-225z" />
    <glyph glyph-name="bullet" unicode="&#x2022;" horiz-adv-x="763" 
d="M381 799q107 0 184 -74q76 -73 76 -176q0 -109 -75 -178q-76 -70 -185 -70t-184 70q-74 69 -74 178q0 103 75 176q76 74 183 74z" />
    <glyph glyph-name="ellipsis" unicode="&#x2026;" horiz-adv-x="1044" 
d="M174 94q22 0 36 -14q15 -15 15 -35q0 -21 -14 -35t-37 -14t-37 14t-14 35q0 20 15 35q14 14 36 14zM522 94q22 0 36 -14q15 -15 15 -35q0 -21 -14 -35t-37 -14t-37 14t-14 35q0 20 15 35q14 14 36 14zM870 94q22 0 36 -14q16 -16 16 -35q0 -20 -15 -35q-14 -14 -37 -14
q-22 0 -36 14q-15 15 -15 35q0 19 16 35q14 14 35 14z" />
    <glyph glyph-name="perthousand" unicode="&#x2030;" horiz-adv-x="2539" 
d="M453 1393q138 0 233 -88q96 -89 96 -234q0 -137 -97 -227t-232 -90q-132 0 -231 90t-99 227q0 146 98 234t232 88zM319 0l1047 1372h47l-1046 -1372h-48zM453 1358q-118 0 -206 -81q-89 -81 -89 -206q0 -120 89 -200q87 -78 206 -78q117 0 204 78q88 79 88 200
q0 125 -88 206q-89 81 -204 81zM1309 618q138 0 233 -88q96 -89 96 -233q0 -137 -97 -227t-232 -90q-132 0 -231 90t-99 227q0 145 98 233t232 88zM2087 618q138 0 233 -88q97 -89 97 -233q0 -137 -98 -227q-97 -90 -232 -90q-131 0 -230 90q-100 91 -100 227q0 145 98 233
t232 88zM1309 584q-117 0 -206 -81t-89 -206q0 -120 89 -200q88 -79 206 -79q116 0 204 79q89 80 89 200q0 125 -89 206t-204 81zM2087 584q-117 0 -206 -81t-89 -206q0 -120 89 -200q88 -79 206 -79q117 0 205 79t88 200q0 125 -88 206t-205 81z" />
    <glyph glyph-name="guilsinglleft" unicode="&#x2039;" horiz-adv-x="423" 
d="M51 537l271 364h51l-271 -364l271 -365h-51z" />
    <glyph glyph-name="guilsinglright" unicode="&#x203a;" horiz-adv-x="423" 
d="M51 172l271 365l-271 364h51l271 -364l-271 -365h-51z" />
    <glyph glyph-name="fraction" unicode="&#x2044;" horiz-adv-x="397" 
d="M-348 0l1046 1372h47l-1046 -1372h-47z" />
    <glyph glyph-name="Euro" unicode="&#x20ac;" horiz-adv-x="1646" 
d="M1462 451l41 -13q-46 -208 -182 -333q-133 -123 -328 -123q-203 0 -342 138t-180 376h-256v41h250q-10 74 -10 149q0 65 6 127h-246v41h252q38 248 178 393q141 146 348 146q191 0 327 -126t181 -337l-39 -15q-47 203 -171 320q-125 117 -298 117q-188 0 -316 -134
q-127 -133 -165 -364h612l-12 -41h-606q-6 -62 -6 -127q0 -75 10 -149h528l-10 -41h-512q40 -218 168 -346q127 -127 309 -127q175 0 298 113q125 114 171 315z" />
    <glyph glyph-name="uni2116" unicode="&#x2116;" horiz-adv-x="2551" 
d="M1997 707q-139 0 -240 96q-100 96 -100 248q0 150 101 245q103 97 239 97q140 0 240 -97t100 -245q0 -151 -100 -248q-99 -96 -240 -96zM1294 1372h45v-1372h-45l-1034 1298v-1298h-45v1372h45l1034 -1298v1298zM1997 1352q-119 0 -207 -85t-88 -216q0 -133 88 -218
t207 -85q124 0 210 85q87 86 87 218q0 131 -88 216t-209 85zM1677 496h639v-41h-639v41z" />
    <glyph glyph-name="uni2117" unicode="&#x2117;" horiz-adv-x="1626" 
d="M813 1393q293 0 500 -202q205 -201 205 -509q0 -304 -205 -503t-500 -199t-500 199q-204 198 -204 503q0 309 204 509q207 202 500 202zM813 20q277 0 469 189q193 190 193 475q0 288 -193 479t-469 191t-469 -191q-192 -191 -192 -479q0 -286 192 -475t469 -189z
M567 1059h312q126 0 203 -68t77 -178t-77 -178t-203 -68h-271v-282h-41v774zM608 602h271q109 0 174 58t65 153t-65 153t-174 58h-271v-422z" />
    <glyph glyph-name="trademark" unicode="&#x2122;" horiz-adv-x="1296" 
d="M528 1337h-202v-497h-41v497h-203v35h446v-35zM1194 840h-39v448l-227 -444h-31l-227 444v-448h-39v532h39l243 -469l244 469h37v-532z" />
    <glyph glyph-name="oneeighth" unicode="&#x215b;" horiz-adv-x="1447" 
d="M246 1317l-193 -113v43l209 125h27v-735h-43v680zM1178 1372l-1047 -1372h-47l1046 1372h48zM1219 377q93 -16 146 -71q52 -53 52 -124q0 -89 -78 -146q-77 -56 -202 -56q-130 0 -208 56q-79 57 -79 146q0 74 53 127t154 68q-81 18 -131 63q-49 45 -49 109q0 82 73 134
t187 52q110 0 181 -52q73 -53 73 -134q0 -63 -49 -109q-49 -45 -123 -63zM915 547q0 -65 63 -105q64 -41 159 -41t151 40q58 41 62 106q1 68 -59 112q-59 43 -154 43q-97 0 -159 -43q-63 -43 -63 -112zM1135 18q106 0 172 45q65 44 65 121q0 71 -62 118q-63 48 -173 48
q-112 0 -179 -47q-65 -46 -65 -119q0 -76 66 -121t176 -45z" />
    <glyph glyph-name="threeeighths" unicode="&#x215c;" horiz-adv-x="1685" 
d="M608 852q0 -95 -70 -155t-186 -60q-115 0 -195 68t-81 184l37 4q2 -102 71 -161q68 -58 168 -58q95 0 156 50q59 49 59 128q0 74 -58 117t-157 43h-67v32h67q92 0 144 40q53 41 53 108q0 72 -57 119q-58 47 -148 47q-93 0 -156 -54t-65 -149l-37 6q1 104 75 168
q73 64 183 64q107 0 176 -57q70 -58 70 -144q0 -58 -35 -102q-34 -43 -92 -60q145 -40 145 -178zM1384 1372l-1046 -1372h-47l1046 1372h47zM1425 377q94 -16 147 -71q52 -53 52 -124q0 -89 -78 -146q-77 -56 -203 -56q-129 0 -207 56q-79 57 -79 146q0 74 53 127t154 68
q-81 18 -131 63t-50 109q0 81 74 134q73 52 186 52q111 0 182 -52q72 -53 72 -134q0 -64 -48 -109t-124 -63zM1122 547q0 -65 63 -105q64 -41 158 -41q96 0 152 40q57 40 61 106q1 69 -58 112t-155 43t-158 -43q-63 -43 -63 -112zM1341 18q106 0 172 45t66 121q0 71 -62 118
q-63 48 -174 48t-178 -47q-65 -46 -65 -119q0 -76 66 -121t175 -45z" />
    <glyph glyph-name="fiveeighths" unicode="&#x215d;" horiz-adv-x="1675" 
d="M618 860q0 -105 -74 -169t-198 -64q-105 0 -182 59q-78 60 -90 154l41 4q12 -81 79 -131q65 -49 152 -49q104 0 169 54t65 142q0 82 -60 131q-59 49 -158 49h-241l12 332h451v-39h-414l-8 -256h200q117 0 186 -59q70 -60 70 -158zM1405 1372l-1047 -1372h-47l1047 1372
h47zM1446 377q93 -16 146 -71t53 -124q0 -89 -78 -146q-77 -56 -203 -56q-130 0 -208 56q-79 57 -79 146q0 74 53 127t154 68q-81 18 -131 63q-49 45 -49 109q0 81 74 134q73 52 186 52q110 0 181 -52q73 -53 73 -134q0 -64 -48 -109t-124 -63zM1143 547q0 -65 62 -105
q64 -41 159 -41q96 0 152 40q57 40 61 106q1 69 -58 112t-155 43q-97 0 -159 -43t-62 -112zM1362 18q106 0 172 45q65 44 65 121q0 71 -62 118q-63 48 -173 48q-111 0 -178 -47q-66 -47 -66 -119q0 -75 67 -121q66 -45 175 -45z" />
    <glyph glyph-name="seveneighths" unicode="&#x215e;" horiz-adv-x="1425" 
d="M465 1333h-451v39h502v-29l-364 -704h-50zM1155 1372l-1046 -1372h-48l1047 1372h47zM1196 377q93 -16 146 -71t53 -124q0 -89 -78 -146q-77 -56 -203 -56q-130 0 -208 56q-79 57 -79 146q0 73 54 127q53 53 153 68q-81 18 -131 63q-49 45 -49 109q0 81 74 134
q73 52 186 52q110 0 181 -52q73 -53 73 -134q0 -64 -48 -109t-124 -63zM893 547q0 -65 62 -105q64 -41 159 -41q96 0 152 40q57 40 61 106q1 69 -58 112t-155 43q-97 0 -159 -43t-62 -112zM1112 18q106 0 172 45t66 121q0 70 -63 118t-173 48q-111 0 -178 -47
q-66 -47 -66 -119q0 -75 67 -121q66 -45 175 -45z" />
    <glyph glyph-name="arrowleft" unicode="&#x2190;" horiz-adv-x="1488" 
d="M1407 641h-1301l631 -629l-32 -32l-685 684l685 684l32 -33l-631 -629h1301v-45z" />
    <glyph glyph-name="arrowup" unicode="&#x2191;" horiz-adv-x="1531" 
d="M1417 670l-629 630v-1300h-45v1300l-628 -630l-33 32l684 684l684 -684z" />
    <glyph glyph-name="arrowright" unicode="&#x2192;" horiz-adv-x="1488" 
d="M1468 664l-684 -684l-32 32l630 629h-1300v45h1300l-630 629l32 33z" />
    <glyph glyph-name="arrowdown" unicode="&#x2193;" horiz-adv-x="1531" 
d="M1450 670l-684 -684l-684 684l33 32l628 -630v1300h45v-1300l629 630z" />
    <glyph glyph-name="uni2196" unicode="&#x2196;" horiz-adv-x="1525" 
d="M1413 -12l-1307 1306v-932h-45v1010h1008l2 -45h-934l1307 -1307z" />
    <glyph glyph-name="uni2197" unicode="&#x2197;" horiz-adv-x="1525" 
d="M1464 1372v-1010h-45v932l-1306 -1306l-31 32l1307 1307h-934l2 45h1007z" />
    <glyph glyph-name="uni2198" unicode="&#x2198;" horiz-adv-x="1525" 
d="M1464 1010v-1010h-1007l-2 45h934l-1307 1307l31 32l1306 -1306v932h45z" />
    <glyph glyph-name="uni2199" unicode="&#x2199;" horiz-adv-x="1525" 
d="M137 45h934l-2 -45h-1008v1010h45v-932l1307 1306l31 -32z" />
    <glyph glyph-name="minus" unicode="&#x2212;" horiz-adv-x="1187" 
d="M1024 604h-860v41h860v-41z" />
    <glyph glyph-name="approxequal" unicode="&#x2248;" horiz-adv-x="1187" 
d="M1024 838v-54q-85 -49 -195 -49q-98 0 -227 67q-128 66 -219 66q-60 0 -120 -20q-63 -21 -99 -57v49q80 69 219 69q95 0 225 -66q132 -67 221 -67q116 0 195 62zM1024 489v-53q-85 -49 -195 -49q-98 0 -227 67q-128 66 -219 66q-60 0 -120 -20q-61 -20 -99 -58v50
q80 69 219 69q95 0 225 -66q132 -67 221 -67q118 0 195 61z" />
    <glyph glyph-name="notequal" unicode="&#x2260;" horiz-adv-x="1187" 
d="M731 809l-219 -328h512v-41h-539l-151 -225h-53l151 225h-268v41h295l219 328h-514v41h541l151 225h53l-151 -225h266v-41h-293z" />
    <glyph glyph-name="lessequal" unicode="&#x2264;" horiz-adv-x="847" 
d="M766 352l-705 301v25l705 301v-47l-629 -266l629 -267v-47zM766 236v-41h-696v41h696z" />
    <glyph glyph-name="greaterequal" unicode="&#x2265;" horiz-adv-x="847" 
d="M711 666l-629 266v47l704 -301v-25l-704 -301v47zM778 195h-696v41h696v-41z" />
    <glyph glyph-name="K.ss03" horiz-adv-x="1429" 
d="M1368 0h-63l-660 750l-385 -383v-367h-45v1372h45v-948l952 948h60l-596 -592z" />
    <glyph glyph-name="Kcommaaccent.ss03" horiz-adv-x="1429" 
d="M1368 0h-63l-660 750l-385 -383v-367h-45v1372h45v-948l952 948h60l-596 -592zM700 -92h48l-95 -277h-41z" />
    <glyph glyph-name="Q.ss04" horiz-adv-x="1677" 
d="M1546 -348l-364 416q-158 -88 -342 -88q-295 0 -495 204q-202 207 -202 502t202 502q201 205 495 205q291 0 492 -205q202 -207 202 -502q0 -186 -84 -342q-84 -157 -229 -252l389 -440h-64zM188 686q0 -281 189 -473q190 -193 463 -193q270 0 460 193q189 192 189 473
q0 278 -189 472t-460 194q-274 0 -463 -194t-189 -472z" />
    <glyph glyph-name="I.ss05" horiz-adv-x="864" 
d="M455 1331v-1290h348v-41h-742v41h349v1290h-349v41h742v-41h-348z" />
    <glyph glyph-name="IJ.ss05" horiz-adv-x="2080" 
d="M803 1372v-41h-348v-1290h348v-41h-742v41h349v1290h-349v41h742zM1886 1372v-860q0 -239 -133 -385q-133 -147 -348 -147q-196 0 -324 119t-151 315l43 14q23 -187 139 -296t293 -109q196 0 316 135t120 354v819h-604v41h649z" />
    <glyph glyph-name="Iacute.ss05" horiz-adv-x="864" 
d="M467 1538h-43l190 279h48zM455 1331v-1290h348v-41h-742v41h349v1290h-349v41h742v-41h-348z" />
    <glyph glyph-name="Icircumflex.ss05" horiz-adv-x="864" 
d="M217 1524h-51l246 276h41l245 -276h-51l-215 239zM455 1331v-1290h348v-41h-742v41h349v1290h-349v41h742v-41h-348z" />
    <glyph glyph-name="Idieresis.ss05" horiz-adv-x="864" 
d="M248 1589q-22 0 -37 15q-14 14 -14 34t15 35t36 15t36 -15t15 -35t-14 -34q-15 -15 -37 -15zM616 1589q-21 0 -36 15t-15 34t16 35q15 15 35 15q21 0 36 -15q16 -16 16 -35t-15 -34t-37 -15zM455 1331v-1290h348v-41h-742v41h349v1290h-349v41h742v-41h-348z" />
    <glyph glyph-name="Idotaccent.ss05" horiz-adv-x="864" 
d="M432 1599q-22 0 -37 15q-14 14 -14 35q0 19 15 34t36 15t36 -15t15 -34q0 -21 -14 -35q-15 -15 -37 -15zM455 1331v-1290h348v-41h-742v41h349v1290h-349v41h742v-41h-348z" />
    <glyph glyph-name="Igrave.ss05" horiz-adv-x="864" 
d="M408 1538l-195 279h47l191 -279h-43zM455 1331v-1290h348v-41h-742v41h349v1290h-349v41h742v-41h-348z" />
    <glyph glyph-name="Imacron.ss05" horiz-adv-x="864" 
d="M688 1595h-512v35h512v-35zM455 1331v-1290h348v-41h-742v41h349v1290h-349v41h742v-41h-348z" />
    <glyph glyph-name="Iogonek.ss05" horiz-adv-x="864" 
d="M455 1331v-1290h348v-41h-348q-88 -85 -119 -130q-33 -48 -33 -103q0 -115 113 -115q29 0 92 20l12 -39q-67 -22 -102 -22q-62 0 -109 36t-47 120q0 55 31 106q29 47 113 127h-345v41h349v1290h-349v41h742v-41h-348z" />
    <glyph glyph-name="J.ss05" horiz-adv-x="1216" 
d="M1022 1372v-860q0 -239 -133 -385q-133 -147 -348 -147q-196 0 -324 119t-151 315l43 14q23 -187 139 -296t293 -109q196 0 316 135t120 354v819h-604v41h649z" />
    <glyph glyph-name="i.loclTRK" horiz-adv-x="534" 
d="M268 1321q22 0 36 -14q15 -15 15 -35q0 -21 -14 -35t-37 -14t-37 14t-14 35q0 20 15 35q14 14 36 14zM289 0h-43v995h43v-995z" />
    <glyph glyph-name="germandbls.case" horiz-adv-x="2465" 
d="M625 1393q196 0 325 -100q127 -98 160 -259l-43 -14q-30 155 -148 243q-119 89 -296 89q-175 0 -287 -88q-113 -89 -113 -238q0 -121 74 -181q75 -61 205 -91l303 -76q66 -16 119 -35q48 -17 102 -53q55 -36 81 -93q28 -61 28 -139q0 -174 -129 -276t-344 -102
q-224 0 -372 111t-171 296l49 12q16 -171 154 -275q137 -104 342 -104q194 0 309 92q114 91 114 244q0 128 -68 187q-69 60 -218 94l-328 80q-299 72 -299 309q0 166 126 266q127 101 325 101zM1837 1393q197 0 326 -100q125 -97 159 -259l-43 -14q-30 155 -148 243
q-119 89 -296 89q-175 0 -287 -88t-112 -238q0 -121 73 -181q75 -61 205 -91l303 -76q66 -16 119 -35q48 -17 102 -53q55 -36 81 -93q28 -61 28 -139q0 -174 -129 -276t-344 -102q-224 0 -372 111t-171 296l49 12q16 -171 154 -275q137 -104 342 -104q194 0 309 92t115 244
q0 127 -69 187t-218 94l-327 80q-300 72 -300 309q0 166 126 266q127 101 325 101z" />
    <glyph glyph-name="a.ss01" horiz-adv-x="1114" 
d="M563 1016q175 0 281 -100q104 -98 104 -275v-641h-43v246q-56 -123 -175 -194q-120 -72 -271 -72q-158 0 -251 78q-95 80 -95 202q0 134 105 220q104 85 302 85l385 -2v78q0 157 -93 246q-92 88 -249 88q-135 0 -235 -71q-99 -70 -117 -185l-41 14q21 125 129 204
q107 79 264 79zM459 20q189 0 317 118q129 119 129 290v94h-385q-178 0 -271 -72t-93 -190q0 -107 83 -173q84 -67 220 -67z" />
    <glyph glyph-name="aacute.ss01" horiz-adv-x="1114" 
d="M612 1161h-43l191 279h47zM563 1016q175 0 281 -100q104 -98 104 -275v-641h-43v246q-56 -123 -175 -194q-120 -72 -271 -72q-158 0 -251 78q-95 80 -95 202q0 134 105 220q104 85 302 85l385 -2v78q0 157 -93 246q-92 88 -249 88q-135 0 -235 -71q-99 -70 -117 -185
l-41 14q21 125 129 204q107 79 264 79zM459 20q189 0 317 118q129 119 129 290v94h-385q-178 0 -271 -72t-93 -190q0 -107 83 -173q84 -67 220 -67z" />
    <glyph glyph-name="abreve.ss01" horiz-adv-x="1114" 
d="M578 1149q-108 0 -181 68q-71 67 -71 176h39q0 -93 61 -150q62 -57 152 -57t151 57q62 57 62 150h38q0 -109 -71 -176q-73 -68 -180 -68zM563 1016q175 0 281 -100q104 -98 104 -275v-641h-43v246q-56 -123 -175 -194q-120 -72 -271 -72q-158 0 -251 78q-95 80 -95 202
q0 134 105 220q104 85 302 85l385 -2v78q0 157 -93 246q-92 88 -249 88q-135 0 -235 -71q-99 -70 -117 -185l-41 14q21 125 129 204q107 79 264 79zM459 20q189 0 317 118q129 119 129 290v94h-385q-178 0 -271 -72t-93 -190q0 -107 83 -173q84 -67 220 -67z" />
    <glyph glyph-name="acircumflex.ss01" horiz-adv-x="1114" 
d="M362 1147h-51l246 276h41l246 -276h-51l-215 239zM563 1016q175 0 281 -100q104 -98 104 -275v-641h-43v246q-56 -123 -175 -194q-120 -72 -271 -72q-158 0 -251 78q-95 80 -95 202q0 134 105 220q104 85 302 85l385 -2v78q0 157 -93 246q-92 88 -249 88q-135 0 -235 -71
q-99 -70 -117 -185l-41 14q21 125 129 204q107 79 264 79zM459 20q189 0 317 118q129 119 129 290v94h-385q-178 0 -271 -72t-93 -190q0 -107 83 -173q84 -67 220 -67z" />
    <glyph glyph-name="adieresis.ss01" horiz-adv-x="1114" 
d="M393 1212q-22 0 -37 15q-14 14 -14 35q0 19 15 34t36 15t36 -15t15 -34q0 -21 -14 -35q-15 -15 -37 -15zM762 1212q-22 0 -37 15q-14 14 -14 35q0 19 15 34t36 15t36 -15t15 -34q0 -21 -14 -35q-15 -15 -37 -15zM563 1016q175 0 281 -100q104 -98 104 -275v-641h-43v246
q-56 -123 -175 -194q-120 -72 -271 -72q-158 0 -251 78q-95 80 -95 202q0 134 105 220q104 85 302 85l385 -2v78q0 157 -93 246q-92 88 -249 88q-135 0 -235 -71q-99 -70 -117 -185l-41 14q21 125 129 204q107 79 264 79zM459 20q189 0 317 118q129 119 129 290v94h-385
q-178 0 -271 -72t-93 -190q0 -107 83 -173q84 -67 220 -67z" />
    <glyph glyph-name="agrave.ss01" horiz-adv-x="1114" 
d="M553 1161l-195 279h48l190 -279h-43zM563 1016q175 0 281 -100q104 -98 104 -275v-641h-43v246q-56 -123 -175 -194q-120 -72 -271 -72q-158 0 -251 78q-95 80 -95 202q0 134 105 220q104 85 302 85l385 -2v78q0 157 -93 246q-92 88 -249 88q-135 0 -235 -71
q-99 -70 -117 -185l-41 14q21 125 129 204q107 79 264 79zM459 20q189 0 317 118q129 119 129 290v94h-385q-178 0 -271 -72t-93 -190q0 -107 83 -173q84 -67 220 -67z" />
    <glyph glyph-name="amacron.ss01" horiz-adv-x="1114" 
d="M834 1219h-512v34h512v-34zM563 1016q175 0 281 -100q104 -98 104 -275v-641h-43v246q-56 -123 -175 -194q-120 -72 -271 -72q-158 0 -251 78q-95 80 -95 202q0 134 105 220q104 85 302 85l385 -2v78q0 157 -93 246q-92 88 -249 88q-135 0 -235 -71q-99 -70 -117 -185
l-41 14q21 125 129 204q107 79 264 79zM459 20q189 0 317 118q129 119 129 290v94h-385q-178 0 -271 -72t-93 -190q0 -107 83 -173q84 -67 220 -67z" />
    <glyph glyph-name="aogonek.ss01" horiz-adv-x="1114" 
d="M1012 -328l12 -39q-67 -22 -102 -22q-62 0 -109 36t-47 120q0 55 31 106q30 49 112 127h-4v246q-56 -123 -175 -194q-120 -72 -271 -72q-158 0 -251 78q-95 80 -95 202q0 134 105 220q104 85 302 85l385 -2v78q0 157 -93 246q-92 88 -249 88q-135 0 -235 -71
q-99 -70 -117 -185l-41 14q21 125 129 204q107 79 264 79q175 0 281 -100q104 -98 104 -275v-639l10 -2q-85 -82 -118 -130t-33 -103q0 -115 113 -115q29 0 92 20zM459 20q189 0 317 118q129 119 129 290v94h-385q-178 0 -271 -72t-93 -190q0 -107 83 -173q84 -67 220 -67z
" />
    <glyph glyph-name="aring.ss01" horiz-adv-x="1114" 
d="M578 1137q-76 0 -128 52q-53 53 -53 124t53 124q52 52 128 52t128 -52t52 -124t-52 -124t-128 -52zM578 1452q-59 0 -102 -41q-42 -41 -42 -98q0 -59 42 -99q41 -40 102 -40q60 0 101 40q42 40 42 99q0 57 -42 98q-43 41 -101 41zM563 1016q175 0 281 -100
q104 -98 104 -275v-641h-43v246q-56 -123 -175 -194q-120 -72 -271 -72q-158 0 -251 78q-95 80 -95 202q0 134 105 220q104 85 302 85l385 -2v78q0 157 -93 246q-92 88 -249 88q-135 0 -235 -71q-99 -70 -117 -185l-41 14q21 125 129 204q107 79 264 79zM459 20
q189 0 317 118q129 119 129 290v94h-385q-178 0 -271 -72t-93 -190q0 -107 83 -173q84 -67 220 -67z" />
    <glyph glyph-name="atilde.ss01" horiz-adv-x="1114" 
d="M449 1337q-46 0 -71 -29q-26 -31 -26 -81h-43q0 68 38 109q37 40 99 40q59 0 132 -58t120 -58q44 0 68 30q25 31 25 84h43q0 -70 -37 -111q-37 -42 -99 -42q-56 0 -130 58t-119 58zM563 1016q175 0 281 -100q104 -98 104 -275v-641h-43v246q-56 -123 -175 -194
q-120 -72 -271 -72q-158 0 -251 78q-95 80 -95 202q0 134 105 220q104 85 302 85l385 -2v78q0 157 -93 246q-92 88 -249 88q-135 0 -235 -71q-99 -70 -117 -185l-41 14q21 125 129 204q107 79 264 79zM459 20q189 0 317 118q129 119 129 290v94h-385q-178 0 -271 -72
t-93 -190q0 -107 83 -173q84 -67 220 -67z" />
    <glyph glyph-name="l.ss02" horiz-adv-x="602" 
d="M238 1475v-1285q0 -75 47 -122q48 -48 123 -48q62 0 114 37l19 -34q-61 -43 -138 -43q-94 0 -151 58t-57 152v1285h43z" />
    <glyph glyph-name="lacute.ss02" horiz-adv-x="602" 
d="M252 1640h-43l190 279h47zM238 1475v-1285q0 -75 47 -122q48 -48 123 -48q62 0 114 37l19 -34q-61 -43 -138 -43q-94 0 -151 58t-57 152v1285h43z" />
    <glyph glyph-name="lcaron.ss02" horiz-adv-x="602" 
d="M238 1475v-1285q0 -75 47 -122q48 -48 123 -48q62 0 114 37l19 -34q-61 -43 -138 -43q-94 0 -151 58t-57 152v1285h43zM475 1176h-37v299h45z" />
    <glyph glyph-name="lcommaaccent.ss02" horiz-adv-x="602" 
d="M238 1475v-1285q0 -75 47 -122q48 -48 123 -48q62 0 114 37l19 -34q-61 -43 -138 -43q-94 0 -151 58t-57 152v1285h43zM242 -369l88 277h47l-94 -277h-41z" />
    <glyph glyph-name="ldot.ss02" horiz-adv-x="622" 
d="M258 1475v-1285q0 -75 47 -122q48 -48 123 -48q65 0 115 37l18 -34q-61 -43 -137 -43q-95 0 -152 58t-57 152v1285h43zM549 715q21 0 36 -15t15 -34q0 -21 -14 -35q-15 -15 -37 -15t-37 15q-14 14 -14 35q0 19 15 34t36 15z" />
    <glyph glyph-name="lslash.ss02" horiz-adv-x="653" 
d="M573 57l19 -34q-61 -43 -137 -43q-95 0 -152 58t-57 152v488l-185 -125v47l185 125v750h43v-719l223 151v-47l-223 -151v-519q0 -76 46 -122q48 -48 124 -48q62 0 114 37z" />
    <glyph glyph-name="k.ss03" horiz-adv-x="1189" 
d="M1149 0h-57l-521 557l-313 -311v-246h-43v1475h43v-1170l696 690h60l-412 -407z" />
    <glyph glyph-name="kcommaaccent.ss03" horiz-adv-x="1189" 
d="M1149 0h-57l-521 557l-313 -311v-246h-43v1475h43v-1170l696 690h60l-412 -407zM594 -92h47l-94 -277h-41z" />
    <glyph glyph-name="f_j" horiz-adv-x="1261" 
d="M1024 995v-1153q0 -94 -57 -152q-57 -59 -152 -59q-71 0 -123 33l19 35q45 -27 100 -27q77 0 124 47q46 46 46 123v1112h-702v-954h-43v954h-195v41h195v207q0 144 76 229t212 85q110 0 193 -62l-23 -33q-79 54 -168 54q-116 0 -182 -75q-65 -74 -65 -198v-207h745z
M1004 1350q20 0 35 -15q16 -16 16 -35t-15 -34t-36 -15q-22 0 -37 15t-15 34t16 35q15 15 36 15z" />
    <glyph glyph-name="f_t" horiz-adv-x="1445" 
d="M1384 94l25 -33q-87 -81 -203 -81q-120 0 -191 74q-73 76 -73 198v702h-663v-954h-43v954h-195v41h195v207q0 144 76 229t212 85q110 0 193 -62l-23 -33q-79 54 -168 54q-116 0 -182 -75q-65 -74 -65 -198v-207h663v336h43v-336h389v-41h-389v-702q0 -104 62 -168
t161 -64q96 0 176 74z" />
    <glyph glyph-name="fl.ss02" horiz-adv-x="1304" 
d="M279 995h423v-41h-423v-954h-43v954h-195v41h195v207q0 144 76 229t212 85q79 0 148 -33l-19 -37q-58 29 -127 29q-116 0 -182 -75q-65 -74 -65 -198v-207zM1225 57l18 -34q-61 -43 -137 -43q-95 0 -152 58t-57 152v1285h43v-1285q0 -76 46 -122q48 -48 124 -48
q63 0 115 37z" />
    <glyph glyph-name="zero.tf" 
d="M625 1393q246 0 396 -195t150 -512t-150 -512q-149 -194 -396 -194q-248 0 -397 194q-150 195 -150 512t150 512t397 195zM625 23q226 0 363 182q138 183 138 481q0 299 -138 482q-139 184 -363 184q-225 0 -364 -184q-138 -183 -138 -482q0 -298 138 -481
q137 -182 364 -182z" />
    <glyph glyph-name="one.tf" 
d="M1126 41v-41h-950v41h471v1272l-430 -236v47l449 248h26v-1331h434z" />
    <glyph glyph-name="two.tf" 
d="M1118 41v-41h-913v27l516 456q190 166 261 266t71 234q0 164 -109 267q-108 102 -285 102q-179 0 -289 -111q-111 -112 -112 -293l-45 6q5 197 127 318t319 121q196 0 317 -113q120 -112 120 -297q0 -78 -20 -144q-20 -67 -71 -131q-52 -66 -103 -118q-46 -48 -150 -139
l-465 -410h831z" />
    <glyph glyph-name="three.tf" 
d="M195 436l45 8q6 -193 127 -308q122 -116 319 -116q182 0 295 98t113 257q0 149 -109 232t-295 83h-119v39h117q167 0 270 80t103 215q0 148 -107 238q-106 90 -282 90q-181 0 -293 -106q-111 -105 -121 -283l-45 8q11 191 134 306q125 116 327 116q194 0 312 -102
t118 -267q0 -118 -72 -201q-71 -82 -198 -110v-2q143 -27 223 -113t80 -221q0 -179 -124 -288t-327 -109q-218 0 -349 124t-142 332z" />
    <glyph glyph-name="four.tf" 
d="M1184 383h-258v-383h-45v383h-799v53l803 936h41v-948h258v-41zM881 424v874l-752 -874h752z" />
    <glyph glyph-name="five.tf" 
d="M281 770h362q207 0 320 -94q114 -94 114 -285q0 -187 -126 -299q-125 -112 -333 -112q-217 0 -346 126q-130 128 -135 336l45 9q0 -195 120 -313q119 -118 316 -118q189 0 303 102q113 101 113 269q0 173 -103 255q-104 83 -290 83h-405l38 643h760v-41h-717z" />
    <glyph glyph-name="six.tf" 
d="M1085 1116l-45 -8q-33 117 -129 180q-98 64 -231 64q-189 0 -311 -131q-174 -191 -174 -590q0 -73 2 -117h6q21 161 152 265q133 106 315 106q206 0 332 -128t126 -323q0 -197 -124 -325q-125 -129 -334 -129q-254 0 -386 171t-132 482q0 426 188 620q135 140 342 140
q148 0 258 -73q107 -71 145 -204zM670 23q188 0 302 118q113 117 113 293q0 175 -113 291q-114 117 -302 117q-200 0 -318 -124q-119 -125 -119 -290q0 -177 125 -291q124 -114 312 -114z" />
    <glyph glyph-name="seven.tf" 
d="M1116 1372v-24l-733 -1348h-53l729 1331h-948v41h1005z" />
    <glyph glyph-name="eight.tf" 
d="M762 711q197 -24 286 -127t89 -232q0 -167 -135 -270q-134 -102 -353 -102q-223 0 -358 102t-135 270q0 131 89 232q88 100 281 127q-178 27 -256 119q-80 94 -80 214q0 158 125 253q126 96 334 96q203 0 329 -96q124 -94 124 -253q0 -120 -80 -215q-79 -94 -260 -118z
M233 1044q-1 -135 110 -222t304 -87q196 0 303 88q109 89 109 221q0 137 -113 223q-112 85 -297 85q-189 0 -302 -85q-114 -85 -114 -223zM647 25q199 0 320 90q120 89 120 237q0 142 -115 236t-323 94q-202 0 -323 -94t-121 -236q0 -147 122 -237q121 -90 320 -90z" />
    <glyph glyph-name="nine.tf" 
d="M164 254l45 8q33 -117 129 -180q98 -64 231 -64q189 0 312 132q174 190 174 589q0 73 -2 117h-6q-21 -160 -153 -265q-133 -106 -314 -106q-207 0 -333 128q-126 127 -126 323t125 326q124 129 334 129q254 0 386 -171t132 -483q0 -425 -189 -620q-135 -140 -342 -140
q-149 0 -258 73q-107 71 -145 204zM580 1348q-188 0 -302 -119t-114 -293t114 -291t302 -117q199 0 317 124q119 125 119 290q0 177 -125 291q-126 115 -311 115z" />
    <glyph glyph-name="zero.zero.tf" 
d="M625 1393q246 0 396 -195t150 -512t-150 -512q-149 -194 -396 -194q-279 0 -430 241q-117 191 -117 465q0 317 150 512t397 195zM123 686q0 -254 102 -426l740 936q-133 156 -340 156q-225 0 -364 -184q-138 -183 -138 -482zM625 23q226 0 363 182q138 183 138 481
q0 292 -135 477l-743 -942q140 -198 377 -198z" />
    <glyph glyph-name="zero.zero" horiz-adv-x="1331" 
d="M680 1393q246 0 396 -195q151 -196 151 -512t-151 -512q-149 -194 -396 -194q-276 0 -426 237l-18 4l8 10q-111 183 -111 455q0 316 151 512q150 195 396 195zM178 686q0 -246 96 -416l738 934h2q-136 148 -334 148q-225 0 -364 -184q-138 -183 -138 -482zM680 23
q226 0 363 182q139 184 139 481q0 300 -140 485l-743 -940q136 -208 381 -208z" />
    <glyph glyph-name="zero.dnom" horiz-adv-x="772" 
d="M387 735q138 0 220 -103q83 -104 83 -274q0 -168 -83 -274q-82 -104 -220 -104t-221 104q-84 105 -84 274q0 168 84 273q83 104 221 104zM387 18q118 0 191 94q71 92 71 246q0 153 -71 246q-72 94 -191 94q-118 0 -190 -94t-72 -246q0 -153 72 -246q73 -94 190 -94z" />
    <glyph glyph-name="one.dnom" horiz-adv-x="432" 
d="M289 0h-43v680l-193 -113v43l209 125h27v-735z" />
    <glyph glyph-name="two.dnom" horiz-adv-x="632" 
d="M571 37v-37h-510v27l283 241q95 81 135 135q37 50 37 119q0 83 -56 133q-58 52 -147 52q-93 0 -149 -57q-55 -56 -55 -148l-41 6q0 101 67 168t178 67q108 0 177 -60t69 -161q0 -78 -43 -137q-41 -57 -139 -141l-244 -207h438z" />
    <glyph glyph-name="three.dnom" horiz-adv-x="669" 
d="M463 373q145 -40 145 -178q0 -95 -70 -155t-186 -60t-195 67q-80 68 -81 184l37 5q2 -102 71 -161q70 -59 168 -59q94 0 156 51q59 49 59 128q0 73 -58 116t-157 43h-67v33h67q92 0 144 40q53 41 53 108q0 71 -57 118q-58 47 -148 47q-93 0 -156 -54q-64 -54 -65 -148
l-37 6q1 104 75 168q72 63 183 63q108 0 176 -56q70 -58 70 -144q0 -59 -35 -103q-33 -42 -92 -59z" />
    <glyph glyph-name="four.dnom" horiz-adv-x="714" 
d="M674 197h-137v-197h-41v197h-435v43l433 493h43v-500h137v-36zM496 233v443l-392 -443h392z" />
    <glyph glyph-name="five.dnom" horiz-adv-x="679" 
d="M162 430h200q117 0 186 -59q70 -60 70 -158q0 -105 -74 -169t-198 -64q-105 0 -182 59q-78 60 -90 154l41 4q12 -81 79 -131t152 -50q103 0 169 55q65 54 65 142q0 81 -60 131q-59 49 -158 49h-241l12 332h451v-39h-414z" />
    <glyph glyph-name="six.dnom" horiz-adv-x="739" 
d="M395 465q114 0 183 -69t69 -173q0 -106 -69 -175q-68 -68 -187 -68q-141 0 -215 92t-74 258q0 224 105 329q76 76 190 76q88 0 150 -41q61 -40 78 -114l-41 -7q-35 125 -189 125q-101 0 -162 -65q-95 -101 -90 -303q0 -29 2 -51q12 81 84 133q73 53 166 53zM391 16
q97 0 158 61q59 59 59 148q0 87 -59 146t-158 59q-105 0 -166 -62t-61 -147q0 -88 65 -146q67 -59 162 -59z" />
    <glyph glyph-name="seven.dnom" horiz-adv-x="536" 
d="M516 733v-28l-364 -705h-50l363 694h-451v39h502z" />
    <glyph glyph-name="eight.dnom" horiz-adv-x="690" 
d="M430 377q94 -16 147 -71q52 -53 52 -124q0 -89 -78 -146q-77 -56 -203 -56q-130 0 -208 56q-79 57 -79 146q0 73 54 127q53 53 153 68q-81 18 -131 63q-49 45 -49 109q0 81 74 134q73 52 186 52q110 0 181 -52q73 -53 73 -134q0 -64 -48 -109t-124 -63zM127 547
q0 -65 62 -105q64 -41 159 -41q96 0 152 40q57 40 61 106q1 69 -58 112t-155 43q-97 0 -159 -43t-62 -112zM346 18q106 0 172 45t66 121q0 70 -63 118t-173 48q-111 0 -178 -47q-66 -47 -66 -119q0 -75 67 -121q66 -45 175 -45z" />
    <glyph glyph-name="nine.dnom" horiz-adv-x="739" 
d="M348 735q141 0 215 -92t74 -258q0 -225 -105 -330q-75 -75 -190 -75q-88 0 -149 40t-78 115l41 6q35 -125 188 -125q100 0 162 66q94 100 90 303q0 29 -2 51q-12 -81 -84 -133q-73 -53 -166 -53q-114 0 -182 68q-70 70 -70 174q0 105 70 175q68 68 186 68zM348 285
q105 0 166 62t61 147q0 88 -65 146t-162 58q-98 0 -158 -60q-59 -59 -59 -149q0 -86 59 -145t158 -59z" />
    <glyph glyph-name="zero.numr" horiz-adv-x="772" 
d="M387 1393q137 0 220 -104t83 -273t-83 -275q-82 -104 -220 -104t-221 104q-84 105 -84 275q0 167 84 272t221 105zM387 676q119 0 191 93q71 92 71 247q0 153 -71 246q-72 94 -191 94q-118 0 -190 -94t-72 -246q0 -154 72 -247t190 -93z" />
    <glyph glyph-name="one.numr" horiz-adv-x="432" 
d="M289 637h-43v680l-193 -113v43l209 125h27v-735z" />
    <glyph glyph-name="two.numr" horiz-adv-x="632" 
d="M571 686v-37h-510v27l283 242q95 81 135 135q37 50 37 118q0 84 -56 134q-57 51 -147 51q-93 0 -149 -57q-55 -56 -55 -148l-41 6q0 101 67 168q68 68 178 68q107 0 177 -61q69 -60 69 -161q0 -78 -43 -137q-41 -57 -139 -141l-244 -207h438z" />
    <glyph glyph-name="three.numr" horiz-adv-x="669" 
d="M463 1030q145 -40 145 -178q0 -95 -70 -155t-186 -60q-115 0 -195 68t-81 184l37 4q2 -102 71 -161q68 -58 168 -58q95 0 156 50q59 49 59 128q0 74 -58 117t-157 43h-67v32h67q92 0 144 40q53 41 53 108q0 72 -57 119q-58 47 -148 47q-93 0 -156 -54t-65 -149l-37 6
q1 104 75 168q73 64 183 64q107 0 176 -57q70 -58 70 -144q0 -58 -35 -102q-34 -43 -92 -60z" />
    <glyph glyph-name="four.numr" horiz-adv-x="714" 
d="M674 836h-137v-197h-41v197h-435v43l433 493h43v-500h137v-36zM496 872v443l-392 -443h392z" />
    <glyph glyph-name="five.numr" horiz-adv-x="679" 
d="M162 1077h200q117 0 186 -59q70 -60 70 -158q0 -105 -74 -169t-198 -64q-105 0 -182 59q-78 60 -90 154l41 4q12 -81 79 -131q65 -49 152 -49q104 0 169 54t65 142q0 82 -60 131q-59 49 -158 49h-241l12 332h451v-39h-414z" />
    <glyph glyph-name="six.numr" horiz-adv-x="739" 
d="M395 1122q115 0 183 -68q69 -69 69 -173q0 -106 -69 -175t-187 -69q-141 0 -215 92t-74 258q0 225 105 330q76 76 190 76q88 0 150 -41q61 -40 78 -115l-41 -6q-35 125 -189 125q-101 0 -162 -66q-95 -100 -90 -303q0 -29 2 -51q12 81 84 133q73 53 166 53zM391 674
q98 0 158 60q59 59 59 149q0 86 -59 145t-158 59q-105 0 -166 -62t-61 -146q0 -89 65 -147t162 -58z" />
    <glyph glyph-name="seven.numr" horiz-adv-x="536" 
d="M516 1372v-29l-364 -704h-50l363 694h-451v39h502z" />
    <glyph glyph-name="eight.numr" horiz-adv-x="690" 
d="M430 1034q95 -17 147 -70t52 -124q0 -90 -78 -147q-77 -56 -203 -56q-130 0 -208 56q-79 57 -79 147q0 73 54 127q52 52 153 67q-80 17 -131 64q-49 45 -49 108q0 81 74 134t186 53q108 0 181 -53t73 -134q0 -63 -48 -108q-50 -46 -124 -64zM127 1204q0 -64 62 -104
q64 -41 159 -41q96 0 152 40q57 40 61 105q2 70 -58 113q-59 43 -155 43q-97 0 -159 -43t-62 -113zM346 676q106 0 172 45t66 121q0 69 -63 117q-64 49 -173 49q-111 0 -178 -47q-66 -47 -66 -119q0 -75 67 -121q66 -45 175 -45z" />
    <glyph glyph-name="nine.numr" horiz-adv-x="739" 
d="M348 1393q140 0 215 -93q74 -92 74 -258q0 -224 -105 -329q-76 -76 -190 -76q-87 0 -149 41q-61 40 -78 115l41 6q35 -125 188 -125q101 0 162 65q94 101 90 303q0 30 -2 52q-12 -81 -84 -133q-74 -54 -166 -54q-113 0 -182 69q-70 70 -70 173q0 105 70 175q69 69 186 69
zM348 942q104 0 166 63q61 62 61 146q0 88 -65 146q-67 59 -162 59q-97 0 -158 -61q-59 -59 -59 -148q0 -87 59 -146t158 -59z" />
    <glyph glyph-name="backslash.case" horiz-adv-x="651" 
d="M588 0h-41l-484 1372h41z" />
    <glyph glyph-name="periodcentered.case" horiz-adv-x="348" 
d="M174 731q22 0 36 -14q15 -15 15 -35q0 -21 -14 -35t-37 -14t-37 14t-14 35q0 20 15 35q14 14 36 14z" />
    <glyph glyph-name="bullet.case" horiz-adv-x="763" 
d="M381 932q107 0 184 -74q76 -73 76 -176q0 -109 -75 -178q-76 -70 -185 -70t-184 70q-74 69 -74 178q0 102 75 176q76 74 183 74z" />
    <glyph glyph-name="colon.case" horiz-adv-x="348" 
d="M174 1081q22 0 36 -14q15 -15 15 -35q0 -21 -14 -35t-37 -14t-37 14t-14 35q0 20 15 35q14 14 36 14zM174 340q22 0 36 -14q15 -15 15 -35q0 -21 -14 -35t-37 -14t-37 14t-14 35q0 20 15 35q14 14 36 14z" />
    <glyph glyph-name="exclamdown.case" horiz-adv-x="512" 
d="M256 1278q-22 0 -36 14q-15 15 -15 35q0 21 14 35t37 14t37 -14t14 -35q0 -20 -15 -35q-14 -14 -36 -14zM236 1006h43v-1006h-43v1006z" />
    <glyph glyph-name="questiondown.case" horiz-adv-x="1044" 
d="M539 1282q-22 0 -36 14q-16 16 -16 35q0 20 15 35q14 14 37 14q22 0 36 -14q15 -15 15 -35q0 -19 -16 -35q-14 -14 -35 -14zM918 434l45 -6q0 -199 -123 -322q-122 -122 -322 -122q-197 0 -316 112q-120 112 -120 297q0 177 125 291q126 116 309 123v203h45v-244h-22
q-173 0 -293 -104q-121 -105 -121 -269q0 -165 108 -267q107 -101 285 -101q181 0 290 113q110 115 110 296z" />
    <glyph glyph-name="semicolon.case" horiz-adv-x="393" 
d="M219 1081q22 0 36 -14q15 -15 15 -35q0 -21 -14 -35t-37 -14t-37 14t-14 35q0 20 15 35q14 14 36 14zM82 -270h-41l147 528h58v-4z" />
    <glyph glyph-name="slash.case" horiz-adv-x="692" 
d="M98 0h-49l543 1372h49z" />
    <glyph glyph-name="braceleft.case" horiz-adv-x="890" 
d="M420 1118v-211q0 -171 -139 -231q139 -60 139 -234v-188q0 -98 56 -155q57 -58 147 -58h125v-41h-125q-113 0 -181 70q-67 68 -67 184v188q0 94 -57 154q-56 59 -146 59h-29v41h29q89 0 146 59t57 152v211q0 117 67 185q68 69 181 69h125v-41h-125q-90 0 -147 -58
q-56 -57 -56 -155z" />
    <glyph glyph-name="braceright.case" horiz-adv-x="890" 
d="M748 696v-41h-29q-91 0 -147 -59t-56 -154v-188q0 -116 -67 -184q-68 -70 -181 -70h-125v41h125q90 0 147 58q56 57 56 155v188q0 174 139 234q-139 60 -139 231v211q0 98 -56 155q-57 58 -147 58h-125v41h125q114 0 181 -69q67 -68 67 -185v-211q0 -95 56 -152
q57 -59 147 -59h29z" />
    <glyph glyph-name="bracketleft.case" horiz-adv-x="772" 
d="M260 1331v-1290h369v-41h-414v1372h414v-41h-369z" />
    <glyph glyph-name="bracketright.case" horiz-adv-x="772" 
d="M557 1372v-1372h-414v41h369v1290h-369v41h414z" />
    <glyph glyph-name="parenleft.case" horiz-adv-x="647" 
d="M188 686q0 -399 316 -680l-23 -24q-338 290 -338 704q0 415 338 705l23 -25q-316 -281 -316 -680z" />
    <glyph glyph-name="parenright.case" horiz-adv-x="647" 
d="M143 1366l23 25q338 -290 338 -705q0 -414 -338 -704l-23 24q316 281 316 680t-316 680z" />
    <glyph glyph-name="emdash.case" horiz-adv-x="2129" 
d="M2007 666h-1884v41h1884v-41z" />
    <glyph glyph-name="endash.case" horiz-adv-x="1269" 
d="M1147 666h-1024v41h1024v-41z" />
    <glyph glyph-name="hyphen.case" horiz-adv-x="897" 
d="M774 666h-651v41h651v-41z" />
    <glyph glyph-name="guillemotleft.case" horiz-adv-x="731" 
d="M51 659l271 365h51l-271 -365l271 -364h-51zM358 659l271 365h51l-270 -365l270 -364h-51z" />
    <glyph glyph-name="guillemotright.case" horiz-adv-x="731" 
d="M51 295l271 364l-271 365h51l271 -365l-271 -364h-51zM358 295l271 364l-271 365h52l270 -365l-270 -364h-52z" />
    <glyph glyph-name="guilsinglleft.case" horiz-adv-x="423" 
d="M51 659l271 365h51l-271 -365l271 -364h-51z" />
    <glyph glyph-name="guilsinglright.case" horiz-adv-x="423" 
d="M51 295l271 364l-271 365h51l271 -365l-271 -364h-51z" />
    <glyph glyph-name="cent.tf" 
d="M633 975v-955q138 5 247 72t144 182l39 -14q-37 -127 -157 -202q-117 -73 -273 -78v-246h-43v246q-202 11 -339 152q-138 142 -138 366q0 220 139 363q140 144 338 155v274h43v-274q150 -4 272 -84q121 -79 160 -211l-39 -16q-38 119 -146 192q-109 73 -247 78zM156 498
q0 -206 126 -337t308 -141v955q-179 -10 -307 -144q-127 -133 -127 -333z" />
    <glyph glyph-name="dollar.tf" 
d="M637 713l137 -33q71 -17 108 -31q45 -17 93 -49q49 -33 75 -87q25 -53 25 -128q0 -159 -120 -254q-119 -94 -316 -94h-2v-242h-43v244q-189 11 -313 112q-126 103 -142 259l45 12q16 -145 128 -237q110 -91 282 -103v598l-131 31q-277 63 -277 284q0 153 114 245
q113 90 294 95v242h43v-242q168 -7 279 -100q110 -92 128 -227l-40 -13q-21 128 -119 207q-100 81 -248 88v-577zM594 725v567q-162 -2 -261 -81q-100 -80 -100 -214q0 -107 67 -162q68 -55 189 -85zM637 80h4q176 0 282 83q105 83 105 220q0 112 -69 169t-191 85l-131 31
v-588z" />
    <glyph glyph-name="Euro.tf" 
d="M682 20q165 0 285 115q119 115 166 316l41 -13q-45 -208 -177 -334q-130 -124 -315 -124q-198 0 -331 139q-135 141 -175 377h-127v41h123q-10 74 -10 149q0 65 6 127h-119v41h125q34 248 171 393q137 146 337 146q184 0 315 -125q132 -126 177 -336l-41 -12
q-46 199 -166 316q-119 116 -285 116q-182 0 -305 -134t-158 -364h590l-12 -41h-584q-6 -62 -6 -127q0 -75 10 -149h508l-10 -41h-492q39 -220 161 -348t298 -128z" />
    <glyph glyph-name="florin.tf" 
d="M961 1352q-122 0 -204 -77q-82 -78 -106 -204l-65 -364h454v-41h-462l-142 -787q-18 -97 -85 -158q-65 -59 -161 -59q-78 0 -129 45l25 35q40 -39 107 -39q78 0 132 48q53 47 68 128l142 787h-279v41h287l65 364q27 148 122 235q94 87 237 87q131 0 215 -86l-29 -31
q-76 76 -192 76z" />
    <glyph glyph-name="sterling.tf" 
d="M1143 41v-41h-1061v29l174 10v586h-174v41h174v303q0 190 120 307t314 117t316 -116q120 -114 120 -300l-45 -10q0 174 -107 278q-108 105 -284 105q-173 0 -281 -105t-108 -276v-303h608v-41h-608v-584h842z" />
    <glyph glyph-name="yen.tf" 
d="M672 590h401v-41h-426v-205h426v-41h-426v-303h-45v303h-426v41h426v205h-426v41h402l-527 782h53l521 -782l520 782h53z" />
    <glyph glyph-name="approxequal.tf" 
d="M1055 838v-54q-85 -49 -195 -49q-98 0 -227 67q-127 66 -219 66q-60 0 -120 -20q-63 -21 -99 -57v49q79 69 219 69q94 0 225 -66q132 -67 221 -67q116 0 195 62zM1055 489v-53q-85 -49 -195 -49q-98 0 -227 67q-127 66 -219 66q-60 0 -120 -20q-62 -20 -99 -58v50
q79 69 219 69q94 0 225 -66q132 -67 221 -67q118 0 195 61z" />
    <glyph glyph-name="divide.tf" 
d="M625 1051q20 0 35 -15q16 -16 16 -35q0 -20 -14 -34q-15 -15 -37 -15t-37 15t-15 34t16 35q15 15 36 15zM1055 604h-860v41h860v-41zM625 297q21 0 35 -14q16 -16 16 -35q0 -21 -14 -35t-37 -14t-37 14q-15 15 -15 35q0 19 16 35q14 14 36 14z" />
    <glyph glyph-name="equal.tf" 
d="M1055 809h-860v41h860v-41zM1055 440h-860v41h860v-41z" />
    <glyph glyph-name="greater.tf" 
d="M946 625l-659 327v47l725 -362v-25l-725 -362v47z" />
    <glyph glyph-name="greaterequal.tf" 
d="M915 666l-628 266v47l704 -301v-25l-704 -301v47zM983 195h-696v41h696v-41z" />
    <glyph glyph-name="less.tf" 
d="M963 250l-725 362v25l725 362v-47l-660 -327l660 -328v-47z" />
    <glyph glyph-name="lessequal.tf" 
d="M963 352l-705 301v25l705 301v-47l-629 -266l629 -267v-47zM963 236v-41h-697v41h697z" />
    <glyph glyph-name="minus.tf" 
d="M1055 604h-860v41h860v-41z" />
    <glyph glyph-name="multiply.tf" 
d="M655 625l303 -303l-30 -31l-303 303l-303 -303l-31 31l303 303l-303 303l31 30l303 -303l303 303l30 -30z" />
    <glyph glyph-name="notequal.tf" 
d="M762 809l-219 -328h512v-41h-539l-151 -225h-54l152 225h-268v41h294l220 328h-514v41h540l152 225h53l-152 -225h267v-41h-293z" />
    <glyph glyph-name="plus.tf" 
d="M1055 604h-410v-409h-41v409h-409v41h409v410h41v-410h410v-41z" />
    <glyph glyph-name="plusminus.tf" 
d="M1055 696v-41h-410v-389h-41v389h-409v41h409v389h41v-389h410zM195 41h860v-41h-860v41z" />
    <glyph glyph-name="bar.case" horiz-adv-x="475" 
d="M260 -84h-45v1538h45v-1538z" />
    <glyph glyph-name="at.case" horiz-adv-x="1996" 
d="M1001 1475q355 0 593 -225q239 -225 239 -572q0 -192 -75 -322q-75 -131 -224 -131q-100 0 -161 55q-60 54 -60 142v47q-46 -106 -142 -168q-94 -61 -213 -61q-168 0 -283 115q-116 116 -116 298q0 181 116 299q115 117 283 117q119 0 213 -61q96 -62 142 -168v209h41
v-629q0 -73 49 -116q50 -44 129 -44q126 0 192 122t66 298q0 329 -225 544q-224 214 -564 214q-341 0 -568 -219q-226 -219 -226 -553q0 -332 222 -554q223 -223 540 -223q121 0 256 33q134 33 223 90l22 -37q-88 -57 -233 -93q-139 -34 -266 -34q-338 0 -573 232
q-234 231 -234 584q0 352 238 581q239 230 599 230zM961 276q147 0 250 106q102 105 102 273q0 167 -102 270t-250 103q-152 0 -256 -103q-105 -103 -105 -270q0 -168 105 -273q106 -106 256 -106z" />
    <glyph glyph-name="caron.alt" horiz-adv-x="1228" 
d="M610 1032h-37v299h45z" />
    </font>
</defs>
</svg>
