<?xml version="1.0" standalone="no"?>
<!DOCTYPE svg PUBLIC "-//W3C//DTD SVG 1.1//EN" "http://www.w3.org/Graphics/SVG/1.1/DTD/svg11.dtd" >
<svg xmlns="http://www.w3.org/2000/svg" xmlns:xlink="http://www.w3.org/1999/xlink" version="1.1">
<metadata>
Created by FontForge 20170731 at Fri Dec 11 12:29:46 2020
 By Aleksey,,,
Copyright (c) 2014 by Rene' Bieder. All rights reserved.
</metadata>
<defs>
<font id="GalanoGrotesque-Heavy" horiz-adv-x="1249" >
  <font-face 
    font-family="GalanoGrotesque-Heavy"
    font-weight="400"
    font-stretch="normal"
    units-per-em="2048"
    panose-1="0 0 9 0 0 0 0 0 0 0"
    ascent="1638"
    descent="-410"
    x-height="1036"
    cap-height="1372"
    bbox="-334 -463 2640 1991"
    underline-thickness="102"
    underline-position="-204"
    unicode-range="U+0020-FB02"
  />
<missing-glyph horiz-adv-x="1589" 
d="M795 1401q295 0 503 -205q209 -206 209 -512q0 -309 -209 -512t-503 -203q-298 0 -506 204q-209 204 -209 511q0 306 209 512q208 205 506 205zM795 1288q-247 0 -419 -172q-173 -173 -173 -432q0 -257 173 -430q172 -172 419 -172q244 0 416 172q173 173 173 430
q0 259 -172 431q-173 173 -417 173zM1087 823q0 -80 -52 -135q-53 -56 -142 -78v-51h-225v193h98q88 0 88 57t-66 57q-65 0 -75 -67l-230 45q23 99 105 162t219 63q122 0 202 -71q78 -69 78 -175zM776 522q53 0 89 -37t36 -84q0 -50 -35 -87q-34 -35 -90 -35q-54 0 -89 35
q-36 36 -36 87q0 47 36 84t89 37z" />
    <glyph glyph-name="fi" unicode="fi" horiz-adv-x="1378" 
d="M1067 1118q-101 0 -164 63t-63 158q0 91 64 156q64 66 163 66q98 0 164 -66q65 -65 65 -156q0 -95 -64 -158t-165 -63zM1274 1038v-1038h-412v719h-301v-719h-411v719h-134v319h134v60q0 186 117 296q119 111 313 111q101 0 194 -32l-59 -316q-3 0 -21 3t-26 3
q-48 0 -77 -26q-30 -27 -30 -72v-27h713z" />
    <glyph glyph-name="fl" unicode="fl" horiz-adv-x="1376" 
d="M666 1163q-49 0 -76 -26q-29 -27 -29 -72v-27h240v-319h-240v-719h-411v719h-134v319h134v60q0 186 117 296q119 111 311 111q119 0 233 -47l-80 -305q-36 10 -65 10zM1292 1475v-1475h-411v1475h411z" />
    <glyph glyph-name=".notdef" horiz-adv-x="1589" 
d="M795 1401q295 0 503 -205q209 -206 209 -512q0 -309 -209 -512t-503 -203q-298 0 -506 204q-209 204 -209 511q0 306 209 512q208 205 506 205zM795 1288q-247 0 -419 -172q-173 -173 -173 -432q0 -257 173 -430q172 -172 419 -172q244 0 416 172q173 173 173 430
q0 259 -172 431q-173 173 -417 173zM1087 823q0 -80 -52 -135q-53 -56 -142 -78v-51h-225v193h98q88 0 88 57t-66 57q-65 0 -75 -67l-230 45q23 99 105 162t219 63q122 0 202 -71q78 -69 78 -175zM776 522q53 0 89 -37t36 -84q0 -50 -35 -87q-34 -35 -90 -35q-54 0 -89 35
q-36 36 -36 87q0 47 36 84t89 37z" />
    <glyph glyph-name=".null" horiz-adv-x="0" 
 />
    <glyph glyph-name="nonmarkingreturn" horiz-adv-x="681" 
 />
    <glyph glyph-name="space" unicode=" " horiz-adv-x="442" 
 />
    <glyph glyph-name="exclam" unicode="!" horiz-adv-x="636" 
d="M553 1372v-63l-37 -809h-395l-37 809v63h469zM330 420q94 0 160 -64q65 -63 65 -151q0 -93 -63 -154q-62 -61 -162 -61t-162 61q-64 62 -64 154q0 87 64 151t162 64z" />
    <glyph glyph-name="quotedbl" unicode="&#x22;" horiz-adv-x="989" 
d="M86 676v696h360v-696h-360zM543 676v696h362v-696h-362z" />
    <glyph glyph-name="numbersign" unicode="#" horiz-adv-x="1513" 
d="M1202 780l-51 -211h199l-78 -290h-193l-69 -279h-320l70 279h-203l-68 -279h-319l68 279h-197l78 290h190l53 211h-198l78 291h192l74 301h319l-73 -301h202l74 301h320l-74 -301h197l-78 -291h-193zM883 780h-203l-51 -211h200z" />
    <glyph glyph-name="dollar" unicode="$" horiz-adv-x="1259" 
d="M1208 449q0 -177 -112 -280t-285 -138v-236h-338v240q-167 40 -280 147t-140 248l389 74q45 -172 209 -172q57 0 95 21t38 59q0 56 -71 77l-264 66q-361 92 -361 375q0 168 105 274t280 139v234h338v-240q162 -38 262 -135q102 -99 123 -244l-373 -63q-37 162 -192 162
q-53 0 -85 -24t-32 -64q0 -56 61 -72l256 -63q186 -46 283 -140q94 -91 94 -245z" />
    <glyph glyph-name="percent" unicode="%" horiz-adv-x="1867" 
d="M457 1403q156 0 263 -100t107 -261t-107 -259q-108 -99 -263 -99q-157 0 -266 100t-109 258q0 161 109 261t266 100zM340 0l971 1372h213l-973 -1372h-211zM457 1174q-51 0 -89 -36t-38 -96q0 -56 38 -94q37 -37 89 -37q50 0 87 37q38 38 38 94q0 60 -38 96t-87 36z
M1415 690q156 0 263 -100q108 -101 108 -262q0 -160 -108 -259q-109 -100 -263 -100q-155 0 -265 101t-110 258q0 161 110 262q109 100 265 100zM1415 461q-51 0 -89 -36t-38 -95q0 -60 38 -96q36 -35 89 -35q51 0 87 35q38 36 38 96q0 59 -38 95t-87 36z" />
    <glyph glyph-name="ampersand" unicode="&#x26;" horiz-adv-x="1423" 
d="M1182 -55l-164 141q-180 -117 -420 -117t-393 117q-154 118 -154 307q0 232 232 357q-95 128 -95 262q0 174 134 282q135 109 346 109q219 0 338 -107q118 -106 145 -278l-373 -68q-7 75 -34 108q-26 32 -74 32q-39 0 -63 -24q-23 -23 -23 -62q0 -77 118 -189l236 -203
q6 37 6 82v70h383v-70q0 -195 -76 -350l166 -143zM629 291q57 0 116 31l-233 200q-51 -45 -51 -98q0 -58 44 -96q43 -37 124 -37z" />
    <glyph glyph-name="quotesingle" unicode="'" horiz-adv-x="532" 
d="M86 676v696h360v-696h-360z" />
    <glyph glyph-name="parenleft" unicode="(" horiz-adv-x="819" 
d="M483 690q0 -129 42 -243q42 -113 93 -184q47 -65 146 -175l-291 -256q-196 190 -306 392t-110 466q0 262 110 464t306 392l277 -258q-71 -84 -104 -129q-38 -53 -80 -126q-43 -76 -63 -161q-20 -86 -20 -182z" />
    <glyph glyph-name="parenright" unicode=")" horiz-adv-x="819" 
d="M70 1288l276 258q195 -189 307 -392q111 -201 111 -464q0 -265 -111 -466q-112 -203 -307 -392l-289 256q140 157 210 287q69 129 69 315q0 96 -20 182q-20 85 -63 161q-42 73 -80 126q-39 54 -103 129z" />
    <glyph glyph-name="asterisk" unicode="*" horiz-adv-x="915" 
d="M664 1100l188 -109l-102 -178l-183 105v-197h-219v199l-182 -105l-103 176l189 109l-189 106l103 178l182 -104v195h219v-195l183 104l102 -176z" />
    <glyph glyph-name="plus" unicode="+" horiz-adv-x="1153" 
d="M1081 461h-348v-350h-313v350h-348v311h348v350h313v-350h348v-311z" />
    <glyph glyph-name="comma" unicode="," horiz-adv-x="579" 
d="M301 -270h-315l118 651h439v-10z" />
    <glyph glyph-name="hyphen" unicode="-" horiz-adv-x="933" 
d="M811 391h-688v340h688v-340z" />
    <glyph glyph-name="period" unicode="." horiz-adv-x="530" 
d="M264 438q96 0 162 -67q66 -68 66 -158q0 -96 -65 -161q-64 -64 -163 -64t-162 64t-63 161q0 94 64 159q65 66 161 66z" />
    <glyph glyph-name="slash" unicode="/" horiz-adv-x="942" 
d="M895 1518l-590 -1665h-260l590 1665h260z" />
    <glyph glyph-name="zero" unicode="0" horiz-adv-x="1355" 
d="M678 1403q284 0 456 -198q173 -199 173 -519t-173 -519q-172 -198 -456 -198t-456 198q-173 199 -173 519t173 519q173 198 456 198zM678 326q94 0 148 93q55 95 55 267q0 170 -55 265q-54 93 -148 93q-95 0 -149 -93t-54 -265q0 -174 54 -267t149 -93z" />
    <glyph glyph-name="one" unicode="1" horiz-adv-x="856" 
d="M743 1372v-1372h-413v887l-314 -160v389l453 256h274z" />
    <glyph glyph-name="two" unicode="2" horiz-adv-x="1200" 
d="M1137 360v-360h-1092l4 8v273l492 426q92 79 127 124q39 50 39 107q0 53 -33 86t-86 33q-139 0 -154 -178l-401 71q12 210 160 332q146 121 385 121q241 0 387 -124q147 -125 147 -343q0 -131 -63 -221q-64 -91 -207 -215l-166 -140h461z" />
    <glyph glyph-name="three" unicode="3" horiz-adv-x="1202" 
d="M989 702q164 -99 164 -282q0 -196 -156 -323q-157 -128 -395 -128q-223 0 -379 117t-186 320l407 71q15 -83 58 -126q44 -44 106 -44q66 0 106 34t40 89q0 54 -43 85q-44 32 -117 32h-156v293h148q70 0 114 30q43 30 43 82q0 56 -38 88q-39 33 -105 33q-138 0 -156 -182
l-395 74q34 210 183 324q148 114 366 114q231 0 382 -125q150 -125 150 -313q0 -173 -141 -263z" />
    <glyph glyph-name="four" unicode="4" horiz-adv-x="1312" 
d="M1270 213h-160v-213h-389v213h-688v377l585 784h492v-821h160v-340zM721 553v408l-289 -408h289z" />
    <glyph glyph-name="five" unicode="5" horiz-adv-x="1196" 
d="M483 897h162q245 0 375 -119q129 -118 129 -325q0 -217 -149 -351q-148 -133 -392 -133q-232 0 -390 124t-173 343l397 76q5 -105 53 -152q49 -47 117 -47q67 0 105 37q39 38 39 99q0 60 -43 94q-44 35 -115 35h-492l31 796h957v-356h-605z" />
    <glyph glyph-name="six" unicode="6" 
d="M725 893q215 0 345 -126t130 -329q0 -208 -152 -338q-154 -131 -386 -131q-283 0 -448 182q-165 181 -165 506q0 379 201 580q166 166 416 166q199 0 333 -91q136 -92 179 -259l-394 -80q-28 94 -135 94q-74 0 -131 -63q-69 -80 -74 -220q109 109 281 109zM647 291
q69 0 118 48q50 48 50 116q0 69 -50 116t-118 47q-67 0 -117 -47q-49 -46 -49 -118q0 -69 49 -115q50 -47 117 -47z" />
    <glyph glyph-name="seven" unicode="7" horiz-adv-x="1081" 
d="M1040 1374v-311l-415 -1063h-447l406 1014h-566v360h1022z" />
    <glyph glyph-name="eight" unicode="8" horiz-adv-x="1193" 
d="M934 713q231 -95 231 -332q0 -178 -157 -295t-412 -117q-252 0 -411 117q-158 116 -158 297q0 233 231 332q-180 91 -180 293q0 167 148 281t372 114q220 0 370 -115q148 -114 148 -280q0 -201 -182 -295zM596 1102q-60 0 -104 -36q-43 -36 -43 -95q0 -57 43 -94t104 -37
q62 0 105 37q44 38 44 94q0 59 -44 95q-43 36 -105 36zM596 287q63 0 109 38q45 37 45 99q0 60 -45 98q-44 37 -109 37t-108 -37q-44 -38 -44 -100q0 -59 44 -97t108 -38z" />
    <glyph glyph-name="nine" unicode="9" 
d="M590 1403q283 0 446 -181q164 -182 164 -507q0 -378 -199 -580q-169 -166 -415 -166q-198 0 -335 92q-135 90 -179 261l395 77q27 -94 133 -94q73 0 131 64q70 80 74 219q-109 -109 -279 -109q-216 0 -346 126q-131 126 -131 329q0 208 153 338q154 131 388 131zM602 754
q68 0 118 48t50 118q0 67 -50 114t-118 47t-118 -48t-50 -115q0 -70 50 -117t118 -47z" />
    <glyph glyph-name="colon" unicode=":" horiz-adv-x="530" 
d="M264 1051q96 0 162 -68q66 -67 66 -160q0 -96 -65 -159q-66 -64 -163 -64q-98 0 -162 64q-63 63 -63 159q0 93 64 160q65 68 161 68zM264 438q96 0 162 -67q66 -68 66 -158q0 -96 -65 -161q-64 -64 -163 -64t-162 64t-63 161q0 94 64 159q65 66 161 66z" />
    <glyph glyph-name="semicolon" unicode=";" horiz-adv-x="604" 
d="M338 1051q98 0 163 -68q64 -67 64 -160q0 -96 -64 -159q-66 -64 -163 -64q-98 0 -162 64q-63 63 -63 159q0 93 64 160q65 68 161 68zM301 -270h-315l118 651h439v-10z" />
    <glyph glyph-name="less" unicode="&#x3c;" horiz-adv-x="1013" 
d="M932 193l-869 290v365l869 293v-359l-473 -114l473 -119v-356z" />
    <glyph glyph-name="equal" unicode="=" horiz-adv-x="1153" 
d="M1081 684h-1009v295h1009v-295zM1081 279h-1009v294h1009v-294z" />
    <glyph glyph-name="greater" unicode="&#x3e;" horiz-adv-x="1013" 
d="M557 668l-475 114v359l870 -293v-365l-870 -290v356z" />
    <glyph glyph-name="question" unicode="?" horiz-adv-x="1138" 
d="M610 1403q220 0 357 -126t137 -312q0 -141 -89 -241q-89 -99 -247 -140v-92h-410l2 346h177q69 0 110 27t41 75q0 47 -30 77t-76 30q-51 0 -84 -35q-34 -35 -41 -94l-412 83q39 179 180 290q142 112 385 112zM557 420q95 0 161 -64q64 -63 64 -151q0 -93 -63 -154
q-62 -61 -162 -61t-162 61q-63 61 -63 154q0 88 63 151q64 64 162 64z" />
    <glyph glyph-name="at" unicode="@" horiz-adv-x="1894" 
d="M1397 950v-557q0 -74 82 -74q65 0 103 94t38 220q0 269 -185 432q-187 164 -462 164q-299 0 -498 -191t-199 -483q0 -289 195 -473q194 -184 498 -184q256 0 481 174l94 -152q-235 -199 -573 -199q-390 0 -638 233q-247 232 -247 593q0 369 255 612q256 244 632 244
q352 0 594 -215q241 -214 241 -553q0 -92 -20 -169q-20 -78 -65 -157q-42 -74 -130 -122q-85 -46 -204 -46q-197 0 -263 127q-92 -123 -268 -123q-164 0 -276 112q-111 111 -111 302q0 190 111 301t278 111q146 0 234 -88v67h303zM954 414q58 0 99 41t41 106q0 66 -40 106
t-100 40q-58 0 -98 -40q-41 -41 -41 -106q0 -62 41 -105q40 -42 98 -42z" />
    <glyph glyph-name="A" unicode="A" horiz-adv-x="1562" 
d="M1563 0h-453l-66 186h-526l-65 -186h-453l543 1372h477zM920 537l-138 391l-139 -391h277z" />
    <glyph glyph-name="B" unicode="B" horiz-adv-x="1366" 
d="M1014 709v-9q127 -1 215 -76t88 -235q0 -177 -127 -283t-342 -106h-764v1372h762q194 0 312 -100t118 -264q0 -144 -83 -221q-82 -76 -179 -78zM508 1049v-234h217q61 0 99 33t38 86q0 54 -37 84q-39 31 -98 31h-219zM508 324h237q64 0 101 34t37 95q0 54 -37 84t-101 30
h-237v-243z" />
    <glyph glyph-name="C" unicode="C" horiz-adv-x="1568" 
d="M1090 588l423 -82q-44 -249 -234 -392q-193 -145 -480 -145q-313 0 -527 208q-215 209 -215 509t215 509q214 208 527 208q267 0 467 -143t245 -379l-424 -82q-27 107 -101 166t-187 59q-135 0 -226 -97q-92 -98 -92 -241t92 -241q91 -97 226 -97q109 0 186 63t105 177z
" />
    <glyph glyph-name="D" unicode="D" horiz-adv-x="1484" 
d="M84 1372h598q337 0 542 -190q206 -191 206 -496t-206 -496q-205 -190 -542 -190h-598v1372zM508 352h139q159 0 257 93q97 93 97 241t-97 241q-98 93 -257 93h-139v-668z" />
    <glyph glyph-name="E" unicode="E" horiz-adv-x="1253" 
d="M1190 350v-350h-1106v1372h1096v-350h-672v-178h616v-316h-616v-178h682z" />
    <glyph glyph-name="F" unicode="F" horiz-adv-x="1232" 
d="M508 1010v-219h610v-363h-610v-428h-424v1372h1114v-362h-690z" />
    <glyph glyph-name="G" unicode="G" horiz-adv-x="1599" 
d="M768 823h766q10 -87 10 -137q0 -317 -206 -517t-529 -200q-317 0 -534 208q-218 209 -218 509q0 301 217 509t535 208q247 0 431 -110t253 -300l-438 -104q-67 135 -246 135q-143 0 -235 -96q-91 -95 -91 -242q0 -145 92 -242q91 -96 236 -96q188 0 272 135h-315v340z
" />
    <glyph glyph-name="H" unicode="H" horiz-adv-x="1476" 
d="M1393 1372v-1372h-422v512h-463v-512h-424v1372h424v-500h463v500h422z" />
    <glyph glyph-name="I" unicode="I" horiz-adv-x="591" 
d="M508 0h-424v1372h424v-1372z" />
    <glyph glyph-name="J" unicode="J" horiz-adv-x="1282" 
d="M1192 1372v-866q0 -242 -161 -389q-162 -148 -425 -148q-246 0 -398 130t-181 352l419 81q18 -186 160 -186q73 0 116 43q44 44 44 117v866h426z" />
    <glyph glyph-name="K" unicode="K" horiz-adv-x="1447" 
d="M1466 0h-542l-353 467h-63v-467h-424v1372h424v-504h47l377 504h495l-512 -690z" />
    <glyph glyph-name="L" unicode="L" horiz-adv-x="1185" 
d="M1137 360v-360h-1053v1372h424v-1012h629z" />
    <glyph glyph-name="M" unicode="M" horiz-adv-x="1830" 
d="M1749 1372v-1372h-414v588l-280 -588h-277l-280 588v-588h-414v1372h461l370 -700l373 700h461z" />
    <glyph glyph-name="N" unicode="N" horiz-adv-x="1536" 
d="M1452 1372v-1372h-346l-598 662v-662h-424v1372h348l598 -688v688h422z" />
    <glyph glyph-name="O" unicode="O" horiz-adv-x="1599" 
d="M801 1403q312 0 527 -208q216 -209 216 -509t-216 -509q-215 -208 -527 -208q-315 0 -529 208q-215 209 -215 509t215 509q214 208 529 208zM801 348q139 0 228 96q89 97 89 242t-89 242q-89 96 -228 96q-140 0 -230 -96t-90 -242t90 -242t230 -96z" />
    <glyph glyph-name="P" unicode="P" horiz-adv-x="1357" 
d="M84 1372h729q227 0 363 -135q137 -135 137 -354q0 -230 -147 -368t-388 -138h-270v-377h-424v1372zM508 705h209q79 0 129 46q51 47 51 119q0 68 -52 113q-53 45 -128 45h-209v-323z" />
    <glyph glyph-name="Q" unicode="Q" horiz-adv-x="1599" 
d="M1544 686q0 -159 -62 -293q-63 -136 -175 -235l200 -248l-311 -266l-274 333q-83 -8 -121 -8q-315 0 -529 208q-215 209 -215 509t215 509q214 208 529 208q312 0 527 -208q216 -209 216 -509zM481 686q0 -146 90 -242t230 -96q139 0 228 96q89 97 89 242t-89 242
q-89 96 -228 96q-140 0 -230 -96t-90 -242z" />
    <glyph glyph-name="R" unicode="R" horiz-adv-x="1404" 
d="M1401 0h-508l-356 422h-29v-422h-424v1372h750q222 0 359 -129q136 -129 136 -340q0 -160 -84 -279q-84 -118 -233 -169zM508 1028v-278h233q81 0 126 38q46 39 46 105q0 61 -46 98t-126 37h-233z" />
    <glyph glyph-name="S" unicode="S" horiz-adv-x="1339" 
d="M674 1403q248 0 408 -104q159 -103 196 -295l-412 -84q-39 161 -192 161q-58 0 -92 -25q-35 -26 -35 -69q0 -61 67 -76l273 -69q200 -51 301 -149q100 -97 100 -261q0 -159 -94 -266q-97 -111 -224 -153q-132 -44 -278 -44q-259 0 -434 118q-177 119 -205 310l430 80
q43 -172 215 -172q60 0 102 25q40 24 40 69q0 57 -78 78l-283 70q-381 91 -381 401q0 218 162 336q163 119 414 119z" />
    <glyph glyph-name="T" unicode="T" horiz-adv-x="1353" 
d="M1313 1014h-424v-1014h-424v1014h-424v358h1272v-358z" />
    <glyph glyph-name="U" unicode="U" horiz-adv-x="1466" 
d="M1376 1372v-749q0 -303 -174 -478q-174 -176 -461 -176q-294 0 -473 176q-178 175 -178 478v749h426v-749q0 -130 62 -203q61 -72 163 -72q95 0 153 73q56 71 56 202v749h426z" />
    <glyph glyph-name="V" unicode="V" horiz-adv-x="1564" 
d="M1561 1372l-572 -1372h-414l-571 1372h471l307 -774l308 774h471z" />
    <glyph glyph-name="W" unicode="W" horiz-adv-x="2027" 
d="M2025 1372l-378 -1372h-457l-176 731l-176 -731h-455l-379 1372h430l205 -741l176 741h399l177 -741l202 741h432z" />
    <glyph glyph-name="X" unicode="X" horiz-adv-x="1464" 
d="M971 0l-240 410l-239 -410h-488l408 686l-396 686h490l225 -401l227 401h488l-395 -686l409 -686h-489z" />
    <glyph glyph-name="Y" unicode="Y" horiz-adv-x="1492" 
d="M1489 1372l-531 -956v-416h-442v416l-512 956h463l281 -534l276 534h465z" />
    <glyph glyph-name="Z" unicode="Z" horiz-adv-x="1329" 
d="M1268 356v-356h-1200v274l630 744h-614v354h1161v-328l-565 -688h588z" />
    <glyph glyph-name="bracketleft" unicode="[" horiz-adv-x="856" 
d="M453 1194v-1040h338v-322h-707v1686h707v-324h-338z" />
    <glyph glyph-name="backslash" unicode="\" horiz-adv-x="942" 
d="M895 -147h-258l-590 1665h258z" />
    <glyph glyph-name="bracketright" unicode="]" horiz-adv-x="856" 
d="M772 1518v-1686h-706v322h335v1040h-335v324h706z" />
    <glyph glyph-name="asciicircum" unicode="^" horiz-adv-x="1011" 
d="M371 831h-346l325 541h312l325 -541h-346l-135 238z" />
    <glyph glyph-name="underscore" unicode="_" horiz-adv-x="1105" 
d="M1065 -389h-1024v274h1024v-274z" />
    <glyph glyph-name="grave" unicode="`" horiz-adv-x="1228" 
d="M721 1497l160 -336h-385l-271 336h496z" />
    <glyph glyph-name="a" unicode="a" horiz-adv-x="1325" 
d="M1241 1038v-1038h-412v84q-112 -115 -292 -115q-219 0 -360 153q-140 152 -140 396q0 246 140 398q141 153 360 153q180 0 292 -115v84h412zM637 311q84 0 138 60t54 147q0 89 -54 149t-138 60q-83 0 -136 -60q-52 -59 -52 -149q0 -88 52 -147q53 -60 136 -60z" />
    <glyph glyph-name="b" unicode="b" horiz-adv-x="1325" 
d="M788 1069q220 0 361 -153t141 -398q0 -243 -141 -396t-361 -153q-180 0 -292 117v-86h-412v1475h412v-523q112 117 292 117zM688 311q84 0 136 60q53 61 53 147q0 88 -53 149q-52 60 -136 60t-138 -60t-54 -149q0 -87 54 -147t138 -60z" />
    <glyph glyph-name="c" unicode="c" horiz-adv-x="1198" 
d="M784 467l377 -68q-30 -193 -183 -312q-152 -118 -362 -118q-242 0 -411 154q-168 153 -168 395t168 396q169 155 411 155q207 0 360 -117t183 -307l-375 -74q-15 75 -59 114q-44 40 -109 40q-82 0 -133 -60t-51 -147q0 -85 51 -145t133 -60q65 0 109 40q44 39 59 114z
" />
    <glyph glyph-name="d" unicode="d" horiz-adv-x="1325" 
d="M1241 1475v-1475h-412v84q-112 -115 -292 -115q-219 0 -360 153q-140 152 -140 396q0 246 140 398q141 153 360 153q180 0 292 -115v521h412zM637 311q84 0 138 60t54 147q0 89 -54 149t-138 60q-83 0 -136 -60q-52 -59 -52 -149q0 -88 52 -147q53 -60 136 -60z" />
    <glyph glyph-name="e" unicode="e" horiz-adv-x="1187" 
d="M1153 487v-67h-715q38 -141 170 -141q121 0 166 94l365 -72q-62 -164 -200 -248t-331 -84q-237 0 -405 154q-166 153 -166 395t165 396q166 155 404 155q246 0 396 -153q151 -154 151 -429zM606 754q-122 0 -166 -119h320q-18 57 -60 88t-94 31z" />
    <glyph glyph-name="f" unicode="f" horiz-adv-x="796" 
d="M561 1038h240v-319h-240v-719h-411v719h-134v319h134v60q0 186 117 296q119 111 311 111q119 0 233 -47l-80 -305q-36 10 -65 10q-49 0 -76 -26q-29 -27 -29 -72v-27z" />
    <glyph glyph-name="g" unicode="g" horiz-adv-x="1318" 
d="M1235 1038v-932q0 -231 -178 -363t-445 -132q-373 0 -540 283l352 118q50 -57 90 -75q43 -19 96 -19q94 0 153 49q60 49 60 148v49q-112 -107 -291 -107q-216 0 -356 143q-139 142 -139 367q0 222 139 362t356 140q184 0 291 -104v73h412zM635 381q83 0 135 54
q53 55 53 132q0 79 -53 134t-135 55q-83 0 -136 -55t-53 -134q0 -77 53 -132q53 -54 136 -54z" />
    <glyph glyph-name="h" unicode="h" horiz-adv-x="1271" 
d="M805 1069q173 0 278 -114t105 -310v-645h-412v557q0 66 -37 106q-36 39 -96 39q-67 0 -107 -49t-40 -139v-514h-412v1475h412v-545q127 139 309 139z" />
    <glyph glyph-name="i" unicode="i" horiz-adv-x="618" 
d="M309 1561q99 0 163 -66q65 -67 65 -156q0 -94 -64 -158q-63 -63 -164 -63t-164 63t-63 158q0 93 64 157q65 65 163 65zM516 0h-414v1038h414v-1038z" />
    <glyph glyph-name="j" unicode="j" horiz-adv-x="641" 
d="M332 1561q98 0 163 -66q64 -65 64 -156q0 -95 -63 -158t-164 -63t-164 63q-64 64 -64 158q0 92 65 157t163 65zM-59 -317l51 288q49 -10 65 -10q34 0 52 24t18 60v993h412v-1028q0 -169 -102 -274t-269 -105q-118 0 -227 52z" />
    <glyph glyph-name="k" unicode="k" horiz-adv-x="1298" 
d="M1315 0h-508l-248 330h-63v-330h-412v1475h412v-777h41l262 340h479l-389 -493z" />
    <glyph glyph-name="l" unicode="l" horiz-adv-x="579" 
d="M496 0h-412v1475h412v-1475z" />
    <glyph glyph-name="m" unicode="m" horiz-adv-x="1955" 
d="M1485 1069q171 0 279 -117t108 -305v-647h-412v559q0 64 -37 104q-36 39 -92 39q-65 0 -106 -50t-41 -132v-520h-412v559q0 63 -38 104q-36 39 -95 39q-65 0 -104 -50t-39 -132v-520h-412v1038h412v-108q108 139 301 139q234 0 333 -184q127 184 355 184z" />
    <glyph glyph-name="n" unicode="n" horiz-adv-x="1271" 
d="M803 1069q175 0 280 -114t105 -310v-645h-412v557q0 66 -37 106q-36 39 -94 39q-69 0 -109 -49t-40 -139v-514h-412v1038h412v-108q127 139 307 139z" />
    <glyph glyph-name="o" unicode="o" horiz-adv-x="1243" 
d="M623 1067q242 0 413 -154q170 -153 170 -395t-170 -395q-171 -154 -413 -154q-245 0 -416 154q-170 153 -170 395t170 395q171 154 416 154zM623 311q79 0 134 61q54 60 54 146q0 89 -54 149t-134 60q-83 0 -137 -60t-54 -149q0 -86 54 -146q55 -61 137 -61z" />
    <glyph glyph-name="p" unicode="p" horiz-adv-x="1325" 
d="M788 1069q220 0 361 -153t141 -398q0 -243 -141 -396t-361 -153q-180 0 -292 117v-434h-412v1386h412v-86q112 117 292 117zM688 311q84 0 136 60q53 61 53 147q0 88 -53 149q-52 60 -136 60t-138 -60t-54 -149q0 -87 54 -147t138 -60z" />
    <glyph glyph-name="q" unicode="q" horiz-adv-x="1325" 
d="M1241 1038v-1386h-412v432q-112 -115 -292 -115q-219 0 -360 153q-140 152 -140 396q0 246 140 398q141 153 360 153q180 0 292 -115v84h412zM637 311q84 0 138 60t54 147q0 89 -54 149t-138 60q-83 0 -136 -60q-52 -59 -52 -149q0 -88 52 -147q53 -60 136 -60z" />
    <glyph glyph-name="r" unicode="r" horiz-adv-x="917" 
d="M834 1051q28 0 75 -7l-14 -430h-61q-162 0 -250 -67t-88 -238v-309h-412v1038h412v-213q107 226 338 226z" />
    <glyph glyph-name="s" unicode="s" horiz-adv-x="1089" 
d="M35 266l391 78q24 -90 139 -90q46 0 70 15t24 36q0 23 -20 34q-19 11 -68 17l-206 35q-314 51 -314 311q0 170 136 269q135 98 339 98q209 0 337 -74t167 -211l-362 -71q-7 32 -45 62q-37 30 -93 30q-41 0 -62 -15q-22 -16 -22 -36q0 -37 60 -49l235 -46
q312 -60 312 -337q0 -167 -140 -260q-139 -93 -354 -93q-207 0 -349 74q-141 73 -175 223z" />
    <glyph glyph-name="t" unicode="t" horiz-adv-x="882" 
d="M799 350l73 -305q-143 -76 -301 -76q-205 0 -313 110q-108 109 -108 304v336h-142v319h142v293h411v-293h258v-319h-258v-285q0 -112 117 -112q72 0 121 28z" />
    <glyph glyph-name="u" unicode="u" horiz-adv-x="1271" 
d="M1188 1036v-1038h-412v108q-127 -139 -307 -139q-176 0 -281 114q-104 113 -104 310v645h412v-557q0 -66 36 -105q37 -40 95 -40q69 0 109 49t40 139v514h412z" />
    <glyph glyph-name="v" unicode="v" horiz-adv-x="1267" 
d="M1264 1038l-426 -1038h-408l-426 1038h428l201 -540l201 540h430z" />
    <glyph glyph-name="w" unicode="w" horiz-adv-x="1652" 
d="M1649 1038l-318 -1038h-346l-158 487l-159 -487h-346l-318 1038h404l122 -438l166 438h262l166 -438l123 438h402z" />
    <glyph glyph-name="x" unicode="x" horiz-adv-x="1275" 
d="M924 498l333 -498h-458l-160 252l-162 -252h-459l332 498l-332 540h459l162 -274l160 274h458z" />
    <glyph glyph-name="y" unicode="y" horiz-adv-x="1298" 
d="M1294 1038l-596 -1386h-432l168 387l-430 999h430l207 -520l223 520h430z" />
    <glyph glyph-name="z" unicode="z" horiz-adv-x="1148" 
d="M1083 319v-319h-1017v264l454 455h-444v319h997v-270l-452 -449h462z" />
    <glyph glyph-name="braceleft" unicode="{" horiz-adv-x="851" 
d="M580 1145v-258q0 -157 -113 -213q113 -56 113 -213v-258q0 -49 45 -49h161v-322h-305q-120 0 -195 75t-75 195v304q0 70 -92 94l-78 20v307l78 21q92 24 92 96v301q0 121 75 197t195 76h305v-324h-161q-45 0 -45 -49z" />
    <glyph glyph-name="bar" unicode="|" horiz-adv-x="536" 
d="M453 -147h-369v1665h369v-1665z" />
    <glyph glyph-name="braceright" unicode="}" horiz-adv-x="851" 
d="M811 827v-307l-78 -20q-92 -24 -92 -94v-304q0 -120 -75 -195t-195 -75h-305v322h161q43 0 43 49v258q0 157 113 213q-113 56 -113 213v258q0 49 -43 49h-161v324h305q120 0 195 -76t75 -197v-301q0 -72 92 -96z" />
    <glyph glyph-name="asciitilde" unicode="~" horiz-adv-x="1058" 
d="M356 461h-290q0 196 88 291q88 96 194 96q85 0 173 -42t110 -42q33 0 51 18t16 49h295q0 -196 -90 -292q-91 -97 -198 -97q-82 0 -169 39t-110 39q-52 0 -70 -59z" />
    <glyph glyph-name="exclamdown" unicode="&#xa1;" horiz-adv-x="636" 
d="M330 635q-99 0 -162 64q-64 66 -64 153q0 92 64 154q62 61 162 61t162 -61q63 -62 63 -154q0 -88 -65 -153q-64 -64 -160 -64zM84 -254l37 811h395l37 -811v-63h-469v63z" />
    <glyph glyph-name="cent" unicode="&#xa2;" horiz-adv-x="1198" 
d="M784 467l377 -68q-24 -151 -125 -258q-99 -105 -250 -149v-258h-337v258q-182 46 -297 188t-115 338q0 195 115 339t297 190v243h337v-243q146 -40 248 -147q101 -106 125 -255l-375 -74q-15 75 -59 114q-44 40 -109 40q-82 0 -133 -60t-51 -147q0 -85 51 -145t133 -60
q65 0 109 40q44 39 59 114z" />
    <glyph glyph-name="sterling" unicode="&#xa3;" horiz-adv-x="1204" 
d="M1169 352v-352h-1103v270l116 39v152h-116v325h116v166q0 202 135 327q134 124 357 124q207 0 342 -120t151 -308l-397 -70q-15 135 -96 135q-38 0 -60 -23t-22 -65v-166h326v-325h-326v-109h577z" />
    <glyph glyph-name="yen" unicode="&#xa5;" horiz-adv-x="1449" 
d="M1034 657h240v-221h-346v-67h346v-224h-346v-145h-424v145h-326v224h326v67h-326v221h223l-376 715h436l256 -518l252 518h456z" />
    <glyph glyph-name="section" unicode="&#xa7;" horiz-adv-x="1165" 
d="M1120 547q0 -193 -166 -299q52 -81 52 -185q0 -176 -122 -266t-311 -90q-212 0 -332 99t-135 270l338 63q6 -79 35 -108t74 -29q32 0 55 20t23 52q0 49 -84 82l-240 86q-266 99 -266 323q0 193 166 299q-51 80 -51 185q0 176 122 265t312 89q203 0 321 -97
q119 -98 131 -257l-340 -62q-8 123 -94 123q-33 0 -55 -19q-23 -20 -23 -53q0 -49 84 -82l240 -86q266 -96 266 -323zM713 426l16 -6q41 30 41 74q0 53 -74 88l-247 104l-17 6q-41 -30 -41 -74q0 -53 74 -88z" />
    <glyph glyph-name="dieresis" unicode="&#xa8;" horiz-adv-x="1228" 
d="M365 1536q92 0 153 -61q62 -62 62 -148q0 -88 -61 -149q-60 -60 -154 -60t-154 60q-59 59 -59 149q0 87 60 148t153 61zM864 1536q93 0 154 -61t61 -148q0 -89 -60 -149t-155 -60q-93 0 -153 60t-60 149q0 85 61 148q60 61 152 61z" />
    <glyph glyph-name="copyright" unicode="&#xa9;" horiz-adv-x="1550" 
d="M774 1403q298 0 507 -205q210 -206 210 -514q0 -309 -209 -512t-508 -203q-298 0 -509 203q-210 202 -210 512q0 308 210 513q211 206 509 206zM774 1288q-247 0 -419 -172q-173 -173 -173 -432q0 -258 173 -428t419 -170q245 0 418 170q172 169 172 428t-172 431
q-173 173 -418 173zM788 1069q151 0 254 -86t107 -213l-223 -39q-11 51 -49 81q-39 30 -95 30q-64 0 -107 -45q-44 -46 -44 -113q0 -68 44 -112t107 -44q54 0 96 31q40 30 48 90l227 -39q-7 -133 -111 -223q-101 -88 -254 -88q-163 0 -280 108t-117 277q0 170 117 278
q116 107 280 107z" />
    <glyph glyph-name="ordfeminine" unicode="&#xaa;" horiz-adv-x="800" 
d="M414 1384q161 0 257 -74q97 -75 97 -225v-417h-287v41q-77 -62 -188 -62q-114 0 -187 64q-71 62 -71 166q0 103 85 163q86 60 238 60h123v20q2 28 -15 43q-19 17 -48 17q-49 0 -70 -47l-266 45q60 206 332 206zM395 831q39 0 63 24q23 23 23 65v30h-80q-73 0 -73 -57
q0 -29 18 -45q19 -17 49 -17z" />
    <glyph glyph-name="guillemotleft" unicode="&#xab;" horiz-adv-x="1136" 
d="M51 537l195 364h368l-194 -364l194 -365h-368zM522 537l195 364h368l-194 -364l194 -365h-368z" />
    <glyph glyph-name="registered" unicode="&#xae;" horiz-adv-x="956" 
d="M477 1403q173 0 291 -117q119 -117 119 -295q0 -176 -119 -293q-117 -116 -291 -116t-291 116q-118 117 -118 293q0 178 118 295t291 117zM477 678q131 0 222 90q92 90 92 223q0 137 -92 229q-91 91 -222 91q-127 0 -218 -91t-91 -229q0 -133 91 -223t218 -90zM657 1061
q0 -85 -73 -119l92 -121h-129l-78 105h-35v-105h-110v367h188q70 0 108 -36q37 -36 37 -91zM434 1016h70q51 0 51 43q0 39 -51 39h-70v-82z" />
    <glyph glyph-name="macron" unicode="&#xaf;" horiz-adv-x="1228" 
d="M975 1163h-721v303h721v-303z" />
    <glyph glyph-name="degree" unicode="&#xb0;" horiz-adv-x="911" 
d="M457 1403q142 0 240 -91q100 -92 100 -237q0 -144 -100 -236q-98 -91 -240 -91q-143 0 -241 91q-99 91 -99 236t99 237q98 91 241 91zM457 956q45 0 80 33q34 33 34 86t-34 86q-35 33 -80 33t-80 -33t-35 -86t35 -86t80 -33z" />
    <glyph glyph-name="plusminus" unicode="&#xb1;" horiz-adv-x="1153" 
d="M1081 1006v-312h-348v-272h-313v272h-348v312h348v313h313v-313h348zM72 313h1009v-313h-1009v313z" />
    <glyph glyph-name="acute" unicode="&#xb4;" horiz-adv-x="1228" 
d="M713 1161h-385l159 336h496z" />
    <glyph glyph-name="paragraph" unicode="&#xb6;" horiz-adv-x="1269" 
d="M831 0h-260v612h-102q-184 0 -307 106q-121 105 -121 281q0 182 107 277q108 96 292 96h391v-1372zM1186 0h-258v1372h258v-1372z" />
    <glyph glyph-name="periodcentered" unicode="&#xb7;" horiz-adv-x="530" 
d="M264 768q96 0 162 -68t66 -157q0 -96 -65 -161t-163 -65q-99 0 -162 65q-63 64 -63 161q0 93 64 158q65 67 161 67z" />
    <glyph glyph-name="cedilla" unicode="&#xb8;" horiz-adv-x="1228" 
d="M530 0h291l-84 -328h-422z" />
    <glyph glyph-name="ordmasculine" unicode="&#xba;" horiz-adv-x="854" 
d="M426 1384q168 0 281 -104q114 -105 114 -266q0 -162 -114 -264q-115 -103 -281 -103q-164 0 -279 103q-114 102 -114 264q0 161 114 266q113 104 279 104zM426 895q49 0 81 35t32 84q0 51 -32 86t-81 35q-50 0 -80 -35q-31 -36 -31 -86q0 -48 31 -84q30 -35 80 -35z" />
    <glyph glyph-name="guillemotright" unicode="&#xbb;" horiz-adv-x="1136" 
d="M51 172l195 365l-195 364h369l194 -364l-194 -365h-369zM522 172l195 365l-195 364h369l194 -364l-194 -365h-369z" />
    <glyph glyph-name="onequarter" unicode="&#xbc;" horiz-adv-x="1570" 
d="M201 1053l-176 -92v253l264 158h176v-794h-264v475zM1366 1372l-971 -1372h-213l971 1372h213zM1544 115h-94v-115h-246v115h-403v237l342 443h307v-467h94v-213zM1204 328v207l-155 -207h155z" />
    <glyph glyph-name="onehalf" unicode="&#xbd;" horiz-adv-x="1636" 
d="M201 1053l-176 -92v253l264 158h176v-794h-264v475zM1341 1372l-970 -1372h-213l972 1372h211zM1321 219h231v-221h-620v160l280 260l13 12q67 61 73 92l2 15q0 25 -15 40t-42 15q-69 0 -69 -98l-246 45q0 121 86 198q85 76 229 76q138 0 226 -74q87 -74 87 -202
q0 -77 -37 -130q-38 -55 -116 -118z" />
    <glyph glyph-name="threequarters" unicode="&#xbe;" horiz-adv-x="1701" 
d="M686 825q0 -111 -92 -188q-91 -76 -236 -76q-134 0 -223 71q-87 69 -102 187l239 45q22 -90 90 -90q33 0 53 17q19 16 19 43t-22 42t-60 15h-92v180h86q38 0 60 15t22 42t-19 42q-21 16 -53 16q-69 0 -80 -86l-239 45q12 103 101 175q90 73 216 73q139 0 230 -73
q90 -72 90 -183q0 -94 -92 -150q104 -56 104 -162zM1495 1372l-973 -1372h-211l971 1372h213zM1677 115h-94v-115h-246v115h-403v237l342 443h307v-467h94v-213zM1337 328v207l-155 -207h155z" />
    <glyph glyph-name="questiondown" unicode="&#xbf;" horiz-adv-x="1138" 
d="M582 637q-97 0 -162 64q-66 65 -66 153q0 92 65 154q64 61 163 61t161 -61q64 -62 64 -154q0 -88 -65 -153q-64 -64 -160 -64zM680 139l414 -82q-39 -179 -181 -291t-385 -112q-220 0 -356 126q-137 126 -137 312q0 142 89 242q86 97 247 141v90h407v-344h-176
q-70 0 -110 -27q-41 -27 -41 -75q0 -50 29 -79q30 -30 77 -30q51 0 84 35t39 94z" />
    <glyph glyph-name="Agrave" unicode="&#xc0;" horiz-adv-x="1562" 
d="M606 1497l-270 336h495l160 -336h-385zM1563 0h-453l-66 186h-526l-65 -186h-453l543 1372h477zM920 537l-138 391l-139 -391h277z" />
    <glyph glyph-name="Aacute" unicode="&#xc1;" horiz-adv-x="1562" 
d="M971 1497h-385l159 336h496zM1563 0h-453l-66 186h-526l-65 -186h-453l543 1372h477zM920 537l-138 391l-139 -391h277z" />
    <glyph glyph-name="Acircumflex" unicode="&#xc2;" horiz-adv-x="1562" 
d="M717 1495h-389l241 338h428l242 -338h-387l-68 96zM1563 0h-453l-66 186h-526l-65 -186h-453l543 1372h477zM920 537l-138 391l-139 -391h277z" />
    <glyph glyph-name="Atilde" unicode="&#xc3;" horiz-adv-x="1562" 
d="M696 1563q-29 0 -45 -13q-12 -9 -28 -47h-226q0 172 74 275q73 102 186 102q68 0 140 -36t104 -36q30 0 46 14q17 15 28 50h225q0 -172 -74 -275q-74 -102 -188 -102q-69 0 -137 34t-105 34zM1563 0h-453l-66 186h-526l-65 -186h-453l543 1372h477zM920 537l-138 391
l-139 -391h277z" />
    <glyph glyph-name="Adieresis" unicode="&#xc4;" horiz-adv-x="1562" 
d="M532 1454q-94 0 -153 59q-60 60 -60 150q0 84 61 147q60 62 152 62t154 -62t62 -147q0 -89 -61 -150q-59 -59 -155 -59zM1032 1454q-94 0 -153 59q-60 60 -60 150q0 84 61 147q60 62 152 62t154 -62q61 -61 61 -147q0 -90 -60 -150q-59 -59 -155 -59zM1563 0h-453
l-66 186h-526l-65 -186h-453l543 1372h477zM920 537l-138 391l-139 -391h277z" />
    <glyph glyph-name="Aring" unicode="&#xc5;" horiz-adv-x="1562" 
d="M782 1446q-119 0 -199 79q-81 79 -81 193t81 194q80 79 199 79q120 0 200 -79q81 -80 81 -194t-81 -193q-80 -79 -200 -79zM782 1798q-34 0 -57 -23q-25 -25 -25 -57q0 -29 25 -54q24 -24 57 -24q34 0 58 24t24 54q0 33 -24 57q-23 23 -58 23zM1563 0h-453l-66 186h-526
l-65 -186h-453l543 1372h477zM920 537l-138 391l-139 -391h277z" />
    <glyph glyph-name="AE" unicode="&#xc6;" horiz-adv-x="2158" 
d="M2097 350v-350h-1106v180h-397l-94 -180h-500l815 1372h1272v-350h-672v-178h617v-316h-617v-178h682zM991 528v412l-215 -412h215z" />
    <glyph glyph-name="Ccedilla" unicode="&#xc7;" horiz-adv-x="1568" 
d="M1090 588l423 -82q-39 -220 -194 -360q-156 -141 -395 -169l-78 -305h-422l207 316q-252 56 -413 248q-161 193 -161 450q0 300 215 509q214 208 527 208q267 0 467 -143t245 -379l-424 -82q-27 107 -101 166t-187 59q-135 0 -226 -97q-92 -98 -92 -241t92 -241
q91 -97 226 -97q109 0 186 63t105 177z" />
    <glyph glyph-name="Egrave" unicode="&#xc8;" horiz-adv-x="1253" 
d="M457 1497l-271 336h496l160 -336h-385zM1190 350v-350h-1106v1372h1096v-350h-672v-178h616v-316h-616v-178h682z" />
    <glyph glyph-name="Eacute" unicode="&#xc9;" horiz-adv-x="1253" 
d="M823 1497h-385l160 336h496zM1190 350v-350h-1106v1372h1096v-350h-672v-178h616v-316h-616v-178h682z" />
    <glyph glyph-name="Ecircumflex" unicode="&#xca;" horiz-adv-x="1253" 
d="M567 1495h-389l242 338h428l242 -338h-388l-67 96zM1190 350v-350h-1106v1372h1096v-350h-672v-178h616v-316h-616v-178h682z" />
    <glyph glyph-name="Edieresis" unicode="&#xcb;" horiz-adv-x="1253" 
d="M385 1454q-95 0 -154 59t-59 150q0 85 60 147t153 62q92 0 154 -62q61 -61 61 -147q0 -90 -60 -150q-59 -59 -155 -59zM885 1454q-95 0 -154 59t-59 150q0 85 60 147t153 62q91 0 153 -62t62 -147q0 -89 -61 -150q-59 -59 -154 -59zM1190 350v-350h-1106v1372h1096v-350
h-672v-178h616v-316h-616v-178h682z" />
    <glyph glyph-name="Igrave" unicode="&#xcc;" horiz-adv-x="591" 
d="M344 1833l160 -336h-385l-271 336h496zM508 0h-424v1372h424v-1372z" />
    <glyph glyph-name="Iacute" unicode="&#xcd;" horiz-adv-x="591" 
d="M485 1497h-385l160 336h496zM508 0h-424v1372h424v-1372z" />
    <glyph glyph-name="Icircumflex" unicode="&#xce;" horiz-adv-x="591" 
d="M229 1495h-389l242 338h428l242 -338h-387l-68 96zM84 1372h424v-1372h-424v1372z" />
    <glyph glyph-name="Idieresis" unicode="&#xcf;" horiz-adv-x="591" 
d="M47 1872q92 0 154 -62q61 -61 61 -147q0 -90 -60 -150q-59 -59 -155 -59q-94 0 -153 59q-60 60 -60 150q0 84 61 147q60 62 152 62zM547 1872q91 0 153 -62t62 -147q0 -89 -61 -150q-59 -59 -154 -59t-154 59t-59 150q0 85 60 147t153 62zM508 0h-424v1372h424v-1372z
" />
    <glyph glyph-name="Eth" unicode="&#xd0;" horiz-adv-x="1497" 
d="M117 1372h598q335 0 540 -190t205 -496t-205 -496t-540 -190h-598v504h-90v358h90v510zM541 352h139q160 0 257 93t97 241t-97 241q-98 93 -257 93h-139v-158h170v-358h-170v-152z" />
    <glyph glyph-name="Ntilde" unicode="&#xd1;" horiz-adv-x="1536" 
d="M684 1563q-29 0 -45 -13q-13 -11 -29 -47h-225q0 172 74 275q73 102 186 102q67 0 139 -36t105 -36q30 0 46 14q17 15 28 50h225q0 -172 -74 -275q-74 -102 -188 -102q-70 0 -138 34t-104 34zM1452 1372v-1372h-346l-598 662v-662h-424v1372h348l598 -688v688h422z" />
    <glyph glyph-name="Ograve" unicode="&#xd2;" horiz-adv-x="1599" 
d="M623 1497l-271 336h496l160 -336h-385zM801 1403q312 0 527 -208q216 -209 216 -509t-216 -509q-215 -208 -527 -208q-315 0 -529 208q-215 209 -215 509t215 509q214 208 529 208zM801 348q139 0 228 96q89 97 89 242t-89 242q-89 96 -228 96q-140 0 -230 -96t-90 -242
t90 -242t230 -96z" />
    <glyph glyph-name="Oacute" unicode="&#xd3;" horiz-adv-x="1599" 
d="M987 1497h-385l160 336h495zM801 1403q312 0 527 -208q216 -209 216 -509t-216 -509q-215 -208 -527 -208q-315 0 -529 208q-215 209 -215 509t215 509q214 208 529 208zM801 348q139 0 228 96q89 97 89 242t-89 242q-89 96 -228 96q-140 0 -230 -96t-90 -242t90 -242
t230 -96z" />
    <glyph glyph-name="Ocircumflex" unicode="&#xd4;" horiz-adv-x="1599" 
d="M733 1495h-389l242 338h428l241 -338h-387l-67 96zM801 1403q312 0 527 -208q216 -209 216 -509t-216 -509q-215 -208 -527 -208q-315 0 -529 208q-215 209 -215 509t215 509q214 208 529 208zM801 348q139 0 228 96q89 97 89 242t-89 242q-89 96 -228 96
q-140 0 -230 -96t-90 -242t90 -242t230 -96z" />
    <glyph glyph-name="Otilde" unicode="&#xd5;" horiz-adv-x="1599" 
d="M713 1563q-29 0 -45 -13q-13 -11 -29 -47h-225q0 174 73 275q73 102 187 102q67 0 139 -36t105 -36q30 0 46 14q15 14 27 50h226q0 -172 -74 -275q-73 -102 -189 -102q-69 0 -137 34t-104 34zM801 1403q312 0 527 -208q216 -209 216 -509t-216 -509q-215 -208 -527 -208
q-315 0 -529 208q-215 209 -215 509t215 509q214 208 529 208zM801 348q139 0 228 96q89 97 89 242t-89 242q-89 96 -228 96q-140 0 -230 -96t-90 -242t90 -242t230 -96z" />
    <glyph glyph-name="Odieresis" unicode="&#xd6;" horiz-adv-x="1599" 
d="M551 1454q-95 0 -154 59t-59 150q0 85 60 147t153 62q92 0 154 -62q61 -61 61 -147q0 -90 -60 -150q-59 -59 -155 -59zM1051 1454q-95 0 -154 59t-59 150q0 85 60 147t153 62q91 0 153 -62t62 -147q0 -89 -61 -150q-59 -59 -154 -59zM801 1403q312 0 527 -208
q216 -209 216 -509t-216 -509q-215 -208 -527 -208q-315 0 -529 208q-215 209 -215 509t215 509q214 208 529 208zM801 348q139 0 228 96q89 97 89 242t-89 242q-89 96 -228 96q-140 0 -230 -96t-90 -242t90 -242t230 -96z" />
    <glyph glyph-name="multiply" unicode="&#xd7;" horiz-adv-x="1097" 
d="M768 616l264 -262l-219 -219l-264 262l-264 -262l-217 219l262 262l-262 263l217 219l264 -262l264 262l219 -219z" />
    <glyph glyph-name="Oslash" unicode="&#xd8;" horiz-adv-x="1599" 
d="M1518 1212l-109 -108q135 -184 135 -418q0 -300 -216 -509q-215 -208 -527 -208q-225 0 -410 117l-137 -137l-172 172l127 127q-152 191 -152 438q0 300 215 509q214 208 529 208q237 0 434 -131l111 110zM481 686q0 -72 27 -141l442 442q-65 37 -149 37q-140 0 -230 -96
t-90 -242zM801 348q139 0 228 96q89 97 89 242q0 65 -14 111l-426 -424q58 -25 123 -25z" />
    <glyph glyph-name="Ugrave" unicode="&#xd9;" horiz-adv-x="1466" 
d="M555 1497l-270 336h495l160 -336h-385zM1376 1372v-749q0 -303 -174 -478q-174 -176 -461 -176q-294 0 -473 176q-178 175 -178 478v749h426v-749q0 -130 62 -203q61 -72 163 -72q95 0 153 73q56 71 56 202v749h426z" />
    <glyph glyph-name="Uacute" unicode="&#xda;" horiz-adv-x="1466" 
d="M920 1497h-385l159 336h496zM1376 1372v-749q0 -303 -174 -478q-174 -176 -461 -176q-294 0 -473 176q-178 175 -178 478v749h426v-749q0 -130 62 -203q61 -72 163 -72q95 0 153 73q56 71 56 202v749h426z" />
    <glyph glyph-name="Ucircumflex" unicode="&#xdb;" horiz-adv-x="1466" 
d="M666 1495h-390l242 338h428l242 -338h-387l-68 96zM1376 1372v-749q0 -303 -174 -478q-174 -176 -461 -176q-294 0 -473 176q-178 175 -178 478v749h426v-749q0 -130 62 -203q61 -72 163 -72q95 0 153 73q56 71 56 202v749h426z" />
    <glyph glyph-name="Udieresis" unicode="&#xdc;" horiz-adv-x="1466" 
d="M483 1454q-94 0 -153 59q-60 60 -60 150q0 84 61 147q60 62 152 62t154 -62q61 -61 61 -147q0 -90 -60 -150q-59 -59 -155 -59zM983 1454q-95 0 -154 59t-59 150q0 85 60 147t153 62q92 0 154 -62q61 -61 61 -147q0 -90 -60 -150q-59 -59 -155 -59zM1376 1372v-749
q0 -303 -174 -478q-174 -176 -461 -176q-294 0 -473 176q-178 175 -178 478v749h426v-749q0 -130 62 -203q61 -72 163 -72q95 0 153 73q56 71 56 202v749h426z" />
    <glyph glyph-name="Yacute" unicode="&#xdd;" horiz-adv-x="1492" 
d="M934 1497h-385l160 336h495zM1489 1372l-531 -956v-416h-442v416l-512 956h463l281 -534l276 534h465z" />
    <glyph glyph-name="Thorn" unicode="&#xde;" horiz-adv-x="1337" 
d="M508 1167h266q231 0 373 -131q141 -130 141 -344q0 -220 -150 -353q-151 -134 -397 -134h-233v-205h-424v1372h424v-205zM508 532h205q73 0 117 41t44 109q0 63 -44 102t-117 39h-205v-291z" />
    <glyph glyph-name="germandbls" unicode="&#xdf;" horiz-adv-x="1376" 
d="M1040 780q132 -33 215 -129q82 -95 82 -239q0 -192 -129 -317q-128 -124 -338 -124q-135 0 -282 25l39 336q102 -17 147 -17q65 0 109 38q43 37 43 96q0 61 -49 101t-132 40h-96v328h53q63 0 101 35q39 36 39 91q0 62 -42 98t-110 36q-85 0 -140 -58q-54 -57 -54 -151
v-969h-412v938q0 259 167 415t439 156q247 0 405 -116t158 -303q0 -118 -59 -201q-61 -85 -154 -109z" />
    <glyph glyph-name="agrave" unicode="&#xe0;" horiz-adv-x="1325" 
d="M512 1161l-270 336h495l160 -336h-385zM1241 1038v-1038h-412v84q-112 -115 -292 -115q-219 0 -360 153q-140 152 -140 396q0 246 140 398q141 153 360 153q180 0 292 -115v84h412zM637 311q84 0 138 60t54 147q0 89 -54 149t-138 60q-83 0 -136 -60q-52 -59 -52 -149
q0 -88 52 -147q53 -60 136 -60z" />
    <glyph glyph-name="aacute" unicode="&#xe1;" horiz-adv-x="1325" 
d="M879 1161h-385l159 336h496zM1241 1038v-1038h-412v84q-112 -115 -292 -115q-219 0 -360 153q-140 152 -140 396q0 246 140 398q141 153 360 153q180 0 292 -115v84h412zM637 311q84 0 138 60t54 147q0 89 -54 149t-138 60q-83 0 -136 -60q-52 -59 -52 -149
q0 -88 52 -147q53 -60 136 -60z" />
    <glyph glyph-name="acircumflex" unicode="&#xe2;" horiz-adv-x="1325" 
d="M623 1159h-390l242 338h428l242 -338h-387l-68 96zM1241 1038v-1038h-412v84q-112 -115 -292 -115q-219 0 -360 153q-140 152 -140 396q0 246 140 398q141 153 360 153q180 0 292 -115v84h412zM637 311q84 0 138 60t54 147q0 89 -54 149t-138 60q-83 0 -136 -60
q-52 -59 -52 -149q0 -88 52 -147q53 -60 136 -60z" />
    <glyph glyph-name="atilde" unicode="&#xe3;" horiz-adv-x="1325" 
d="M604 1227q-29 0 -45 -13q-13 -11 -29 -47h-225q0 172 74 275q73 102 186 102q70 0 142 -36q70 -35 102 -35t46 13q17 15 28 50h225q0 -171 -74 -274t-188 -103q-69 0 -137 34t-105 34zM1241 1038v-1038h-412v84q-112 -115 -292 -115q-219 0 -360 153q-140 152 -140 396
q0 246 140 398q141 153 360 153q180 0 292 -115v84h412zM637 311q84 0 138 60t54 147q0 89 -54 149t-138 60q-83 0 -136 -60q-52 -59 -52 -149q0 -88 52 -147q53 -60 136 -60z" />
    <glyph glyph-name="adieresis" unicode="&#xe4;" horiz-adv-x="1325" 
d="M440 1118q-93 0 -153 60t-60 149q0 85 61 148q60 61 152 61q93 0 154 -61t61 -148q0 -89 -60 -149t-155 -60zM940 1118q-94 0 -154 60q-59 59 -59 149q0 87 60 148t153 61t154 -61t61 -148q0 -89 -60 -149t-155 -60zM1241 1038v-1038h-412v84q-112 -115 -292 -115
q-219 0 -360 153q-140 152 -140 396q0 246 140 398q141 153 360 153q180 0 292 -115v84h412zM637 311q84 0 138 60t54 147q0 89 -54 149t-138 60q-83 0 -136 -60q-52 -59 -52 -149q0 -88 52 -147q53 -60 136 -60z" />
    <glyph glyph-name="aring" unicode="&#xe5;" horiz-adv-x="1325" 
d="M690 1110q-120 0 -200 79t-80 193q0 115 80 194t200 79t200 -79q81 -79 81 -194q0 -114 -81 -193q-80 -79 -200 -79zM690 1462q-34 0 -57 -23q-25 -25 -25 -57q0 -29 25 -54q23 -23 57 -23q35 0 58 23q24 24 24 54q0 33 -24 57q-23 23 -58 23zM1241 1038v-1038h-412v84
q-112 -115 -292 -115q-219 0 -360 153q-140 152 -140 396q0 246 140 398q141 153 360 153q180 0 292 -115v84h412zM637 311q84 0 138 60t54 147q0 89 -54 149t-138 60q-83 0 -136 -60q-52 -59 -52 -149q0 -88 52 -147q53 -60 136 -60z" />
    <glyph glyph-name="ae" unicode="&#xe6;" horiz-adv-x="1818" 
d="M1782 416h-713q38 -137 172 -137q113 0 156 96l354 -74q-40 -149 -181 -240q-143 -92 -331 -92q-204 0 -358 115q-153 -115 -402 -115q-217 0 -335 87q-117 86 -117 247q0 154 115 233q113 78 337 78h221v60q0 45 -28 72q-30 28 -76 28q-96 0 -111 -96l-383 78
q27 136 155 225q127 88 339 88q202 0 330 -86q140 86 311 86q244 0 395 -154q150 -153 150 -430v-69zM1067 614h319q-29 140 -151 140q-133 0 -168 -140zM698 410h-131q-118 0 -118 -78q0 -40 29 -62t77 -22q57 0 100 33t43 88v41z" />
    <glyph glyph-name="ccedilla" unicode="&#xe7;" horiz-adv-x="1198" 
d="M784 467l377 -68q-27 -161 -138 -272q-110 -110 -275 -145l-80 -310h-422l209 318q-183 46 -301 188q-117 141 -117 340q0 242 168 396q169 155 411 155q207 0 360 -117t183 -307l-375 -74q-15 75 -59 114q-44 40 -109 40q-82 0 -133 -60t-51 -147q0 -85 51 -145t133 -60
q65 0 109 40q44 39 59 114z" />
    <glyph glyph-name="egrave" unicode="&#xe8;" horiz-adv-x="1187" 
d="M432 1161l-270 336h495l160 -336h-385zM1153 487v-67h-715q38 -141 170 -141q121 0 166 94l365 -72q-62 -164 -200 -248t-331 -84q-237 0 -405 154q-166 153 -166 395t165 396q166 155 404 155q246 0 396 -153q151 -154 151 -429zM606 754q-122 0 -166 -119h320
q-18 57 -60 88t-94 31z" />
    <glyph glyph-name="eacute" unicode="&#xe9;" horiz-adv-x="1187" 
d="M797 1161h-385l159 336h496zM1153 487v-67h-715q38 -141 170 -141q121 0 166 94l365 -72q-62 -164 -200 -248t-331 -84q-237 0 -405 154q-166 153 -166 395t165 396q166 155 404 155q246 0 396 -153q151 -154 151 -429zM606 754q-122 0 -166 -119h320q-18 57 -60 88
t-94 31z" />
    <glyph glyph-name="ecircumflex" unicode="&#xea;" horiz-adv-x="1187" 
d="M543 1159h-389l241 338h428l242 -338h-387l-68 96zM1153 487v-67h-715q38 -141 170 -141q121 0 166 94l365 -72q-62 -164 -200 -248t-331 -84q-237 0 -405 154q-166 153 -166 395t165 396q166 155 404 155q246 0 396 -153q151 -154 151 -429zM606 754q-122 0 -166 -119
h320q-18 57 -60 88t-94 31z" />
    <glyph glyph-name="edieresis" unicode="&#xeb;" horiz-adv-x="1187" 
d="M358 1118q-93 0 -153 60t-60 149q0 85 61 148q60 61 152 61q93 0 154 -61t61 -148q0 -89 -60 -149t-155 -60zM858 1118q-93 0 -153 60t-60 149q0 85 61 148q60 61 152 61q93 0 154 -61t61 -148q0 -89 -60 -149t-155 -60zM1153 487v-67h-715q38 -141 170 -141
q121 0 166 94l365 -72q-62 -164 -200 -248t-331 -84q-237 0 -405 154q-166 153 -166 395t165 396q166 155 404 155q246 0 396 -153q151 -154 151 -429zM606 754q-122 0 -166 -119h320q-18 57 -60 88t-94 31z" />
    <glyph glyph-name="igrave" unicode="&#xec;" horiz-adv-x="612" 
d="M354 1497l160 -336h-385l-270 336h495zM512 0h-412v1038h412v-1038z" />
    <glyph glyph-name="iacute" unicode="&#xed;" horiz-adv-x="612" 
d="M496 1161h-385l159 336h496zM512 0h-412v1038h412v-1038z" />
    <glyph glyph-name="icircumflex" unicode="&#xee;" horiz-adv-x="612" 
d="M240 1159h-390l242 338h428l242 -338h-387l-68 96zM100 1038h412v-1038h-412v1038z" />
    <glyph glyph-name="idieresis" unicode="&#xef;" horiz-adv-x="612" 
d="M57 1536q93 0 154 -61t61 -148q0 -89 -60 -149t-155 -60q-93 0 -153 60t-60 149q0 85 61 148q60 61 152 61zM557 1536q93 0 154 -61t61 -148q0 -89 -60 -149t-155 -60q-94 0 -154 60q-59 59 -59 149q0 87 60 148t153 61zM512 0h-412v1038h412v-1038z" />
    <glyph glyph-name="eth" unicode="&#xf0;" horiz-adv-x="1243" 
d="M1010 1329l-129 -49q325 -368 325 -758q0 -144 -52 -254q-52 -109 -138 -173q-84 -62 -185 -94t-204 -32q-245 0 -418 153q-172 153 -172 396q0 244 147 397q148 154 373 154q53 0 96 -14q-67 62 -110 96l-267 -102l-71 168l141 55q-107 55 -276 125v78h606q8 -5 63 -52
l199 76zM623 311q83 0 136 64q52 62 52 147q0 86 -54 146q-53 59 -134 59q-85 0 -138 -60q-53 -61 -53 -149q0 -86 54 -146q55 -61 137 -61z" />
    <glyph glyph-name="ntilde" unicode="&#xf1;" horiz-adv-x="1271" 
d="M551 1227q-29 0 -45 -13q-13 -11 -29 -47h-225q0 172 74 275q74 102 186 102q69 0 141 -36q70 -35 103 -35q32 0 46 13q15 14 27 50h226q0 -171 -74 -274t-188 -103q-70 0 -138 34t-104 34zM803 1069q175 0 280 -114t105 -310v-645h-412v557q0 66 -37 106q-36 39 -94 39
q-69 0 -109 -49t-40 -139v-514h-412v1038h412v-108q127 139 307 139z" />
    <glyph glyph-name="ograve" unicode="&#xf2;" horiz-adv-x="1243" 
d="M444 1161l-270 336h496l159 -336h-385zM623 1067q242 0 413 -154q170 -153 170 -395t-170 -395q-171 -154 -413 -154q-245 0 -416 154q-170 153 -170 395t170 395q171 154 416 154zM623 311q79 0 134 61q54 60 54 146q0 89 -54 149t-134 60q-83 0 -137 -60t-54 -149
q0 -86 54 -146q55 -61 137 -61z" />
    <glyph glyph-name="oacute" unicode="&#xf3;" horiz-adv-x="1243" 
d="M811 1161h-385l160 336h495zM623 1067q242 0 413 -154q170 -153 170 -395t-170 -395q-171 -154 -413 -154q-245 0 -416 154q-170 153 -170 395t170 395q171 154 416 154zM623 311q79 0 134 61q54 60 54 146q0 89 -54 149t-134 60q-83 0 -137 -60t-54 -149q0 -86 54 -146
q55 -61 137 -61z" />
    <glyph glyph-name="ocircumflex" unicode="&#xf4;" horiz-adv-x="1243" 
d="M555 1159h-389l242 338h428l241 -338h-387l-67 96zM623 1067q242 0 413 -154q170 -153 170 -395t-170 -395q-171 -154 -413 -154q-245 0 -416 154q-170 153 -170 395t170 395q171 154 416 154zM623 311q79 0 134 61q54 60 54 146q0 89 -54 149t-134 60q-83 0 -137 -60
t-54 -149q0 -86 54 -146q55 -61 137 -61z" />
    <glyph glyph-name="otilde" unicode="&#xf5;" horiz-adv-x="1243" 
d="M537 1227q-29 0 -45 -13q-13 -11 -29 -47h-225q0 174 73 275q73 102 187 102q67 0 139 -36q70 -35 104 -35q32 0 46 13q17 15 28 50h225q0 -173 -73 -274q-74 -103 -189 -103q-69 0 -137 34t-104 34zM623 1067q242 0 413 -154q170 -153 170 -395t-170 -395
q-171 -154 -413 -154q-245 0 -416 154q-170 153 -170 395t170 395q171 154 416 154zM623 311q79 0 134 61q54 60 54 146q0 89 -54 149t-134 60q-83 0 -137 -60t-54 -149q0 -86 54 -146q55 -61 137 -61z" />
    <glyph glyph-name="odieresis" unicode="&#xf6;" horiz-adv-x="1243" 
d="M373 1118q-94 0 -154 60q-59 59 -59 149q0 87 60 148t153 61q92 0 153 -61q62 -62 62 -148q0 -88 -61 -149q-60 -60 -154 -60zM872 1118q-93 0 -153 60t-60 149q0 85 61 148q60 61 152 61q93 0 154 -61t61 -148q0 -89 -60 -149t-155 -60zM623 1067q242 0 413 -154
q170 -153 170 -395t-170 -395q-171 -154 -413 -154q-245 0 -416 154q-170 153 -170 395t170 395q171 154 416 154zM623 311q79 0 134 61q54 60 54 146q0 89 -54 149t-134 60q-83 0 -137 -60t-54 -149q0 -86 54 -146q55 -61 137 -61z" />
    <glyph glyph-name="divide" unicode="&#xf7;" horiz-adv-x="1153" 
d="M575 1262q83 0 137 -57t54 -134q0 -81 -54 -133q-55 -53 -137 -53t-135 53t-53 133q0 76 53 134q52 57 135 57zM1081 512h-1009v311h1009v-311zM575 453q83 0 137 -57t54 -134q0 -80 -54 -133q-55 -53 -137 -53t-135 53t-53 133q0 76 53 134q52 57 135 57z" />
    <glyph glyph-name="oslash" unicode="&#xf8;" horiz-adv-x="1243" 
d="M1188 952l-96 -96q114 -144 114 -338q0 -242 -170 -395q-171 -154 -413 -154q-181 0 -330 88l-117 -116l-131 131l109 108q-117 144 -117 338q0 242 170 395q171 154 416 154q180 0 327 -90l107 106zM432 518q0 -29 6 -53l250 250q-30 12 -65 12q-83 0 -137 -60t-54 -149
zM623 311q79 0 134 61q54 60 54 146q0 22 -4 51l-248 -245q33 -13 64 -13z" />
    <glyph glyph-name="ugrave" unicode="&#xf9;" horiz-adv-x="1271" 
d="M459 1161l-271 336h496l160 -336h-385zM1188 1036v-1038h-412v108q-127 -139 -307 -139q-176 0 -281 114q-104 113 -104 310v645h412v-557q0 -66 36 -105q37 -40 95 -40q69 0 109 49t40 139v514h412z" />
    <glyph glyph-name="uacute" unicode="&#xfa;" horiz-adv-x="1271" 
d="M825 1161h-385l160 336h496zM1188 1036v-1038h-412v108q-127 -139 -307 -139q-176 0 -281 114q-104 113 -104 310v645h412v-557q0 -66 36 -105q37 -40 95 -40q69 0 109 49t40 139v514h412z" />
    <glyph glyph-name="ucircumflex" unicode="&#xfb;" horiz-adv-x="1271" 
d="M569 1159h-389l242 338h428l242 -338h-387l-68 96zM1188 1036v-1038h-412v108q-127 -139 -307 -139q-176 0 -281 114q-104 113 -104 310v645h412v-557q0 -66 36 -105q37 -40 95 -40q69 0 109 49t40 139v514h412z" />
    <glyph glyph-name="udieresis" unicode="&#xfc;" horiz-adv-x="1271" 
d="M387 1118q-94 0 -154 60q-59 59 -59 149q0 87 60 148t153 61t154 -61t61 -148q0 -89 -60 -149t-155 -60zM887 1118q-94 0 -154 60q-59 59 -59 149q0 87 60 148t153 61q92 0 153 -61q62 -62 62 -148q0 -88 -61 -149q-60 -60 -154 -60zM1188 1036v-1038h-412v108
q-127 -139 -307 -139q-176 0 -281 114q-104 113 -104 310v645h412v-557q0 -66 36 -105q37 -40 95 -40q69 0 109 49t40 139v514h412z" />
    <glyph glyph-name="yacute" unicode="&#xfd;" horiz-adv-x="1298" 
d="M838 1161h-385l159 336h496zM1294 1038l-596 -1386h-432l168 387l-430 999h430l207 -520l223 520h430z" />
    <glyph glyph-name="thorn" unicode="&#xfe;" horiz-adv-x="1325" 
d="M788 1069q220 0 361 -153t141 -398q0 -243 -141 -396t-361 -153q-180 0 -292 117v-434h-412v1823h412v-523q112 117 292 117zM688 311q84 0 136 60q53 61 53 147q0 88 -53 149q-52 60 -136 60t-138 -60t-54 -149q0 -87 54 -147t138 -60z" />
    <glyph glyph-name="ydieresis" unicode="&#xff;" horiz-adv-x="1298" 
d="M399 1118q-93 0 -153 60t-60 149q0 85 61 148q60 61 152 61q93 0 154 -61t61 -148q0 -89 -60 -149t-155 -60zM899 1118q-94 0 -154 60q-59 59 -59 149q0 87 60 148t153 61t154 -61t61 -148q0 -89 -60 -149t-155 -60zM1294 1038l-596 -1386h-432l168 387l-430 999h430
l207 -520l223 520h430z" />
    <glyph glyph-name="Amacron" unicode="&#x100;" horiz-adv-x="1562" 
d="M1143 1499h-721v303h721v-303zM1563 0h-453l-66 186h-526l-65 -186h-453l543 1372h477zM920 537l-138 391l-139 -391h277z" />
    <glyph glyph-name="amacron" unicode="&#x101;" horiz-adv-x="1325" 
d="M1051 1163h-721v303h721v-303zM1241 1038v-1038h-412v84q-112 -115 -292 -115q-219 0 -360 153q-140 152 -140 396q0 246 140 398q141 153 360 153q180 0 292 -115v84h412zM637 311q84 0 138 60t54 147q0 89 -54 149t-138 60q-83 0 -136 -60q-52 -59 -52 -149
q0 -88 52 -147q53 -60 136 -60z" />
    <glyph glyph-name="Abreve" unicode="&#x102;" horiz-adv-x="1562" 
d="M782 1464q-174 0 -286 98q-111 98 -111 255h309q0 -32 24 -56t64 -24q42 0 66 24t24 56h308q0 -157 -111 -255q-112 -98 -287 -98zM1563 0h-453l-66 186h-526l-65 -186h-453l543 1372h477zM920 537l-138 391l-139 -391h277z" />
    <glyph glyph-name="abreve" unicode="&#x103;" horiz-adv-x="1325" 
d="M690 1128q-175 0 -287 98q-110 97 -110 255h309q0 -32 24 -56t64 -24q43 0 67 24q23 23 23 56h307q0 -158 -110 -255q-112 -98 -287 -98zM1241 1038v-1038h-412v84q-112 -115 -292 -115q-219 0 -360 153q-140 152 -140 396q0 246 140 398q141 153 360 153q180 0 292 -115
v84h412zM637 311q84 0 138 60t54 147q0 89 -54 149t-138 60q-83 0 -136 -60q-52 -59 -52 -149q0 -88 52 -147q53 -60 136 -60z" />
    <glyph glyph-name="Aogonek" unicode="&#x104;" horiz-adv-x="1562" 
d="M1616 -176l12 -219q-99 -51 -215 -51q-105 0 -170 55t-65 147q0 138 127 244h-195l-66 186h-526l-65 -186h-453l543 1372h477l543 -1372h-2q-3 -3 -11.5 -12t-13.5 -14l-22 -22q-3 -3 -17 -19q-2 -3 -4.5 -5.5l-4.5 -4.5t-3.5 -4t-2.5 -3q-2 -2 -6 -7t-6 -7t-3.5 -5
t-3 -5.5t-2.5 -3.5q-2 -3 -6 -11q-2 -4 -4 -12q-1 -4 -1 -12q0 -48 57 -48q39 0 109 19zM920 537l-138 391l-139 -391h277z" />
    <glyph glyph-name="aogonek" unicode="&#x105;" horiz-adv-x="1325" 
d="M1296 -176l13 -219q-99 -51 -215 -51q-105 0 -170 55q-66 55 -66 147q0 138 127 244h-156v84q-112 -115 -292 -115q-219 0 -360 153q-140 152 -140 396q0 246 140 398q141 153 360 153q180 0 292 -115v84h412v-1038q-3 -3 -11 -12t-13 -14l-22 -22q-3 -3 -17 -19
q-4 -4 -9 -9.5t-7 -7.5q-3 -4 -11 -14q-2 -2 -3.5 -5t-3 -5.5t-2.5 -3.5q-2 -3 -6 -11q-2 -4 -4 -12t-2 -12q0 -48 58 -48q38 0 108 19zM637 311q84 0 138 60t54 147q0 89 -54 149t-138 60q-83 0 -136 -60q-52 -59 -52 -149q0 -88 52 -147q53 -60 136 -60z" />
    <glyph glyph-name="Cacute" unicode="&#x106;" horiz-adv-x="1568" 
d="M987 1497h-385l160 336h495zM1090 588l423 -82q-44 -249 -234 -392q-193 -145 -480 -145q-313 0 -527 208q-215 209 -215 509t215 509q214 208 527 208q267 0 467 -143t245 -379l-424 -82q-27 107 -101 166t-187 59q-135 0 -226 -97q-92 -98 -92 -241t92 -241
q91 -97 226 -97q109 0 186 63t105 177z" />
    <glyph glyph-name="cacute" unicode="&#x107;" horiz-adv-x="1198" 
d="M805 1161h-385l160 336h495zM784 467l377 -68q-30 -193 -183 -312q-152 -118 -362 -118q-242 0 -411 154q-168 153 -168 395t168 396q169 155 411 155q207 0 360 -117t183 -307l-375 -74q-15 75 -59 114q-44 40 -109 40q-82 0 -133 -60t-51 -147q0 -85 51 -145t133 -60
q65 0 109 40q44 39 59 114z" />
    <glyph glyph-name="Cdotaccent" unicode="&#x10a;" horiz-adv-x="1568" 
d="M797 1466q-95 0 -159 62q-63 61 -63 155q0 90 64 154t158 64q95 0 159 -64t64 -154q0 -93 -64 -155t-159 -62zM1090 588l423 -82q-44 -249 -234 -392q-193 -145 -480 -145q-313 0 -527 208q-215 209 -215 509t215 509q214 208 527 208q267 0 467 -143t245 -379l-424 -82
q-27 107 -101 166t-187 59q-135 0 -226 -97q-92 -98 -92 -241t92 -241q91 -97 226 -97q109 0 186 63t105 177z" />
    <glyph glyph-name="cdotaccent" unicode="&#x10b;" horiz-adv-x="1198" 
d="M614 1130q-94 0 -158 62q-63 62 -63 156q0 89 64 153t157 64t159 -64q65 -63 65 -153q0 -94 -64 -156t-160 -62zM784 467l377 -68q-30 -193 -183 -312q-152 -118 -362 -118q-242 0 -411 154q-168 153 -168 395t168 396q169 155 411 155q207 0 360 -117t183 -307l-375 -74
q-15 75 -59 114q-44 40 -109 40q-82 0 -133 -60t-51 -147q0 -85 51 -145t133 -60q65 0 109 40q44 39 59 114z" />
    <glyph glyph-name="Ccaron" unicode="&#x10c;" horiz-adv-x="1568" 
d="M584 1495l-242 336h389l68 -96l67 96h387l-241 -336h-428zM1090 588l423 -82q-44 -249 -234 -392q-193 -145 -480 -145q-313 0 -527 208q-215 209 -215 509t215 509q214 208 527 208q267 0 467 -143t245 -379l-424 -82q-27 107 -101 166t-187 59q-135 0 -226 -97
q-92 -98 -92 -241t92 -241q91 -97 226 -97q109 0 186 63t105 177z" />
    <glyph glyph-name="ccaron" unicode="&#x10d;" horiz-adv-x="1198" 
d="M401 1159l-241 336h389l67 -96l68 96h387l-242 -336h-428zM784 467l377 -68q-30 -193 -183 -312q-152 -118 -362 -118q-242 0 -411 154q-168 153 -168 395t168 396q169 155 411 155q207 0 360 -117t183 -307l-375 -74q-15 75 -59 114q-44 40 -109 40q-82 0 -133 -60
t-51 -147q0 -85 51 -145t133 -60q65 0 109 40q44 39 59 114z" />
    <glyph glyph-name="Dcaron" unicode="&#x10e;" horiz-adv-x="1484" 
d="M506 1495l-242 336h389l68 -96l67 96h388l-242 -336h-428zM84 1372h598q337 0 542 -190q206 -191 206 -496t-206 -496q-205 -190 -542 -190h-598v1372zM508 352h139q159 0 257 93q97 93 97 241t-97 241q-98 93 -257 93h-139v-668z" />
    <glyph glyph-name="dcaron" unicode="&#x10f;" horiz-adv-x="1325" 
d="M829 1475h412v-1475h-412v84q-112 -115 -292 -115q-219 0 -360 153q-140 152 -140 396q0 246 140 398q141 153 360 153q180 0 292 -115v521zM1698 1475l-90 -410h-273v410h363zM637 311q84 0 138 60t54 147q0 89 -54 149t-138 60q-83 0 -136 -60q-52 -59 -52 -149
q0 -88 52 -147q53 -60 136 -60z" />
    <glyph glyph-name="Dcroat" unicode="&#x110;" horiz-adv-x="1497" 
d="M117 1372h598q335 0 540 -190t205 -496t-205 -496t-540 -190h-598v504h-90v358h90v510zM541 352h139q160 0 257 93t97 241t-97 241q-98 93 -257 93h-139v-158h170v-358h-170v-152z" />
    <glyph glyph-name="dcroat" unicode="&#x111;" horiz-adv-x="1341" 
d="M1313 1098h-72v-1098h-412v84q-112 -115 -292 -115q-219 0 -360 153q-140 152 -140 396q0 246 140 398q141 153 360 153q180 0 292 -115v144h-241v286h241v91h412v-91h72v-286zM637 311q84 0 138 60t54 147q0 89 -54 149t-138 60q-83 0 -136 -60q-52 -59 -52 -149
q0 -88 52 -147q53 -60 136 -60z" />
    <glyph glyph-name="Emacron" unicode="&#x112;" horiz-adv-x="1253" 
d="M995 1499h-721v303h721v-303zM1190 350v-350h-1106v1372h1096v-350h-672v-178h616v-316h-616v-178h682z" />
    <glyph glyph-name="emacron" unicode="&#x113;" horiz-adv-x="1187" 
d="M969 1163h-721v303h721v-303zM1153 487v-67h-715q38 -141 170 -141q121 0 166 94l365 -72q-62 -164 -200 -248t-331 -84q-237 0 -405 154q-166 153 -166 395t165 396q166 155 404 155q246 0 396 -153q151 -154 151 -429zM606 754q-122 0 -166 -119h320q-18 57 -60 88
t-94 31z" />
    <glyph glyph-name="Edotaccent" unicode="&#x116;" horiz-adv-x="1253" 
d="M633 1466q-95 0 -159 62q-62 61 -62 155q0 91 63 154q64 64 158 64q96 0 160 -64q63 -63 63 -154q0 -93 -63 -155q-64 -62 -160 -62zM1190 350v-350h-1106v1372h1096v-350h-672v-178h616v-316h-616v-178h682z" />
    <glyph glyph-name="edotaccent" unicode="&#x117;" horiz-adv-x="1187" 
d="M606 1130q-95 0 -159 62q-62 61 -62 156q0 89 64 153t157 64t159 -64q64 -63 64 -153q0 -94 -63 -156q-64 -62 -160 -62zM1153 487v-67h-715q38 -141 170 -141q121 0 166 94l365 -72q-62 -164 -200 -248t-331 -84q-237 0 -405 154q-166 153 -166 395t165 396
q166 155 404 155q246 0 396 -153q151 -154 151 -429zM606 754q-122 0 -166 -119h320q-18 57 -60 88t-94 31z" />
    <glyph glyph-name="Eogonek" unicode="&#x118;" horiz-adv-x="1253" 
d="M1190 0h-80q-3 -3 -11.5 -12t-13.5 -14q-6 -6 -12.5 -13t-8.5 -9q-3 -3 -17 -19l-9.5 -9.5t-6.5 -7.5q-3 -4 -11 -14q-2 -2 -3.5 -5t-3 -5.5t-2.5 -3.5q-2 -3 -6 -11t-5 -12t-1 -12q0 -48 58 -48q38 0 108 19l13 -219q-99 -51 -215 -51q-105 0 -170 55q-66 55 -66 147
q0 138 127 244h-770v1372h1096v-350h-672v-178h616v-316h-616v-178h682v-350z" />
    <glyph glyph-name="eogonek" unicode="&#x119;" horiz-adv-x="1187" 
d="M1153 420h-719q38 -141 174 -141q115 0 166 94l365 -72q-37 -83 -150 -201q-66 -66 -73 -74q-24 -27 -46 -69q-24 -45 -24 -88q0 -64 61 -64q38 0 105 19l14 -217q-101 -53 -217 -53q-108 0 -176 53t-68 147q0 105 94 217l-51 -2q-237 0 -405 154q-166 153 -166 395
t166 396q167 155 405 155q245 0 396 -154q149 -152 149 -430v-65zM434 635h322q-29 119 -156 119q-52 0 -99 -33q-46 -32 -67 -86z" />
    <glyph glyph-name="Ecaron" unicode="&#x11a;" horiz-adv-x="1253" 
d="M420 1495l-242 336h389l68 -96l67 96h388l-242 -336h-428zM1190 350v-350h-1106v1372h1096v-350h-672v-178h616v-316h-616v-178h682z" />
    <glyph glyph-name="ecaron" unicode="&#x11b;" horiz-adv-x="1187" 
d="M395 1159l-241 336h389l67 -96l68 96h387l-242 -336h-428zM1153 487v-67h-715q38 -141 170 -141q121 0 166 94l365 -72q-62 -164 -200 -248t-331 -84q-237 0 -405 154q-166 153 -166 395t165 396q166 155 404 155q246 0 396 -153q151 -154 151 -429zM606 754
q-122 0 -166 -119h320q-18 57 -60 88t-94 31z" />
    <glyph glyph-name="Gbreve" unicode="&#x11e;" horiz-adv-x="1599" 
d="M811 1464q-175 0 -287 98q-110 97 -110 255h309q0 -33 23 -56q24 -24 65 -24q42 0 66 24t24 56h307q0 -158 -110 -255q-112 -98 -287 -98zM768 823h766q10 -87 10 -137q0 -317 -206 -517t-529 -200q-317 0 -534 208q-218 209 -218 509q0 301 217 509t535 208
q247 0 431 -110t253 -300l-438 -104q-67 135 -246 135q-143 0 -235 -96q-91 -95 -91 -242q0 -145 92 -242q91 -96 236 -96q188 0 272 135h-315v340z" />
    <glyph glyph-name="gbreve" unicode="&#x11f;" horiz-adv-x="1318" 
d="M676 1128q-175 0 -287 98q-110 97 -110 255h309q0 -33 23 -56q24 -24 65 -24t65 24q25 25 25 56h307q0 -158 -110 -255q-112 -98 -287 -98zM1235 1038v-932q0 -231 -178 -363t-445 -132q-373 0 -540 283l352 118q50 -57 90 -75q43 -19 96 -19q94 0 153 49q60 49 60 148
v49q-112 -107 -291 -107q-216 0 -356 143q-139 142 -139 367q0 222 139 362t356 140q184 0 291 -104v73h412zM635 381q83 0 135 54q53 55 53 132q0 79 -53 134t-135 55q-83 0 -136 -55t-53 -134q0 -77 53 -132q53 -54 136 -54z" />
    <glyph glyph-name="Gdotaccent" unicode="&#x120;" horiz-adv-x="1599" 
d="M809 1466q-95 0 -159 62q-62 61 -62 155q0 91 63 154q64 64 158 64q96 0 160 -64q63 -63 63 -154q0 -93 -63 -155q-64 -62 -160 -62zM768 823h766q10 -87 10 -137q0 -317 -206 -517t-529 -200q-317 0 -534 208q-218 209 -218 509q0 301 217 509t535 208q247 0 431 -110
t253 -300l-438 -104q-67 135 -246 135q-143 0 -235 -96q-91 -95 -91 -242q0 -145 92 -242q91 -96 236 -96q188 0 272 135h-315v340z" />
    <glyph glyph-name="gdotaccent" unicode="&#x121;" horiz-adv-x="1318" 
d="M674 1130q-95 0 -159 62q-62 61 -62 156q0 90 63 153q64 64 158 64q96 0 160 -64q63 -63 63 -153q0 -94 -63 -156q-64 -62 -160 -62zM1235 1038v-932q0 -231 -178 -363t-445 -132q-373 0 -540 283l352 118q50 -57 90 -75q43 -19 96 -19q94 0 153 49q60 49 60 148v49
q-112 -107 -291 -107q-216 0 -356 143q-139 142 -139 367q0 222 139 362t356 140q184 0 291 -104v73h412zM635 381q83 0 135 54q53 55 53 132q0 79 -53 134t-135 55q-83 0 -136 -55t-53 -134q0 -77 53 -132q53 -54 136 -54z" />
    <glyph glyph-name="Gcommaaccent" unicode="&#x122;" horiz-adv-x="1599" 
d="M768 823h766q10 -87 10 -137q0 -317 -206 -517t-529 -200q-317 0 -534 208q-218 209 -218 509q0 301 217 509t535 208q247 0 431 -110t253 -300l-438 -104q-67 135 -246 135q-143 0 -235 -96q-91 -95 -91 -242q0 -145 92 -242q91 -96 236 -96q188 0 272 135h-315v340z
M606 -92h391l-209 -342h-280z" />
    <glyph glyph-name="gcommaaccent" unicode="&#x123;" horiz-adv-x="1300" 
d="M856 1155h-391l209 342h280zM1235 1038v-932q0 -231 -178 -363t-445 -132q-373 0 -540 283l352 118q50 -57 90 -75q43 -19 96 -19q94 0 153 49q60 49 60 148v49q-112 -107 -291 -107q-216 0 -356 143q-139 142 -139 367q0 222 139 362t356 140q184 0 291 -104v73h412z
M635 381q83 0 135 54q53 55 53 132q0 79 -53 134t-135 55q-83 0 -136 -55t-53 -134q0 -77 53 -132q53 -54 136 -54z" />
    <glyph glyph-name="Hbar" unicode="&#x126;" horiz-adv-x="1542" 
d="M1513 881h-90v-881h-424v408h-458v-408h-424v881h-90v305h90v186h424v-186h458v186h424v-186h90v-305zM999 881h-458v-148h458v148z" />
    <glyph glyph-name="hbar" unicode="&#x127;" horiz-adv-x="1304" 
d="M838 1069q173 0 278 -114t105 -310v-645h-414v557q0 65 -36 106q-35 39 -95 39q-68 0 -108 -49t-40 -139v-514h-411v1118h-90v266h90v91h411v-91h226v-266h-226v-188q127 139 310 139z" />
    <glyph glyph-name="Imacron" unicode="&#x12a;" horiz-adv-x="591" 
d="M657 1499h-720v303h720v-303zM508 0h-424v1372h424v-1372z" />
    <glyph glyph-name="imacron" unicode="&#x12b;" horiz-adv-x="612" 
d="M668 1163h-721v303h721v-303zM512 0h-412v1038h412v-1038z" />
    <glyph glyph-name="Iogonek" unicode="&#x12e;" horiz-adv-x="591" 
d="M561 -176l12 -219q-99 -51 -215 -51q-105 0 -170 55t-65 147q0 138 127 244h-166v1372h424v-1372h-2q-3 -3 -11.5 -12t-13.5 -14q-6 -6 -12.5 -13t-8.5 -9q-11 -11 -18 -19q-2 -3 -4.5 -5.5l-4.5 -4.5t-3.5 -4t-2.5 -3q-3 -4 -11 -14q-2 -3 -6 -8l-3 -6q-6 -9 -7 -11
q-2 -4 -4 -12q-1 -4 -1 -12q0 -48 58 -48q38 0 108 19z" />
    <glyph glyph-name="iogonek" unicode="&#x12f;" horiz-adv-x="612" 
d="M305 1130q-95 0 -159 62q-62 61 -62 156q0 90 63 153q64 64 158 64q96 0 160 -64q63 -63 63 -153q0 -94 -63 -156q-64 -62 -160 -62zM567 -176l13 -219q-99 -51 -215 -51q-105 0 -170 55q-66 55 -66 147q0 138 127 244h-156v1038h412v-1038q-3 -3 -11.5 -12t-13.5 -14
q-6 -6 -12.5 -13t-8.5 -9q-3 -3 -17 -19l-9.5 -9.5t-6.5 -7.5q-3 -4 -11 -14q-2 -3 -6 -8l-3 -6q-2 -3 -6 -11t-5 -12t-1 -12q0 -48 58 -48q38 0 108 19z" />
    <glyph glyph-name="Idotaccent" unicode="&#x130;" horiz-adv-x="591" 
d="M295 1901q93 0 159 -64q64 -63 64 -154q0 -93 -63 -155q-64 -62 -160 -62q-95 0 -159 62q-62 61 -62 155q0 91 63 154q64 64 158 64zM508 0h-424v1372h424v-1372z" />
    <glyph glyph-name="dotlessi" unicode="&#x131;" horiz-adv-x="612" 
d="M512 0h-412v1038h412v-1038z" />
    <glyph glyph-name="IJ" unicode="&#x132;" horiz-adv-x="1873" 
d="M84 1372h424v-1372h-424v1372zM1784 1372v-866q0 -242 -161 -389q-162 -148 -425 -148q-246 0 -398 130q-153 131 -182 352l420 81q18 -186 160 -186q73 0 116 43q44 44 44 117v866h426z" />
    <glyph glyph-name="ij" unicode="&#x133;" horiz-adv-x="1259" 
d="M309 1561q99 0 163 -66q65 -67 65 -156q0 -94 -64 -158q-63 -63 -164 -63t-164 63t-63 158q0 93 64 157q65 65 163 65zM950 1561q98 0 163 -66q65 -67 65 -156q0 -94 -64 -158q-63 -63 -164 -63t-164 63t-63 158q0 93 64 157q65 65 163 65zM516 0h-414v1038h414v-1038z
M559 -317l51 288q49 -10 66 -10q33 0 51 24t18 60v993h412v-1028q0 -170 -101 -274q-102 -105 -270 -105q-118 0 -227 52z" />
    <glyph glyph-name="Kcommaaccent" unicode="&#x136;" horiz-adv-x="1447" 
d="M1466 0h-542l-353 467h-63v-467h-424v1372h424v-504h47l377 504h495l-512 -690zM514 -92h391l-209 -342h-280z" />
    <glyph glyph-name="kcommaaccent" unicode="&#x137;" horiz-adv-x="1298" 
d="M1315 0h-508l-248 330h-63v-330h-412v1475h412v-777h41l262 340h479l-389 -493zM469 -92h391l-209 -342h-280z" />
    <glyph glyph-name="Lacute" unicode="&#x139;" horiz-adv-x="1185" 
d="M496 1497h-385l159 336h496zM1137 360v-360h-1053v1372h424v-1012h629z" />
    <glyph glyph-name="lacute" unicode="&#x13a;" horiz-adv-x="579" 
d="M487 1599h-385l160 336h496zM496 0h-412v1475h412v-1475z" />
    <glyph glyph-name="Lcommaaccent" unicode="&#x13b;" horiz-adv-x="1185" 
d="M1137 360v-360h-1053v1372h424v-1012h629zM434 -92h391l-209 -342h-280z" />
    <glyph glyph-name="lcommaaccent" unicode="&#x13c;" horiz-adv-x="579" 
d="M496 0h-412v1475h412v-1475zM2 -434l98 342h392l-209 -342h-281z" />
    <glyph glyph-name="Lcaron" unicode="&#x13d;" horiz-adv-x="1185" 
d="M1137 360v-360h-1053v1372h424v-1012h629zM928 963h-271v409h361z" />
    <glyph glyph-name="lcaron" unicode="&#x13e;" horiz-adv-x="579" 
d="M496 0h-412v1475h412v-1475zM870 1065h-270v410h361z" />
    <glyph glyph-name="Ldot" unicode="&#x13f;" horiz-adv-x="1232" 
d="M1137 360v-360h-1053v1372h424v-1012h629zM870 541q-98 0 -159 61q-62 62 -62 156q0 90 63 153q64 64 158 64q96 0 160 -64t64 -153q0 -94 -64 -156q-62 -61 -160 -61z" />
    <glyph glyph-name="ldot" unicode="&#x140;" horiz-adv-x="1003" 
d="M496 0h-412v1475h412v-1475zM770 975q96 0 160 -64q63 -63 63 -153q0 -95 -62 -156t-161 -61q-97 0 -158 61t-61 156q0 91 62 153q64 64 157 64z" />
    <glyph glyph-name="Lslash" unicode="&#x141;" 
d="M1178 360v-360h-1053v459l-98 -43v344l98 43v569h424v-383l176 78v-344l-176 -78v-285h629z" />
    <glyph glyph-name="lslash" unicode="&#x142;" horiz-adv-x="663" 
d="M637 729l-98 -49v-680h-412v473l-100 -51v379l100 51v623h412v-416l98 49v-379z" />
    <glyph glyph-name="Nacute" unicode="&#x143;" horiz-adv-x="1536" 
d="M958 1497h-385l160 336h496zM1452 1372v-1372h-346l-598 662v-662h-424v1372h348l598 -688v688h422z" />
    <glyph glyph-name="nacute" unicode="&#x144;" horiz-adv-x="1271" 
d="M825 1161h-385l160 336h496zM803 1069q175 0 280 -114t105 -310v-645h-412v557q0 66 -37 106q-36 39 -94 39q-69 0 -109 -49t-40 -139v-514h-412v1038h412v-108q127 139 307 139z" />
    <glyph glyph-name="Ncommaaccent" unicode="&#x145;" horiz-adv-x="1536" 
d="M1452 1372v-1372h-346l-598 662v-662h-424v1372h348l598 -688v688h422zM608 -92h391l-208 -342h-281z" />
    <glyph glyph-name="ncommaaccent" unicode="&#x146;" horiz-adv-x="1271" 
d="M803 1069q175 0 280 -114t105 -310v-645h-412v557q0 66 -37 106q-36 39 -94 39q-69 0 -109 -49t-40 -139v-514h-412v1038h412v-108q127 139 307 139zM436 -92h391l-209 -342h-280z" />
    <glyph glyph-name="Ncaron" unicode="&#x147;" horiz-adv-x="1536" 
d="M555 1495l-242 336h389l68 -96l68 96h387l-242 -336h-428zM1452 1372v-1372h-346l-598 662v-662h-424v1372h348l598 -688v688h422z" />
    <glyph glyph-name="ncaron" unicode="&#x148;" horiz-adv-x="1271" 
d="M424 1159l-242 336h389l68 -96l68 96h387l-242 -336h-428zM803 1069q175 0 280 -114t105 -310v-645h-412v557q0 66 -37 106q-36 39 -94 39q-69 0 -109 -49t-40 -139v-514h-412v1038h412v-108q127 139 307 139z" />
    <glyph glyph-name="Eng" unicode="&#x14a;" horiz-adv-x="1529" 
d="M1452 1372v-1415q0 -156 -100 -241t-271 -85q-127 0 -272 43l41 267q111 -17 123 -17q67 0 67 68v80l-532 590v-662h-424v1372h348l598 -688v688h422z" />
    <glyph glyph-name="eng" unicode="&#x14b;" horiz-adv-x="1271" 
d="M803 1069q175 0 280 -114t105 -310v-688q0 -155 -101 -241q-100 -85 -270 -85q-129 0 -274 43l43 267q108 -17 121 -17q69 0 69 68v565q0 66 -37 106q-36 39 -94 39q-69 0 -109 -49t-40 -139v-514h-412v1038h412v-108q127 139 307 139z" />
    <glyph glyph-name="Omacron" unicode="&#x14c;" horiz-adv-x="1599" 
d="M1161 1499h-721v303h721v-303zM801 1403q312 0 527 -208q216 -209 216 -509t-216 -509q-215 -208 -527 -208q-315 0 -529 208q-215 209 -215 509t215 509q214 208 529 208zM801 348q139 0 228 96q89 97 89 242t-89 242q-89 96 -228 96q-140 0 -230 -96t-90 -242t90 -242
t230 -96z" />
    <glyph glyph-name="omacron" unicode="&#x14d;" horiz-adv-x="1243" 
d="M983 1163h-721v303h721v-303zM623 1067q242 0 413 -154q170 -153 170 -395t-170 -395q-171 -154 -413 -154q-245 0 -416 154q-170 153 -170 395t170 395q171 154 416 154zM623 311q79 0 134 61q54 60 54 146q0 89 -54 149t-134 60q-83 0 -137 -60t-54 -149q0 -86 54 -146
q55 -61 137 -61z" />
    <glyph glyph-name="Ohungarumlaut" unicode="&#x150;" horiz-adv-x="1599" 
d="M729 1497h-336l176 336h420zM850 1497l176 336h436l-278 -336h-334zM801 1403q312 0 527 -208q216 -209 216 -509t-216 -509q-215 -208 -527 -208q-315 0 -529 208q-215 209 -215 509t215 509q214 208 529 208zM801 348q139 0 228 96q89 97 89 242t-89 242
q-89 96 -228 96q-140 0 -230 -96t-90 -242t90 -242t230 -96z" />
    <glyph glyph-name="ohungarumlaut" unicode="&#x151;" horiz-adv-x="1243" 
d="M551 1161h-336l176 336h420zM672 1161l176 336h436l-278 -336h-334zM623 1067q242 0 413 -154q170 -153 170 -395t-170 -395q-171 -154 -413 -154q-245 0 -416 154q-170 153 -170 395t170 395q171 154 416 154zM623 311q79 0 134 61q54 60 54 146q0 89 -54 149t-134 60
q-83 0 -137 -60t-54 -149q0 -86 54 -146q55 -61 137 -61z" />
    <glyph glyph-name="OE" unicode="&#x152;" horiz-adv-x="2105" 
d="M2042 350v-350h-1182q-362 0 -581 191q-222 193 -222 495t222 495q219 191 581 191h1172v-350h-672v-178h616v-316h-616v-178h682zM936 350v672h-76q-184 0 -281 -93q-98 -93 -98 -243t98 -243q97 -93 281 -93h76z" />
    <glyph glyph-name="oe" unicode="&#x153;" horiz-adv-x="1964" 
d="M1929 487v-67h-715q38 -141 170 -141q121 0 164 94l367 -72q-62 -164 -200 -248t-331 -84q-216 0 -378 129q-162 -129 -383 -129q-245 0 -416 154q-170 153 -170 395t170 395q171 154 416 154q226 0 383 -127q158 129 376 129q247 0 397 -153t150 -429zM1382 754
q-124 0 -168 -119h320q-18 58 -59 88q-42 31 -93 31zM623 311q79 0 134 61q54 60 54 146q0 89 -54 149t-134 60q-83 0 -137 -60t-54 -149q0 -86 54 -146q55 -61 137 -61z" />
    <glyph glyph-name="Racute" unicode="&#x154;" horiz-adv-x="1404" 
d="M854 1497h-385l160 336h495zM1401 0h-508l-356 422h-29v-422h-424v1372h750q222 0 359 -129q136 -129 136 -340q0 -160 -84 -279q-84 -118 -233 -169zM508 1028v-278h233q81 0 126 38q46 39 46 105q0 61 -46 98t-126 37h-233z" />
    <glyph glyph-name="racute" unicode="&#x155;" horiz-adv-x="917" 
d="M686 1161h-385l160 336h495zM496 1038v-213q107 226 338 226q28 0 75 -7l-14 -430h-61q-162 0 -250 -67t-88 -238v-309h-412v1038h412z" />
    <glyph glyph-name="Rcommaaccent" unicode="&#x156;" horiz-adv-x="1404" 
d="M1401 0h-508l-356 422h-29v-422h-424v1372h750q222 0 359 -129q136 -129 136 -340q0 -160 -84 -279q-84 -118 -233 -169zM508 1028v-278h233q81 0 126 38q46 39 46 105q0 61 -46 98t-126 37h-233zM512 -92h391l-209 -342h-280z" />
    <glyph glyph-name="rcommaaccent" unicode="&#x157;" horiz-adv-x="917" 
d="M834 1051q28 0 75 -7l-14 -430h-61q-162 0 -250 -67t-88 -238v-309h-412v1038h412v-213q107 226 338 226zM100 -92h392l-209 -342h-281z" />
    <glyph glyph-name="Rcaron" unicode="&#x158;" horiz-adv-x="1404" 
d="M451 1495l-242 336h389l68 -96l67 96h387l-241 -336h-428zM1401 0h-508l-356 422h-29v-422h-424v1372h750q222 0 359 -129q136 -129 136 -340q0 -160 -84 -279q-84 -118 -233 -169zM508 1028v-278h233q81 0 126 38q46 39 46 105q0 61 -46 98t-126 37h-233z" />
    <glyph glyph-name="rcaron" unicode="&#x159;" horiz-adv-x="917" 
d="M283 1159l-242 336h389l68 -96l67 96h387l-241 -336h-428zM496 1038v-213q107 226 338 226q28 0 75 -7l-14 -430h-61q-162 0 -250 -67t-88 -238v-309h-412v1038h412z" />
    <glyph glyph-name="Sacute" unicode="&#x15a;" horiz-adv-x="1339" 
d="M862 1497h-385l160 336h496zM674 1403q248 0 408 -104q159 -103 196 -295l-412 -84q-39 161 -192 161q-58 0 -92 -25q-35 -26 -35 -69q0 -61 67 -76l273 -69q200 -51 301 -149q100 -97 100 -261q0 -159 -94 -266q-97 -111 -224 -153q-132 -44 -278 -44q-259 0 -434 118
q-177 119 -205 310l430 80q43 -172 215 -172q60 0 102 25q40 24 40 69q0 57 -78 78l-283 70q-381 91 -381 401q0 218 162 336q163 119 414 119z" />
    <glyph glyph-name="sacute" unicode="&#x15b;" horiz-adv-x="1089" 
d="M739 1161h-385l160 336h496zM35 266l391 78q24 -90 139 -90q46 0 70 15t24 36q0 23 -20 34q-19 11 -68 17l-206 35q-314 51 -314 311q0 170 136 269q135 98 339 98q209 0 337 -74t167 -211l-362 -71q-7 32 -45 62q-37 30 -93 30q-41 0 -62 -15q-22 -16 -22 -36
q0 -37 60 -49l235 -46q312 -60 312 -337q0 -167 -140 -260q-139 -93 -354 -93q-207 0 -349 74q-141 73 -175 223z" />
    <glyph glyph-name="Scedilla" unicode="&#x15e;" horiz-adv-x="1339" 
d="M1288 432q0 -196 -133 -310q-133 -113 -332 -142l-78 -308h-421l204 312q-195 34 -323 144t-152 269l430 80q43 -172 215 -172q60 0 102 25q40 24 40 69q0 57 -78 78l-283 70q-381 91 -381 401q0 218 162 336q163 119 414 119q248 0 408 -104q159 -103 196 -295l-412 -84
q-39 161 -192 161q-58 0 -92 -25q-35 -26 -35 -69q0 -61 67 -76l273 -69q200 -51 301 -149q100 -97 100 -261z" />
    <glyph glyph-name="scedilla" unicode="&#x15f;" horiz-adv-x="1089" 
d="M1053 322q0 -135 -95 -224q-94 -88 -249 -116l-80 -310h-422l203 308q-320 51 -375 286l391 78q24 -90 139 -90q46 0 70 15t24 36q0 23 -20 34q-19 11 -68 17l-206 35q-314 51 -314 311q0 170 136 269q135 98 339 98q209 0 337 -74t167 -211l-362 -71q-7 32 -45 62
q-37 30 -93 30q-41 0 -62 -15q-22 -16 -22 -36q0 -37 60 -49l235 -46q312 -60 312 -337z" />
    <glyph glyph-name="Scaron" unicode="&#x160;" horiz-adv-x="1339" 
d="M459 1495l-242 336h389l68 -96l67 96h387l-241 -336h-428zM614 911l273 -69q200 -51 301 -149q100 -97 100 -261q0 -159 -94 -266q-97 -111 -224 -153q-132 -44 -278 -44q-259 0 -434 118q-177 119 -205 310l430 80q43 -172 215 -172q60 0 102 25q40 24 40 69
q0 57 -78 78l-283 70q-381 91 -381 401q0 218 162 336q163 119 414 119q248 0 408 -104q159 -103 196 -295l-412 -84q-39 161 -192 161q-58 0 -92 -25q-35 -26 -35 -69q0 -61 67 -76z" />
    <glyph glyph-name="scaron" unicode="&#x161;" horiz-adv-x="1089" 
d="M336 1159l-242 336h389l68 -96l67 96h388l-242 -336h-428zM506 705l235 -46q312 -60 312 -337q0 -167 -140 -260q-139 -93 -354 -93q-207 0 -349 74q-141 73 -175 223l391 78q24 -90 139 -90q46 0 70 15t24 36q0 23 -20 34q-19 11 -68 17l-206 35q-314 51 -314 311
q0 170 136 269q135 98 339 98q209 0 337 -74t167 -211l-362 -71q-7 32 -45 62q-37 30 -93 30q-41 0 -62 -15q-22 -16 -22 -36q0 -37 60 -49z" />
    <glyph glyph-name="tcedilla" unicode="&#x163;" horiz-adv-x="882" 
d="M799 350l73 -305q-96 -52 -198 -68l-78 -301h-422l211 324q-235 84 -235 383v336h-142v319h142v293h411v-293h258v-319h-258v-285q0 -112 117 -112q72 0 121 28z" />
    <glyph glyph-name="Tcaron" unicode="&#x164;" horiz-adv-x="1353" 
d="M463 1495l-242 336h389l68 -96l67 96h388l-242 -336h-428zM1313 1014h-424v-1014h-424v1014h-424v358h1272v-358z" />
    <glyph glyph-name="tcaron" unicode="&#x165;" horiz-adv-x="882" 
d="M981 1495l-90 -410h-270v410h360zM678 322q72 0 121 28l73 -305q-143 -76 -301 -76q-205 0 -313 110q-108 109 -108 304v336h-142v319h142v293h411v-293h258v-319h-258v-285q0 -112 117 -112z" />
    <glyph glyph-name="Tbar" unicode="&#x166;" horiz-adv-x="1353" 
d="M889 1014v-215h211v-322h-211v-477h-424v477h-209v322h209v215h-424v358h1272v-358h-424z" />
    <glyph glyph-name="tbar" unicode="&#x167;" horiz-adv-x="882" 
d="M823 371l43 -328q-140 -74 -297 -74q-205 0 -313 110q-109 111 -109 304v61h-94v248h94v78h-139v268h139v293h412v-293h258v-268h-258v-78h152v-248h-152v-10q0 -112 117 -112q62 0 147 49z" />
    <glyph glyph-name="Umacron" unicode="&#x16a;" horiz-adv-x="1466" 
d="M1094 1499h-721v303h721v-303zM1376 1372v-749q0 -303 -174 -478q-174 -176 -461 -176q-294 0 -473 176q-178 175 -178 478v749h426v-749q0 -130 62 -203q61 -72 163 -72q95 0 153 73q56 71 56 202v749h426z" />
    <glyph glyph-name="umacron" unicode="&#x16b;" horiz-adv-x="1271" 
d="M997 1163h-721v303h721v-303zM1188 1036v-1038h-412v108q-127 -139 -307 -139q-176 0 -281 114q-104 113 -104 310v645h412v-557q0 -66 36 -105q37 -40 95 -40q69 0 109 49t40 139v514h412z" />
    <glyph glyph-name="Uring" unicode="&#x16e;" horiz-adv-x="1466" 
d="M733 1446q-119 0 -199 79q-81 79 -81 193t81 194q80 79 199 79q120 0 200 -79q81 -80 81 -194t-81 -193q-80 -79 -200 -79zM733 1798q-34 0 -57 -23q-25 -25 -25 -57q0 -29 25 -54q24 -24 57 -24q34 0 58 24t24 54q0 33 -24 57q-23 23 -58 23zM1376 1372v-749
q0 -303 -174 -478q-174 -176 -461 -176q-294 0 -473 176q-178 175 -178 478v749h426v-749q0 -130 62 -203q61 -72 163 -72q95 0 153 73q56 71 56 202v749h426z" />
    <glyph glyph-name="uring" unicode="&#x16f;" horiz-adv-x="1271" 
d="M637 1110q-120 0 -200 79q-81 79 -81 193t81 194q80 79 200 79t200 -79q81 -79 81 -194q0 -114 -81 -193q-80 -79 -200 -79zM637 1462q-34 0 -57 -23q-25 -25 -25 -57q0 -29 25 -54q23 -23 57 -23t57 23q25 25 25 54q0 32 -25 57q-23 23 -57 23zM1188 1036v-1038h-412
v108q-127 -139 -307 -139q-176 0 -281 114q-104 113 -104 310v645h412v-557q0 -66 36 -105q37 -40 95 -40q69 0 109 49t40 139v514h412z" />
    <glyph glyph-name="Uhungarumlaut" unicode="&#x170;" horiz-adv-x="1466" 
d="M662 1497h-336l176 336h420zM782 1497l176 336h437l-279 -336h-334zM950 1372h426v-749q0 -303 -174 -478q-174 -176 -461 -176q-294 0 -473 176q-178 175 -178 478v749h426v-749q0 -130 62 -203q61 -72 163 -72q95 0 153 73q56 71 56 202v749z" />
    <glyph glyph-name="uhungarumlaut" unicode="&#x171;" horiz-adv-x="1271" 
d="M565 1161h-336l177 336h419zM686 1161l176 336h436l-278 -336h-334zM776 1036h412v-1038h-412v108q-127 -139 -307 -139q-176 0 -281 114q-104 113 -104 310v645h412v-557q0 -66 36 -105q37 -40 95 -40q69 0 109 49t40 139v514z" />
    <glyph glyph-name="Uogonek" unicode="&#x172;" horiz-adv-x="1466" 
d="M1169 111q-66 -59 -109 -116q-40 -53 -40 -124q0 -64 61 -64q21 0 109 25l51 -225q-148 -70 -272 -70q-107 0 -177 62q-69 61 -69 155q0 112 94 219q-44 -4 -76 -4q-295 0 -473 172t-178 463v768h426v-768q0 -120 62 -188t163 -68q96 0 153 68q56 66 56 188v768h426v-768
q0 -319 -207 -493z" />
    <glyph glyph-name="uogonek" unicode="&#x173;" horiz-adv-x="1271" 
d="M1243 -176l12 -219q-99 -51 -215 -51q-105 0 -170 55t-65 147q0 134 125 242h-154v108q-127 -139 -307 -139q-176 0 -281 114q-104 113 -104 310v645h412v-557q0 -66 36 -105q37 -40 95 -40q69 0 109 49t40 139v514h412l-2 -1038q-15 -15 -24 -25t-20 -21t-18 -19
q-2 -3 -4.5 -5.5l-4.5 -4.5t-3.5 -4t-2.5 -3q-3 -4 -11 -14q-2 -2 -3.5 -5t-3 -5.5t-2.5 -3.5q-6 -9 -7 -11q-2 -4 -4 -12q-1 -4 -1 -12q0 -48 58 -48q38 0 108 19z" />
    <glyph glyph-name="Wcircumflex" unicode="&#x174;" horiz-adv-x="2027" 
d="M946 1495h-389l242 338h428l241 -338h-387l-67 96zM2025 1372l-378 -1372h-457l-176 731l-176 -731h-455l-379 1372h430l205 -741l176 741h399l177 -741l202 741h432z" />
    <glyph glyph-name="wcircumflex" unicode="&#x175;" horiz-adv-x="1652" 
d="M760 1159h-389l241 338h428l242 -338h-387l-68 96zM1649 1038l-318 -1038h-346l-158 487l-159 -487h-346l-318 1038h404l122 -438l166 438h262l166 -438l123 438h402z" />
    <glyph glyph-name="Ycircumflex" unicode="&#x176;" horiz-adv-x="1492" 
d="M678 1495h-389l241 338h428l242 -338h-387l-68 96zM1489 1372l-531 -956v-416h-442v416l-512 956h463l281 -534l276 534h465z" />
    <glyph glyph-name="ycircumflex" unicode="&#x177;" horiz-adv-x="1298" 
d="M582 1159h-389l241 338h428l242 -338h-387l-68 96zM1294 1038l-596 -1386h-432l168 387l-430 999h430l207 -520l223 520h430z" />
    <glyph glyph-name="Ydieresis" unicode="&#x178;" horiz-adv-x="1492" 
d="M496 1454q-95 0 -154 59t-59 150q0 85 60 147t153 62q91 0 153 -62t62 -147q0 -89 -61 -150q-59 -59 -154 -59zM995 1454q-94 0 -153 59q-60 60 -60 150q0 84 61 147q60 62 152 62t154 -62q61 -61 61 -147q0 -90 -60 -150q-59 -59 -155 -59zM1489 1372l-531 -956v-416
h-442v416l-512 956h463l281 -534l276 534h465z" />
    <glyph glyph-name="Zacute" unicode="&#x179;" horiz-adv-x="1329" 
d="M854 1497h-385l160 336h495zM1268 356v-356h-1200v274l630 744h-614v354h1161v-328l-565 -688h588z" />
    <glyph glyph-name="zacute" unicode="&#x17a;" horiz-adv-x="1148" 
d="M764 1161h-385l160 336h495zM1083 319v-319h-1017v264l454 455h-444v319h997v-270l-452 -449h462z" />
    <glyph glyph-name="Zdotaccent" unicode="&#x17b;" horiz-adv-x="1329" 
d="M666 1466q-95 0 -159 62q-63 61 -63 155q0 90 64 154t158 64q95 0 159 -64t64 -154q0 -93 -64 -155t-159 -62zM1268 356v-356h-1200v274l630 744h-614v354h1161v-328l-565 -688h588z" />
    <glyph glyph-name="zdotaccent" unicode="&#x17c;" horiz-adv-x="1148" 
d="M573 1130q-94 0 -158 62q-63 62 -63 156q0 89 64 153t157 64t159 -64q65 -63 65 -153q0 -94 -64 -156t-160 -62zM1083 319v-319h-1017v264l454 455h-444v319h997v-270l-452 -449h462z" />
    <glyph glyph-name="Zcaron" unicode="&#x17d;" horiz-adv-x="1329" 
d="M453 1495l-242 336h389l68 -96l67 96h387l-241 -336h-428zM1268 356v-356h-1200v274l630 744h-614v354h1161v-328l-565 -688h588z" />
    <glyph glyph-name="zcaron" unicode="&#x17e;" horiz-adv-x="1148" 
d="M360 1159l-241 336h389l67 -96l68 96h387l-242 -336h-428zM1083 319v-319h-1017v264l454 455h-444v319h997v-270l-452 -449h462z" />
    <glyph glyph-name="florin" unicode="&#x192;" horiz-adv-x="1212" 
d="M948 1061q-49 0 -84 -29q-36 -29 -43 -80l-22 -125h229v-317h-287l-84 -455q-33 -181 -153 -286q-122 -107 -297 -107q-25 0 -49 3q-28 3 -43 6q-12 2 -38 10q-15 5 -32 11q-11 4 -29 14q-3 2 -7 4t-6.5 3.5t-5 2.5t-3.5 2q-2 1 -22 13q-15 9 -17 11l113 293
q70 -25 100 -25q69 0 84 78l76 422h-170v317h227l29 158q34 189 172 304q136 114 327 114q154 0 277 -70l-123 -307q-68 35 -119 35z" />
    <glyph glyph-name="AEacute" unicode="&#x1fc;" horiz-adv-x="2158" 
d="M1546 1497h-385l160 336h496zM2097 350v-350h-1106v180h-397l-94 -180h-500l815 1372h1272v-350h-672v-178h617v-316h-617v-178h682zM991 528v412l-215 -412h215z" />
    <glyph glyph-name="aeacute" unicode="&#x1fd;" horiz-adv-x="1818" 
d="M1096 1161h-385l159 336h496zM1782 416h-713q38 -137 172 -137q113 0 156 96l354 -74q-40 -149 -181 -240q-143 -92 -331 -92q-204 0 -358 115q-153 -115 -402 -115q-217 0 -335 87q-117 86 -117 247q0 154 115 233q113 78 337 78h221v60q0 45 -28 72q-30 28 -76 28
q-96 0 -111 -96l-383 78q27 136 155 225q127 88 339 88q202 0 330 -86q140 86 311 86q244 0 395 -154q150 -153 150 -430v-69zM1067 614h319q-29 140 -151 140q-133 0 -168 -140zM698 410h-131q-118 0 -118 -78q0 -40 29 -62t77 -22q57 0 100 33t43 88v41z" />
    <glyph glyph-name="Scommaaccent" unicode="&#x218;" horiz-adv-x="1339" 
d="M674 1403q248 0 408 -104q159 -103 196 -295l-412 -84q-39 161 -192 161q-58 0 -92 -25q-35 -26 -35 -69q0 -61 67 -76l273 -69q200 -51 301 -149q100 -97 100 -261q0 -159 -94 -266q-97 -111 -224 -153q-132 -44 -278 -44q-259 0 -434 118q-177 119 -205 310l430 80
q43 -172 215 -172q60 0 102 25q40 24 40 69q0 57 -78 78l-283 70q-381 91 -381 401q0 218 162 336q163 119 414 119zM391 -434l98 342h392l-209 -342h-281z" />
    <glyph glyph-name="scommaaccent" unicode="&#x219;" horiz-adv-x="1089" 
d="M35 266l391 78q24 -90 139 -90q46 0 70 15t24 36q0 23 -20 34q-19 11 -68 17l-206 35q-314 51 -314 311q0 170 136 269q135 98 339 98q209 0 337 -74t167 -211l-362 -71q-7 32 -45 62q-37 30 -93 30q-41 0 -62 -15q-22 -16 -22 -36q0 -37 60 -49l235 -46
q312 -60 312 -337q0 -167 -140 -260q-139 -93 -354 -93q-207 0 -349 74q-141 73 -175 223zM274 -434l99 342h391l-209 -342h-281z" />
    <glyph glyph-name="uni021A" unicode="&#x21a;" horiz-adv-x="1353" 
d="M1313 1014h-424v-1014h-424v1014h-424v358h1272v-358zM489 -92h392l-209 -342h-281z" />
    <glyph glyph-name="uni021B" unicode="&#x21b;" horiz-adv-x="882" 
d="M571 -31q-205 0 -313 110q-108 109 -108 304v336h-142v319h142v293h411v-293h258v-319h-258v-285q0 -112 117 -112q72 0 121 28l73 -305q-143 -76 -301 -76zM340 -88h391l-209 -342h-280z" />
    <glyph glyph-name="circumflex" unicode="&#x2c6;" horiz-adv-x="1228" 
d="M684 1159l-68 96l-67 -96h-389l241 336h428l242 -336h-387z" />
    <glyph glyph-name="caron" unicode="&#x2c7;" horiz-adv-x="1228" 
d="M1071 1495l-242 -336h-428l-241 336h389l67 -96l68 96h387z" />
    <glyph glyph-name="breve" unicode="&#x2d8;" horiz-adv-x="1228" 
d="M614 1128q-174 0 -286 98q-111 98 -111 255h309q0 -32 24 -56t64 -24q42 0 66 24q25 25 25 56h307q0 -157 -111 -255q-112 -98 -287 -98z" />
    <glyph glyph-name="dotaccent" unicode="&#x2d9;" horiz-adv-x="1228" 
d="M614 1565q93 0 159 -64q65 -63 65 -153q0 -94 -64 -156t-160 -62q-94 0 -158 62q-63 62 -63 156q0 89 64 153t157 64z" />
    <glyph glyph-name="ring" unicode="&#x2da;" horiz-adv-x="1228" 
d="M895 1382q0 -114 -81 -193q-80 -79 -200 -79q-119 0 -199 79q-81 79 -81 193t81 194q80 79 199 79q120 0 200 -79q81 -79 81 -194zM696 1382q0 33 -24 57q-23 23 -58 23q-34 0 -57 -23q-25 -25 -25 -57q0 -29 25 -54q23 -23 57 -23q35 0 58 23q24 24 24 54z" />
    <glyph glyph-name="ogonek" unicode="&#x2db;" horiz-adv-x="1228" 
d="M430 16l236 -16q-3 -3 -11.5 -12t-13.5 -14q-6 -6 -12.5 -13t-8.5 -9q-11 -11 -18 -19q-2 -3 -4.5 -5.5l-4.5 -4.5t-3.5 -4t-2.5 -3q-2 -2 -6 -7t-6 -7q-2 -3 -5 -8l-4 -6q-2 -3 -6 -11q-2 -4 -4 -12q-1 -4 -1 -12q0 -48 57 -48q39 0 109 19l12 -219q-99 -51 -215 -51
q-105 0 -170 55t-65 147q0 68 39 139q39 70 108 121z" />
    <glyph glyph-name="tilde" unicode="&#x2dc;" horiz-adv-x="1228" 
d="M455 1167h-226q0 172 74 275q73 102 186 102q68 0 140 -36q70 -35 104 -35q32 0 46 13q17 15 28 50h225q0 -171 -74 -274t-188 -103q-69 0 -137 34t-105 34q-29 0 -45 -13q-12 -9 -28 -47z" />
    <glyph glyph-name="hungarumlaut" unicode="&#x2dd;" horiz-adv-x="1228" 
d="M410 1161h-336l176 336h420zM864 1161h-334l177 336h436z" />
    <glyph glyph-name="uni0326" unicode="&#x326;" horiz-adv-x="0" 
d="M334 -434l98 342h391l-209 -342h-280z" />
    <glyph glyph-name="Wgrave" unicode="&#x1e80;" horiz-adv-x="2027" 
d="M838 1497l-271 336h496l160 -336h-385zM2025 1372l-378 -1372h-457l-176 731l-176 -731h-455l-379 1372h430l205 -741l176 741h399l177 -741l202 741h432z" />
    <glyph glyph-name="wgrave" unicode="&#x1e81;" horiz-adv-x="1652" 
d="M651 1161l-270 336h496l159 -336h-385zM1649 1038l-318 -1038h-346l-158 487l-159 -487h-346l-318 1038h404l122 -438l166 438h262l166 -438l123 438h402z" />
    <glyph glyph-name="Wacute" unicode="&#x1e82;" horiz-adv-x="2027" 
d="M1202 1497h-385l160 336h496zM2025 1372l-378 -1372h-457l-176 731l-176 -731h-455l-379 1372h430l205 -741l176 741h399l177 -741l202 741h432z" />
    <glyph glyph-name="wacute" unicode="&#x1e83;" horiz-adv-x="1652" 
d="M1016 1161h-385l160 336h495zM1649 1038l-318 -1038h-346l-158 487l-159 -487h-346l-318 1038h404l122 -438l166 438h262l166 -438l123 438h402z" />
    <glyph glyph-name="Wdieresis" unicode="&#x1e84;" horiz-adv-x="2027" 
d="M764 1454q-95 0 -154 59t-59 150q0 85 60 147t153 62q92 0 154 -62q61 -61 61 -147q0 -90 -60 -150q-59 -59 -155 -59zM1264 1454q-95 0 -154 59t-59 150q0 85 60 147t153 62q91 0 153 -62t62 -147q0 -89 -61 -150q-59 -59 -154 -59zM2025 1372l-378 -1372h-457l-176 731
l-176 -731h-455l-379 1372h430l205 -741l176 741h399l177 -741l202 741h432z" />
    <glyph glyph-name="wdieresis" unicode="&#x1e85;" horiz-adv-x="1652" 
d="M578 1118q-94 0 -154 60q-59 59 -59 149q0 87 60 148t153 61q92 0 153 -61q62 -62 62 -148q0 -88 -61 -149q-60 -60 -154 -60zM1077 1118q-93 0 -153 60t-60 149q0 85 61 148q60 61 152 61q93 0 154 -61t61 -148q0 -89 -60 -149t-155 -60zM1649 1038l-318 -1038h-346
l-158 487l-159 -487h-346l-318 1038h404l122 -438l166 438h262l166 -438l123 438h402z" />
    <glyph glyph-name="Ygrave" unicode="&#x1ef2;" horiz-adv-x="1492" 
d="M569 1497l-270 336h496l159 -336h-385zM1489 1372l-531 -956v-416h-442v416l-512 956h463l281 -534l276 534h465z" />
    <glyph glyph-name="ygrave" unicode="&#x1ef3;" horiz-adv-x="1298" 
d="M471 1161l-270 336h495l160 -336h-385zM1294 1038l-596 -1386h-432l168 387l-430 999h430l207 -520l223 520h430z" />
    <glyph glyph-name="endash" unicode="&#x2013;" horiz-adv-x="1269" 
d="M1147 399h-1024v324h1024v-324z" />
    <glyph glyph-name="emdash" unicode="&#x2014;" horiz-adv-x="2129" 
d="M2007 399h-1884v324h1884v-324z" />
    <glyph glyph-name="quoteleft" unicode="&#x2018;" horiz-adv-x="665" 
d="M297 1372h315l-118 -651h-439v10z" />
    <glyph glyph-name="quoteright" unicode="&#x2019;" horiz-adv-x="665" 
d="M371 721h-316l117 651h440v-10z" />
    <glyph glyph-name="quotesinglbase" unicode="&#x201a;" horiz-adv-x="665" 
d="M371 -270h-316l117 651h440v-10z" />
    <glyph glyph-name="quotedblleft" unicode="&#x201c;" horiz-adv-x="1175" 
d="M297 1372h315l-118 -651h-439v10zM805 1372h315l-116 -651h-441v10z" />
    <glyph glyph-name="quotedblright" unicode="&#x201d;" horiz-adv-x="1175" 
d="M371 721h-316l117 651h440v-10zM879 721h-316l119 651h438v-10z" />
    <glyph glyph-name="quotedblbase" unicode="&#x201e;" horiz-adv-x="1175" 
d="M371 -270h-316l117 651h440v-10zM879 -270h-316l119 651h438v-10z" />
    <glyph glyph-name="dagger" unicode="&#x2020;" horiz-adv-x="804" 
d="M745 1331v-217h-225v-512h-235v512h-228v217h228v185h235v-185h225z" />
    <glyph glyph-name="daggerdbl" unicode="&#x2021;" horiz-adv-x="804" 
d="M520 1114v-108h225v-220h-225v-184h-235v184h-228v220h228v108h-228v217h228v185h235v-185h225v-217h-225z" />
    <glyph glyph-name="bullet" unicode="&#x2022;" horiz-adv-x="827" 
d="M414 915q159 0 267 -111q107 -110 107 -263q0 -159 -106 -265t-268 -106q-163 0 -268 106t-105 265q0 153 106 263q107 111 267 111z" />
    <glyph glyph-name="ellipsis" unicode="&#x2026;" horiz-adv-x="1703" 
d="M264 438q96 0 162 -67q66 -68 66 -158q0 -96 -65 -161q-64 -64 -163 -64t-162 64t-63 161q0 94 64 159q65 66 161 66zM852 438q97 0 161 -66q64 -65 64 -159q0 -97 -63 -161t-162 -64t-162 64q-63 65 -63 161q0 93 63 159t162 66zM1438 438q98 0 163 -66q64 -65 64 -159
q0 -97 -64 -161t-163 -64q-98 0 -161 64q-63 65 -63 161q0 92 64 159q63 66 160 66z" />
    <glyph glyph-name="perthousand" unicode="&#x2030;" horiz-adv-x="2721" 
d="M457 1403q156 0 263 -100t107 -261t-107 -259q-108 -99 -263 -99q-157 0 -266 100t-109 258q0 161 109 261t266 100zM346 0l973 1372h211l-971 -1372h-213zM457 1174q-51 0 -89 -36t-38 -96q0 -56 38 -94q37 -37 89 -37q50 0 87 37q38 38 38 94q0 60 -38 96t-87 36z
M1415 690q156 0 263 -100q108 -101 108 -262q0 -160 -108 -259q-109 -100 -263 -100q-155 0 -265 101t-110 258q0 161 110 262q109 100 265 100zM2269 690q155 0 262 -100q109 -101 109 -262q0 -157 -109 -258t-262 -101q-154 0 -265 100q-110 99 -110 259q0 161 109 262
q107 100 266 100zM1415 461q-51 0 -89 -36t-38 -95q0 -60 38 -96q36 -35 89 -35q51 0 87 35q38 36 38 96q0 59 -38 95t-87 36zM2269 461q-51 0 -90 -36t-39 -95q0 -60 39 -96q38 -35 90 -35q50 0 86 35q37 36 37 96q0 59 -37 95t-86 36z" />
    <glyph glyph-name="guilsinglleft" unicode="&#x2039;" horiz-adv-x="665" 
d="M51 537l195 364h368l-194 -364l194 -365h-368z" />
    <glyph glyph-name="guilsinglright" unicode="&#x203a;" horiz-adv-x="665" 
d="M51 172l195 365l-195 364h369l194 -364l-194 -365h-369z" />
    <glyph glyph-name="fraction" unicode="&#x2044;" horiz-adv-x="522" 
d="M-334 0l971 1372h213l-973 -1372h-211z" />
    <glyph glyph-name="Euro" unicode="&#x20ac;" horiz-adv-x="1503" 
d="M1040 604l408 -78q-28 -247 -197 -402t-420 -155q-226 0 -384 127q-159 128 -216 348h-163v197h133v45v45h-133v195h161q61 223 218 349q160 128 384 128q249 0 413 -152q163 -151 202 -395l-406 -76q-44 273 -209 273q-117 0 -172 -127h269l-37 -195h-273l-2 -45
q0 -25 2 -45h261l-37 -197h-183q56 -125 172 -125q165 0 209 285z" />
    <glyph glyph-name="uni2116" unicode="&#x2116;" horiz-adv-x="2449" 
d="M1970 657q-163 0 -278 103t-115 264q0 162 114 265q115 104 279 104q166 0 281 -104q114 -103 114 -265t-114 -264q-115 -103 -281 -103zM1030 1372h422v-1372h-346l-598 662v-662h-424v1372h348l598 -688v688zM1970 1141q-49 0 -79 -34q-29 -33 -29 -83q0 -48 30 -83
q30 -34 78 -34q50 0 80 34q31 36 31 83t-31 83q-30 34 -80 34zM1587 580h770v-287h-770v287z" />
    <glyph glyph-name="uni2117" unicode="&#x2117;" horiz-adv-x="1550" 
d="M774 1403q298 0 507 -205q210 -206 210 -514q0 -309 -209 -512t-508 -203q-298 0 -509 203q-210 202 -210 512q0 308 210 513q211 206 509 206zM774 86q245 0 418 170q172 169 172 428t-172 431q-173 173 -418 173q-247 0 -419 -172q-173 -173 -173 -432q0 -258 173 -428
t419 -170zM496 1059h366q138 0 216 -73q77 -72 77 -187q0 -123 -86 -197t-227 -74h-109v-213h-237v744zM733 713h98q47 0 70 22q25 23 25 58q0 73 -95 73h-98v-153z" />
    <glyph glyph-name="trademark" unicode="&#x2122;" horiz-adv-x="1476" 
d="M633 1192h-174v-404h-213v404h-172v180h559v-180zM1382 788h-204v256l-99 -251h-88l-100 251v-256h-205v584h223l125 -303l125 303h223v-584z" />
    <glyph glyph-name="oneeighth" unicode="&#x215b;" horiz-adv-x="1683" 
d="M201 1053l-176 -92v253l264 158h176v-794h-264v475zM1382 1372l-970 -1372h-213l972 1372h211zM1522 414q131 -56 131 -193q0 -104 -98 -173q-96 -68 -252 -68q-155 0 -250 68q-97 70 -97 173q0 137 131 193q-100 52 -100 166q0 95 92 163t226 68q133 0 225 -68t92 -163
q0 -114 -100 -166zM1305 623q-34 0 -59 -19q-23 -17 -23 -49t23 -49q25 -19 59 -19q32 0 57 20q24 19 24 48q0 32 -23 49q-25 19 -58 19zM1307 180q34 0 59 20t25 50q0 31 -26 49q-25 18 -60 18q-38 0 -62 -18t-24 -49q0 -33 24 -51q25 -19 64 -19z" />
    <glyph glyph-name="threeeighths" unicode="&#x215c;" horiz-adv-x="1757" 
d="M686 825q0 -111 -92 -188q-91 -76 -236 -76q-134 0 -223 71q-87 69 -102 187l239 45q22 -90 90 -90q33 0 53 17q19 16 19 43t-22 42t-60 15h-92v180h86q38 0 60 15t22 42t-19 42q-21 16 -53 16q-69 0 -80 -86l-239 45q12 103 101 175q90 73 216 73q139 0 230 -73
q90 -72 90 -183q0 -94 -92 -150q104 -56 104 -162zM1458 1372l-973 -1372h-213l973 1372h213zM1579 414q131 -56 131 -193q0 -104 -97 -173q-96 -68 -253 -68q-155 0 -250 68q-96 69 -96 173q0 137 131 193q-101 53 -101 166q0 94 93 163q92 68 225 68t225 -68t92 -163
q0 -114 -100 -166zM1362 623q-33 0 -58 -19q-24 -18 -24 -49t24 -49q25 -19 58 -19q32 0 57 20t25 48q0 31 -24 49q-25 19 -58 19zM1364 180q34 0 59 20t25 50q0 31 -26 49t-60 18q-38 0 -62 -18t-24 -49q0 -33 24 -51q25 -19 64 -19z" />
    <glyph glyph-name="fiveeighths" unicode="&#x215d;" horiz-adv-x="1746" 
d="M705 844q0 -128 -91 -207q-90 -78 -235 -78q-143 0 -237 74q-93 74 -105 190l246 39q15 -86 92 -86q36 0 58 19t22 47q0 27 -23 45t-61 18h-308l21 467h578v-225h-355l-2 -47h103q144 0 220 -69q77 -69 77 -187zM1470 1372l-970 -1372h-213l970 1372h213zM1587 414
q131 -56 131 -193q0 -104 -97 -173q-96 -68 -253 -68q-155 0 -250 68q-96 69 -96 173q0 137 131 193q-100 52 -100 166q0 95 92 163t225 68t225 -68q93 -69 93 -163q0 -113 -101 -166zM1370 623q-33 0 -58 -19q-24 -18 -24 -49t24 -49q25 -19 58 -19q32 0 57 20t25 48
q0 31 -24 49q-25 19 -58 19zM1372 180q35 0 60 20q24 20 24 50q0 31 -25 49t-61 18q-37 0 -61 -18q-25 -19 -25 -49q0 -32 25 -51t63 -19z" />
    <glyph glyph-name="seveneighths" unicode="&#x215e;" horiz-adv-x="1613" 
d="M88 578l266 569h-338v225h617v-198l-264 -596h-281zM1321 1372l-971 -1372h-213l971 1372h213zM1454 414q131 -56 131 -193q0 -104 -97 -173q-96 -68 -253 -68q-155 0 -250 68q-96 69 -96 173q0 137 131 193q-100 52 -100 166q0 95 92 163t225 68t225 -68t92 -163
q0 -114 -100 -166zM1237 623q-33 0 -58 -19q-24 -18 -24 -49t24 -49q25 -19 58 -19q32 0 57 20t25 48q0 31 -24 49q-25 19 -58 19zM1239 180q34 0 59 20t25 50q0 31 -26 49q-25 18 -60 18q-37 0 -61 -18q-25 -19 -25 -49q0 -32 25 -51t63 -19z" />
    <glyph glyph-name="arrowleft" unicode="&#x2190;" horiz-adv-x="1488" 
d="M1407 496h-741l276 -279l-237 -237l-685 684l685 684l237 -238l-276 -279h741v-335z" />
    <glyph glyph-name="arrowup" unicode="&#x2191;" horiz-adv-x="1531" 
d="M1212 465l-278 276v-741h-336v741l-279 -276l-237 237l684 684l684 -684z" />
    <glyph glyph-name="arrowright" unicode="&#x2192;" horiz-adv-x="1488" 
d="M1468 664l-684 -684l-237 237l276 279h-741v335h741l-276 279l237 238z" />
    <glyph glyph-name="arrowdown" unicode="&#x2193;" horiz-adv-x="1531" 
d="M1450 670l-684 -684l-684 684l237 237l279 -276v741h336v-741l278 276z" />
    <glyph glyph-name="uni2196" unicode="&#x2196;" horiz-adv-x="1536" 
d="M1192 -23l-789 793v-405h-342v1007h1008l-2 -340h-405l792 -792z" />
    <glyph glyph-name="uni2197" unicode="&#x2197;" horiz-adv-x="1531" 
d="M1470 1372v-1007h-342v405l-788 -793l-262 263l792 792h-405l-2 340h1007z" />
    <glyph glyph-name="uni2198" unicode="&#x2198;" horiz-adv-x="1536" 
d="M1475 1008v-1008h-1006l2 340h406l-793 795l262 260l789 -791v404h340z" />
    <glyph glyph-name="uni2199" unicode="&#x2199;" horiz-adv-x="1536" 
d="M1067 340l2 -340h-1008v1008h342v-404l789 791l262 -260l-792 -795h405z" />
    <glyph glyph-name="minus" unicode="&#x2212;" horiz-adv-x="1153" 
d="M1081 461h-1009v311h1009v-311z" />
    <glyph glyph-name="approxequal" unicode="&#x2248;" horiz-adv-x="1146" 
d="M1075 954v-284q-103 -47 -227 -47q-117 0 -264 54t-254 54q-165 0 -258 -59v276q95 68 258 68q108 0 261 -54q156 -55 261 -55q132 0 223 47zM1075 598v-285q-105 -49 -227 -49q-118 0 -264 55q-148 56 -254 56q-159 0 -258 -60v275q96 69 258 69q108 0 261 -54t261 -54
q132 0 223 47z" />
    <glyph glyph-name="notequal" unicode="&#x2260;" horiz-adv-x="1153" 
d="M752 684l-60 -111h389v-294h-549l-100 -187h-272l100 187h-188v294h348l61 111h-409v295h569l84 156h270l-84 -156h170v-295h-329z" />
    <glyph glyph-name="lessequal" unicode="&#x2264;" horiz-adv-x="1024" 
d="M942 459l-879 209v374l879 213v-319l-520 -80l520 -86v-311zM942 418v-314h-879v314h879z" />
    <glyph glyph-name="greaterequal" unicode="&#x2265;" horiz-adv-x="1024" 
d="M602 856l-520 80v319l879 -213v-374l-879 -209v311zM963 104h-881v314h881v-314z" />
    <glyph glyph-name="K.ss03" horiz-adv-x="1476" 
d="M1493 0h-508l-297 446l-180 -221v-225h-424v1372h424v-547l461 547h479l-485 -592z" />
    <glyph glyph-name="Kcommaaccent.ss03" horiz-adv-x="1476" 
d="M1493 0h-508l-297 446l-180 -221v-225h-424v1372h424v-547l461 547h479l-485 -592zM551 -92h391l-209 -342h-280z" />
    <glyph glyph-name="Q.ss04" horiz-adv-x="1599" 
d="M1106 -348l-236 319q-17 0 -33 -1t-36 -1q-315 0 -529 208q-215 209 -215 509t215 509q214 208 529 208q312 0 527 -208q216 -209 216 -509q0 -170 -71 -312q-73 -145 -199 -245l360 -477h-528zM481 686q0 -146 90 -242t230 -96q139 0 228 96q89 97 89 242t-89 242
q-89 96 -228 96q-140 0 -230 -96t-90 -242z" />
    <glyph glyph-name="I.ss05" horiz-adv-x="942" 
d="M684 1014v-654h217v-360h-860v360h219v654h-219v358h860v-358h-217z" />
    <glyph glyph-name="IJ.ss05" horiz-adv-x="2224" 
d="M901 1372v-358h-217v-654h217v-360h-860v360h219v654h-219v358h860zM2134 1372v-866q0 -242 -161 -389q-162 -148 -425 -148q-246 0 -398 130t-181 352l420 81q18 -186 159 -186q73 0 116 43q44 44 44 117v508h-428v358h854z" />
    <glyph glyph-name="Iacute.ss05" horiz-adv-x="942" 
d="M659 1497h-385l160 336h496zM901 1372v-358h-217v-654h217v-360h-860v360h219v654h-219v358h860z" />
    <glyph glyph-name="Icircumflex.ss05" horiz-adv-x="942" 
d="M406 1495h-390l242 338h428l242 -338h-387l-68 96zM901 1372v-358h-217v-654h217v-360h-860v360h219v654h-219v358h860z" />
    <glyph glyph-name="Idieresis.ss05" horiz-adv-x="942" 
d="M221 1454q-94 0 -153 59q-60 60 -60 150q0 84 61 147q60 62 152 62t154 -62q61 -61 61 -147q0 -90 -60 -150q-59 -59 -155 -59zM721 1454q-95 0 -154 59t-59 150q0 85 60 147t153 62q91 0 153 -62t62 -147q0 -90 -60 -150q-59 -59 -155 -59zM901 1372v-358h-217v-654h217
v-360h-860v360h219v654h-219v358h860z" />
    <glyph glyph-name="Idotaccent.ss05" horiz-adv-x="942" 
d="M469 1466q-95 0 -159 62q-62 61 -62 155q0 91 63 154q64 64 158 64q96 0 160 -64q63 -63 63 -154q0 -93 -63 -155q-64 -62 -160 -62zM684 1014v-654h217v-360h-860v360h219v654h-219v358h860v-358h-217z" />
    <glyph glyph-name="Igrave.ss05" horiz-adv-x="942" 
d="M295 1497l-270 336h495l160 -336h-385zM684 1014v-654h217v-360h-860v360h219v654h-219v358h860v-358h-217z" />
    <glyph glyph-name="Imacron.ss05" horiz-adv-x="942" 
d="M831 1499h-720v303h720v-303zM684 1014v-654h217v-360h-860v360h219v654h-219v358h860v-358h-217z" />
    <glyph glyph-name="Iogonek.ss05" horiz-adv-x="942" 
d="M684 1014v-654h217v-360h-219q-3 -3 -11.5 -12t-13.5 -14q-6 -6 -12.5 -13t-8.5 -9q-11 -11 -18 -19q-2 -3 -4.5 -5.5l-4.5 -4.5t-3.5 -4t-2.5 -3q-3 -4 -11 -14q-2 -3 -6 -8l-3 -6q-2 -3 -6 -11t-5 -12t-1 -12q0 -48 58 -48q38 0 108 19l13 -219q-99 -51 -215 -51
q-105 0 -170 55q-66 55 -66 147q0 138 127 244h-385v360h219v654h-219v358h860v-358h-217z" />
    <glyph glyph-name="J.ss05" horiz-adv-x="1282" 
d="M1192 1372v-866q0 -242 -161 -389q-162 -148 -425 -148q-246 0 -398 130t-181 352l419 81q18 -186 160 -186q73 0 116 43q44 44 44 117v508h-428v358h854z" />
    <glyph glyph-name="i.loclTRK" horiz-adv-x="612" 
d="M305 1565q96 0 160 -64q63 -63 63 -153q0 -94 -63 -156q-64 -62 -160 -62q-95 0 -159 62q-62 61 -62 156q0 90 63 153q64 64 158 64zM512 0h-412v1038h412v-1038z" />
    <glyph glyph-name="germandbls.case" horiz-adv-x="2654" 
d="M674 1403q248 0 408 -104q159 -103 196 -295l-412 -84q-39 161 -192 161q-58 0 -92 -25q-35 -26 -35 -69q0 -61 67 -76l273 -69q200 -51 301 -149q100 -97 100 -261q0 -159 -94 -266q-97 -111 -224 -153q-132 -44 -278 -44q-259 0 -434 118q-177 119 -205 310l430 80
q43 -172 215 -172q60 0 102 25q40 24 40 69q0 57 -78 78l-283 70q-381 91 -381 401q0 218 162 336q163 119 414 119zM1991 1403q248 0 408 -104q159 -103 196 -295l-412 -84q-39 161 -192 161q-59 0 -93 -25t-34 -69q0 -61 67 -76l273 -69q200 -51 301 -149
q100 -97 100 -261q0 -159 -94 -266q-97 -111 -224 -153q-132 -44 -278 -44q-259 0 -434 118q-177 119 -205 310l430 80q43 -172 215 -172q60 0 102 25q40 24 40 69q0 57 -78 78l-283 70q-381 91 -381 401q0 218 162 336q163 119 414 119z" />
    <glyph glyph-name="a.ss01" horiz-adv-x="1167" 
d="M598 1069q237 0 370 -115q132 -114 132 -325v-629h-400v68q-118 -99 -299 -99q-170 0 -272 93t-102 247q0 160 120 247q122 89 342 89h211v29q0 45 -28 72q-30 28 -72 28q-97 0 -113 -98l-387 82q40 148 170 230q129 81 328 81zM563 260q57 0 97 34t40 97v39h-116
q-55 0 -85 -23q-32 -24 -32 -65q0 -36 27 -59q28 -23 69 -23z" />
    <glyph glyph-name="aacute.ss01" horiz-adv-x="1167" 
d="M782 1161h-385l160 336h496zM598 1069q237 0 370 -115q132 -114 132 -325v-629h-400v68q-118 -99 -299 -99q-170 0 -272 93t-102 247q0 160 120 247q122 89 342 89h211v29q0 45 -28 72q-30 28 -72 28q-97 0 -113 -98l-387 82q40 148 170 230q129 81 328 81zM563 260
q57 0 97 34t40 97v39h-116q-55 0 -85 -23q-32 -24 -32 -65q0 -36 27 -59q28 -23 69 -23z" />
    <glyph glyph-name="abreve.ss01" horiz-adv-x="1167" 
d="M594 1128q-175 0 -287 98q-110 97 -110 255h309q0 -33 23 -56q24 -24 65 -24t65 24q25 25 25 56h307q0 -158 -110 -255q-112 -98 -287 -98zM598 1069q237 0 370 -115q132 -114 132 -325v-629h-400v68q-118 -99 -299 -99q-170 0 -272 93t-102 247q0 160 120 247
q122 89 342 89h211v29q0 45 -28 72q-30 28 -72 28q-97 0 -113 -98l-387 82q40 148 170 230q129 81 328 81zM563 260q57 0 97 34t40 97v39h-116q-55 0 -85 -23q-32 -24 -32 -65q0 -36 27 -59q28 -23 69 -23z" />
    <glyph glyph-name="acircumflex.ss01" horiz-adv-x="1167" 
d="M528 1159h-389l242 338h428l242 -338h-387l-68 96zM598 1069q237 0 370 -115q132 -114 132 -325v-629h-400v68q-118 -99 -299 -99q-170 0 -272 93t-102 247q0 160 120 247q122 89 342 89h211v29q0 45 -28 72q-30 28 -72 28q-97 0 -113 -98l-387 82q40 148 170 230
q129 81 328 81zM563 260q57 0 97 34t40 97v39h-116q-55 0 -85 -23q-32 -24 -32 -65q0 -36 27 -59q28 -23 69 -23z" />
    <glyph glyph-name="adieresis.ss01" horiz-adv-x="1167" 
d="M344 1118q-94 0 -154 60q-59 59 -59 149q0 87 60 148t153 61t154 -61t61 -148q0 -89 -60 -149t-155 -60zM844 1118q-94 0 -154 60q-59 59 -59 149q0 87 60 148t153 61q92 0 153 -61q62 -62 62 -148q0 -88 -61 -149q-60 -60 -154 -60zM598 1069q237 0 370 -115
q132 -114 132 -325v-629h-400v68q-118 -99 -299 -99q-170 0 -272 93t-102 247q0 160 120 247q122 89 342 89h211v29q0 45 -28 72q-30 28 -72 28q-97 0 -113 -98l-387 82q40 148 170 230q129 81 328 81zM563 260q57 0 97 34t40 97v39h-116q-55 0 -85 -23q-32 -24 -32 -65
q0 -36 27 -59q28 -23 69 -23z" />
    <glyph glyph-name="agrave.ss01" horiz-adv-x="1167" 
d="M418 1161l-271 336h496l160 -336h-385zM598 1069q237 0 370 -115q132 -114 132 -325v-629h-400v68q-118 -99 -299 -99q-170 0 -272 93t-102 247q0 160 120 247q122 89 342 89h211v29q0 45 -28 72q-30 28 -72 28q-97 0 -113 -98l-387 82q40 148 170 230q129 81 328 81z
M563 260q57 0 97 34t40 97v39h-116q-55 0 -85 -23q-32 -24 -32 -65q0 -36 27 -59q28 -23 69 -23z" />
    <glyph glyph-name="amacron.ss01" horiz-adv-x="1167" 
d="M954 1163h-721v303h721v-303zM598 1069q237 0 370 -115q132 -114 132 -325v-629h-400v68q-118 -99 -299 -99q-170 0 -272 93t-102 247q0 160 120 247q122 89 342 89h211v29q0 45 -28 72q-30 28 -72 28q-97 0 -113 -98l-387 82q40 148 170 230q129 81 328 81zM563 260
q57 0 97 34t40 97v39h-116q-55 0 -85 -23q-32 -24 -32 -65q0 -36 27 -59q28 -23 69 -23z" />
    <glyph glyph-name="aogonek.ss01" horiz-adv-x="1167" 
d="M1155 -176l12 -219q-99 -51 -215 -51q-105 0 -170 55t-65 147q0 138 127 244h-144v68q-118 -99 -299 -99q-170 0 -272 93t-102 247q0 160 120 247q122 89 342 89h211v29q0 45 -28 72q-30 28 -72 28q-97 0 -113 -98l-387 82q40 148 170 230q129 81 328 81q237 0 370 -115
q132 -114 132 -325v-629q-3 -3 -11.5 -12t-13.5 -14q-6 -6 -12.5 -13t-8.5 -9q-11 -11 -18 -19q-2 -3 -4.5 -5.5l-4.5 -4.5t-3.5 -4t-2.5 -3q-3 -4 -11 -14q-4 -5 -10 -14q-2 -3 -6 -11q-2 -4 -4 -12q-1 -4 -1 -12q0 -48 58 -48q38 0 108 19zM563 260q57 0 97 34t40 97v39
h-116q-55 0 -85 -23q-32 -24 -32 -65q0 -36 27 -59q28 -23 69 -23z" />
    <glyph glyph-name="aring.ss01" horiz-adv-x="1167" 
d="M594 1110q-120 0 -200 79q-81 79 -81 193t81 194q80 79 200 79t200 -79t80 -194q0 -114 -80 -193t-200 -79zM594 1462q-34 0 -57 -23q-25 -25 -25 -57q0 -29 25 -54q23 -23 57 -23t57 23q25 25 25 54q0 32 -25 57q-23 23 -57 23zM598 1069q237 0 370 -115
q132 -114 132 -325v-629h-400v68q-118 -99 -299 -99q-170 0 -272 93t-102 247q0 160 120 247q122 89 342 89h211v29q0 45 -28 72q-30 28 -72 28q-97 0 -113 -98l-387 82q40 148 170 230q129 81 328 81zM563 260q57 0 97 34t40 97v39h-116q-55 0 -85 -23q-32 -24 -32 -65
q0 -36 27 -59q28 -23 69 -23z" />
    <glyph glyph-name="atilde.ss01" horiz-adv-x="1167" 
d="M508 1227q-29 0 -45 -13q-13 -11 -29 -47h-225q0 172 74 275q73 102 186 102q67 0 139 -36q70 -35 105 -35q32 0 46 13q15 14 27 50h226q0 -171 -74 -274t-188 -103q-70 0 -138 34t-104 34zM598 1069q237 0 370 -115q132 -114 132 -325v-629h-400v68q-118 -99 -299 -99
q-170 0 -272 93t-102 247q0 160 120 247q122 89 342 89h211v29q0 45 -28 72q-30 28 -72 28q-97 0 -113 -98l-387 82q40 148 170 230q129 81 328 81zM563 260q57 0 97 34t40 97v39h-116q-55 0 -85 -23q-32 -24 -32 -65q0 -36 27 -59q28 -23 69 -23z" />
    <glyph glyph-name="l.ss02" horiz-adv-x="722" 
d="M489 1475v-1084q0 -31 20 -53q19 -21 52 -21q28 0 105 25l59 -295l-18 -10q-5 -3 -10 -5.5t-8 -3.5l-3 -2l-20 -11q-18 -9 -24 -11q-2 -1 -22 -9q-18 -8 -28 -9q-12 -2 -29 -6q-24 -6 -34 -7q-17 -2 -34 -3q-13 -1 -40 -1q-170 0 -274 106q-103 104 -103 279v1121h411z
" />
    <glyph glyph-name="lacute.ss02" horiz-adv-x="722" 
d="M485 1599h-385l160 336h496zM489 1475v-1084q0 -31 20 -53q19 -21 52 -21q28 0 105 25l59 -295l-18 -10q-5 -3 -10 -5.5t-8 -3.5l-3 -2l-20 -11q-18 -9 -24 -11q-2 -1 -22 -9q-18 -8 -28 -9q-12 -2 -29 -6q-24 -6 -34 -7q-17 -2 -34 -3q-13 -1 -40 -1q-170 0 -274 106
q-103 104 -103 279v1121h411z" />
    <glyph glyph-name="lcaron.ss02" horiz-adv-x="722" 
d="M489 1475v-1084q0 -31 20 -53q19 -21 52 -21q28 0 105 25l59 -295l-18 -10q-5 -3 -10 -5.5t-8 -3.5l-3 -2l-20 -11q-18 -9 -24 -11q-2 -1 -22 -9q-18 -8 -28 -9q-12 -2 -29 -6q-24 -6 -34 -7q-17 -2 -34 -3q-13 -1 -40 -1q-170 0 -274 106q-103 104 -103 279v1121h411z
M852 1065h-270v410h360z" />
    <glyph glyph-name="lcommaaccent.ss02" horiz-adv-x="722" 
d="M489 1475v-1084q0 -31 20 -53q19 -21 52 -21q28 0 105 25l59 -295l-18 -10q-5 -3 -10 -5.5t-8 -3.5l-3 -2l-20 -11q-18 -9 -24 -11q-2 -1 -22 -9q-18 -8 -28 -9q-12 -2 -29 -6q-24 -6 -34 -7q-17 -2 -34 -3q-13 -1 -40 -1q-170 0 -274 106q-103 104 -103 279v1121h411z
M106 -434l99 342h391l-209 -342h-281z" />
    <glyph glyph-name="ldot.ss02" horiz-adv-x="999" 
d="M492 1475v-1084q0 -35 20 -54q22 -20 53 -20q28 0 105 25l59 -295q-1 0 -3 -1t-4 -2.5t-5.5 -3t-6.5 -3.5l-22 -11l-20 -11q-8 -4 -23 -10q-2 -1 -9.5 -4t-13.5 -5q-13 -5 -28 -9l-29 -7q-23 -6 -31 -7q-13 -1 -35 -3q-13 -1 -40 -1q-169 0 -275 106q-104 104 -104 279
v1121h412zM774 975q93 0 159 -64q64 -63 64 -153q0 -94 -63 -156q-62 -61 -160 -61q-97 0 -159 61t-62 156q0 90 63 153q64 64 158 64z" />
    <glyph glyph-name="lslash.ss02" horiz-adv-x="761" 
d="M705 342l59 -295l-19 -10q-5 -3 -10 -5.5l-7 -3.5l-3 -2l-20 -11q-18 -9 -24 -11q-7 -2 -23 -9q-19 -8 -27 -9q-12 -2 -29 -6q-24 -6 -34 -7q-17 -2 -34 -3q-13 -1 -40 -1q-170 0 -274 106q-103 104 -103 279v113l-90 -45v379l90 45v629h411v-422l109 55v-379l-109 -55
v-283q0 -31 20 -53q20 -21 52 -21q28 0 105 25z" />
    <glyph glyph-name="k.ss03" horiz-adv-x="1288" 
d="M1305 0h-500l-182 283l-127 -152v-131h-412v1475h412v-764l280 327h484l-357 -422z" />
    <glyph glyph-name="kcommaaccent.ss03" horiz-adv-x="1288" 
d="M1305 0h-500l-182 283l-127 -152v-131h-412v1475h412v-764l280 327h484l-357 -422zM467 -92h391l-209 -342h-280z" />
    <glyph glyph-name="f_j" horiz-adv-x="1423" 
d="M1114 1118q-101 0 -164 63t-63 158q0 91 64 156q65 66 163 66t164 -66q65 -65 65 -156q0 -95 -64 -158q-65 -63 -165 -63zM1321 1038v-1028q0 -170 -101 -274q-102 -105 -270 -105q-118 0 -227 52l53 288q44 -10 66 -10q31 0 49 24t18 60v674h-348v-719h-411v719h-134
v319h134v60q0 186 117 296q119 111 313 111q101 0 194 -32l-59 -316q-3 0 -21 3t-26 3q-48 0 -77 -26q-30 -27 -30 -72v-27h760z" />
    <glyph glyph-name="f_t" horiz-adv-x="1640" 
d="M1559 350l73 -305q-143 -76 -301 -76q-205 0 -313 110q-109 111 -109 304v336h-348v-719h-411v719h-134v319h134v60q0 186 117 296q119 111 313 111q101 0 194 -32l-59 -316q-3 0 -21 3t-26 3q-48 0 -77 -26q-30 -27 -30 -72v-27h348v293h412v-293h258v-319h-258v-285
q0 -112 117 -112q69 0 121 28z" />
    <glyph glyph-name="fl.ss02" horiz-adv-x="1519" 
d="M666 1163q-49 0 -76 -26q-29 -27 -29 -72v-27h240v-319h-240v-719h-411v719h-134v319h134v60q0 186 117 296q119 111 311 111q119 0 233 -47l-80 -305q-36 10 -65 10zM1462 342l60 -295l-19 -10q-5 -3 -10 -5.5l-7 -3.5l-3 -2l-21 -11q-20 -10 -23 -11q-7 -2 -23 -9
q-19 -8 -27 -9q-12 -2 -29 -6q-24 -6 -34 -7q-13 -1 -35 -3q-13 -1 -40 -1q-169 0 -273 106t-104 279v1121h412v-1084q0 -31 20 -53q20 -21 52 -21q27 0 104 25z" />
    <glyph glyph-name="zero.tf" 
d="M625 1403q264 0 426 -198q161 -197 161 -519t-161 -519q-162 -198 -426 -198q-266 0 -428 197q-162 196 -162 520t162 520q162 197 428 197zM625 326q161 0 161 360q0 358 -161 358q-164 0 -164 -358q0 -360 164 -360z" />
    <glyph glyph-name="one.tf" 
d="M1149 371v-371h-1043v371h353v506l-320 -136v389l461 242h274v-1001h275z" />
    <glyph glyph-name="two.tf" 
d="M1182 360v-360h-1092l4 8v273l492 426q92 79 127 124q39 50 39 107q0 53 -34 86t-87 33q-137 0 -152 -178l-401 71q10 210 159 332q148 121 386 121q241 0 387 -124q147 -125 147 -343q0 -131 -63 -221q-64 -91 -207 -215l-166 -140h461z" />
    <glyph glyph-name="three.tf" 
d="M1010 702q164 -99 164 -282q0 -196 -156 -323q-157 -128 -395 -128q-222 0 -378 117q-158 119 -188 320l410 71q29 -170 162 -170q65 0 105 34t40 89q0 54 -43 85q-44 32 -117 32h-155v293h147q72 0 115 30t43 82q0 55 -39 88t-104 33q-138 0 -156 -182l-393 74
q33 210 181 323q150 115 365 115q232 0 383 -125q150 -125 150 -313q0 -173 -141 -263z" />
    <glyph glyph-name="four.tf" 
d="M1221 213h-148v-213h-389v213h-651v377l549 782h491v-819h148v-340zM684 553v401l-260 -401h260z" />
    <glyph glyph-name="five.tf" 
d="M518 897h162q247 0 377 -119q129 -118 129 -325q0 -217 -149 -351q-148 -133 -394 -133q-230 0 -388 124t-173 343l397 76q2 -106 51 -152q50 -47 119 -47q67 0 105 37q39 38 39 99q0 60 -43 94q-44 35 -115 35h-492l31 796h956v-356h-606z" />
    <glyph glyph-name="six.tf" 
d="M737 893q215 0 345 -126t130 -329q0 -208 -152 -338q-154 -131 -388 -131q-281 0 -446 182q-165 181 -165 506q0 379 201 580q166 166 414 166q199 0 335 -91q135 -91 179 -259l-395 -80q-15 54 -46 74q-30 20 -87 20q-75 0 -132 -63q-68 -79 -73 -218q113 107 280 107z
M659 291q69 0 118 48q50 48 50 116q0 69 -50 116t-118 47q-66 0 -116 -47q-49 -46 -49 -118q0 -69 49 -115q50 -47 116 -47z" />
    <glyph glyph-name="seven.tf" 
d="M1159 1372v-311l-500 -1061h-444l492 1014h-637v358h1089z" />
    <glyph glyph-name="eight.tf" 
d="M954 713q234 -95 234 -332q0 -178 -158 -295t-414 -117q-252 0 -409 117q-158 117 -158 297q0 236 232 332q-183 91 -183 293q0 167 149 281t371 114q224 0 372 -114q149 -114 149 -281q0 -203 -185 -295zM618 1102q-60 0 -104 -36q-43 -36 -43 -95t43 -95t104 -36
q62 0 105 37t43 94q0 59 -43 95t-105 36zM618 287q61 0 108 38q46 37 46 99q0 60 -45 98q-44 37 -109 37q-62 0 -108 -38q-45 -37 -45 -99q0 -60 45 -97q46 -38 108 -38z" />
    <glyph glyph-name="nine.tf" 
d="M573 1401q284 0 447 -181q164 -182 164 -507q0 -381 -199 -580q-166 -166 -416 -166q-197 0 -333 92q-135 92 -179 260l394 78q27 -94 135 -94q70 0 131 64q70 80 74 219q-114 -109 -281 -109q-214 0 -345 126q-130 126 -130 329q0 208 151 338q152 131 387 131zM586 752
q68 0 117 48q51 49 51 118q0 66 -51 114q-50 47 -117 47q-68 0 -118 -48t-50 -116q0 -69 50 -116t118 -47z" />
    <glyph glyph-name="zero.zero.tf" 
d="M625 1403q264 0 426 -198q161 -197 161 -519t-161 -519q-162 -198 -426 -198q-266 0 -428 197q-162 196 -162 520t162 520q162 197 428 197zM625 1044q-164 0 -164 -358q0 -42 2 -70l266 367q-40 61 -104 61zM625 326q161 0 161 360l-2 64l-264 -365q38 -59 105 -59z" />
    <glyph glyph-name="zero.zero" horiz-adv-x="1347" 
d="M678 1403q284 0 456 -198q173 -199 173 -519t-173 -519q-172 -198 -456 -198t-456 198q-173 199 -173 519t173 519q173 198 456 198zM678 1044q-95 0 -149 -93t-54 -265q0 -66 8 -119l312 428q-49 49 -117 49zM678 326q94 0 148 93q55 95 55 267q0 32 -9 111l-309 -424
q47 -47 115 -47z" />
    <glyph glyph-name="zero.dnom" horiz-adv-x="845" 
d="M426 811q170 0 272 -114q103 -115 103 -302t-104 -302q-103 -113 -271 -113q-169 0 -274 114t-105 301q0 188 105 302t274 114zM426 205q102 0 102 190q0 191 -102 191q-107 0 -107 -191q0 -190 107 -190z" />
    <glyph glyph-name="one.dnom" horiz-adv-x="544" 
d="M465 0h-264v475l-176 -92v254l264 158h176v-795z" />
    <glyph glyph-name="two.dnom" horiz-adv-x="747" 
d="M453 219h231v-221h-621v160l281 260q73 67 84 92q4 11 4 27q0 25 -15 40t-42 15q-70 0 -70 -98l-246 45q0 121 86 198q85 76 230 76q138 0 226 -74q87 -74 87 -202q0 -75 -38 -130q-40 -57 -115 -118z" />
    <glyph glyph-name="three.dnom" horiz-adv-x="729" 
d="M582 406q104 -56 104 -162q0 -112 -92 -189q-90 -75 -236 -75q-135 0 -223 70q-87 69 -102 188l239 45q22 -90 90 -90q34 0 53 16t19 43t-22 42t-60 15h-92v180h86q36 0 60 16q22 15 22 42t-19 42t-53 15q-69 0 -80 -86l-239 45q12 103 101 175q90 73 216 73
q139 0 230 -73q90 -72 90 -183q0 -93 -92 -149z" />
    <glyph glyph-name="four.dnom" horiz-adv-x="800" 
d="M776 115h-94v-115h-246v115h-403v237l342 443h307v-467h94v-213zM436 328v207l-155 -207h155z" />
    <glyph glyph-name="five.dnom" horiz-adv-x="737" 
d="M305 520h103q145 0 220 -68q77 -69 77 -188q0 -128 -91 -207q-89 -77 -235 -77q-145 0 -237 73q-93 73 -105 191l246 39q15 -86 92 -86q37 0 58 18q22 19 22 47q0 27 -23 45q-24 19 -61 19h-308l21 467h578v-226h-355z" />
    <glyph glyph-name="six.dnom" horiz-adv-x="763" 
d="M446 516q124 0 201 -72q76 -72 76 -190q0 -122 -90 -198q-89 -76 -227 -76q-168 0 -267 105q-98 104 -98 294q0 217 119 336q96 96 246 96q128 0 206 -59q80 -60 101 -168l-244 -39q-12 55 -72 55q-37 0 -65 -33q-31 -36 -37 -94q68 43 151 43zM397 180q38 0 62 24t24 60
q0 37 -24 61q-23 23 -62 23q-40 0 -63 -23q-25 -25 -25 -61q0 -38 25 -61t63 -23z" />
    <glyph glyph-name="seven.dnom" horiz-adv-x="649" 
d="M633 793v-199l-264 -596h-281l266 569h-338v226h617z" />
    <glyph glyph-name="eight.dnom" horiz-adv-x="784" 
d="M610 414q131 -56 131 -193q0 -104 -97 -173q-96 -68 -253 -68q-155 0 -250 68q-96 69 -96 173q0 137 131 193q-100 52 -100 166q0 95 92 163t225 68t225 -68q93 -69 93 -163q0 -113 -101 -166zM393 623q-33 0 -58 -19q-24 -18 -24 -49t24 -49q25 -19 58 -19t58 20
q24 19 24 48q0 32 -23 49q-25 19 -59 19zM395 180q35 0 60 20q24 20 24 50q0 31 -25 49q-26 18 -61 18q-37 0 -61 -18q-25 -19 -25 -49q0 -32 25 -51t63 -19z" />
    <glyph glyph-name="nine.dnom" horiz-adv-x="763" 
d="M360 811q169 0 266 -104t97 -293q0 -221 -117 -338q-101 -96 -248 -96q-124 0 -205 60q-82 61 -100 167l242 39q12 -56 74 -56q37 0 65 33q31 39 37 101q-67 -50 -154 -50q-123 0 -200 72q-76 72 -76 191q0 121 91 197q92 77 228 77zM369 444q38 0 62 24t24 58
q0 36 -25 61q-23 23 -61 23q-41 0 -64 -22q-24 -22 -24 -62q0 -34 24 -58t64 -24z" />
    <glyph glyph-name="zero.numr" horiz-adv-x="845" 
d="M426 1393q170 0 272 -114q103 -115 103 -302t-104 -302q-103 -114 -271 -114t-274 115q-105 114 -105 301q0 188 105 302t274 114zM426 786q102 0 102 191q0 190 -102 190q-107 0 -107 -190q0 -191 107 -191z" />
    <glyph glyph-name="one.numr" horiz-adv-x="544" 
d="M465 578h-264v475l-176 -92v253l264 158h176v-794z" />
    <glyph glyph-name="two.numr" horiz-adv-x="747" 
d="M451 799h233v-219h-621v157l281 260q72 66 84 93q4 11 4 26q0 25 -15 40t-42 15q-70 0 -70 -98l-246 45q0 122 86 199q85 76 230 76q138 0 226 -74q87 -73 87 -203q0 -75 -38 -130q-40 -57 -115 -118z" />
    <glyph glyph-name="three.numr" horiz-adv-x="729" 
d="M582 987q104 -56 104 -162q0 -111 -92 -188q-91 -76 -236 -76q-134 0 -223 71q-87 69 -102 187l239 45q22 -90 90 -90q33 0 53 17q19 16 19 43t-22 42t-60 15h-92v180h86q38 0 60 15t22 42t-19 42q-21 16 -53 16q-69 0 -80 -86l-239 45q12 103 101 175q90 73 216 73
q139 0 230 -73q90 -72 90 -183q0 -94 -92 -150z" />
    <glyph glyph-name="four.numr" horiz-adv-x="800" 
d="M776 692h-94v-114h-246v114h-403v238l342 442h307v-467h94v-213zM436 905v207l-155 -207h155z" />
    <glyph glyph-name="five.numr" horiz-adv-x="737" 
d="M305 1100h103q144 0 220 -69q77 -69 77 -187q0 -128 -91 -207q-90 -78 -235 -78q-143 0 -237 74q-93 74 -105 190l246 39q15 -86 92 -86q36 0 58 19t22 47q0 27 -23 45t-61 18h-308l21 467h578v-225h-355z" />
    <glyph glyph-name="six.numr" horiz-adv-x="763" 
d="M446 1098q124 0 201 -72q76 -72 76 -190q0 -122 -90 -198q-91 -77 -227 -77q-167 0 -267 106q-98 104 -98 294q0 216 119 335q97 97 246 97q126 0 206 -60t101 -168l-244 -39q-12 56 -72 56q-37 0 -65 -33q-31 -36 -37 -94q68 43 151 43zM397 762q39 0 62 23q24 24 24 61
q0 36 -24 60t-62 24q-39 0 -63 -24q-25 -25 -25 -60q0 -39 25 -62q23 -22 63 -22z" />
    <glyph glyph-name="seven.numr" horiz-adv-x="649" 
d="M633 1372v-198l-264 -596h-281l266 569h-338v225h617z" />
    <glyph glyph-name="eight.numr" horiz-adv-x="784" 
d="M610 995q131 -56 131 -192q0 -104 -97 -173q-98 -69 -253 -69q-154 0 -250 69t-96 173q0 136 131 192q-100 52 -100 166q0 96 92 164t225 68t225 -68q93 -69 93 -164q0 -113 -101 -166zM393 1204q-34 0 -58 -18t-24 -49q0 -32 24 -50t58 -18q33 0 58 20q24 19 24 48
q0 32 -23 49q-24 18 -59 18zM395 762q37 0 60 19q24 19 24 50q0 32 -25 50q-26 18 -61 18q-37 0 -61 -18q-25 -19 -25 -50q0 -32 25 -51q24 -18 63 -18z" />
    <glyph glyph-name="nine.numr" horiz-adv-x="763" 
d="M360 1393q168 0 266 -105q97 -104 97 -293q0 -221 -117 -338q-101 -96 -248 -96q-123 0 -205 61t-100 166l242 39q12 -55 74 -55q37 0 65 33q31 39 37 100q-65 -49 -154 -49q-123 0 -200 72q-76 72 -76 190q0 122 91 198q92 77 228 77zM369 1026q38 0 62 24t24 58
q0 35 -25 60q-24 24 -61 24q-39 0 -64 -23q-24 -23 -24 -61q0 -34 24 -58t64 -24z" />
    <glyph glyph-name="backslash.case" horiz-adv-x="942" 
d="M899 0h-369l-485 1372h369z" />
    <glyph glyph-name="periodcentered.case" horiz-adv-x="530" 
d="M264 901q96 0 162 -67q66 -68 66 -158q0 -96 -65 -161q-64 -64 -163 -64t-162 64q-63 65 -63 161q0 94 64 159q65 66 161 66z" />
    <glyph glyph-name="bullet.case" horiz-adv-x="827" 
d="M414 1032q159 0 267 -111q107 -110 107 -264q0 -158 -106 -263t-268 -105q-164 0 -269 105q-104 104 -104 263q0 155 106 265t267 110z" />
    <glyph glyph-name="colon.case" horiz-adv-x="530" 
d="M264 1176q96 0 162 -68t66 -158q0 -95 -65 -160t-163 -65q-99 0 -162 65q-63 64 -63 160q0 94 64 159q65 67 161 67zM264 571q96 0 162 -67q66 -68 66 -158q0 -96 -65 -161q-64 -64 -163 -64t-162 64t-63 161q0 94 64 159q65 66 161 66z" />
    <glyph glyph-name="exclamdown.case" horiz-adv-x="636" 
d="M330 952q-98 0 -162 64t-64 151q0 92 64 154q62 61 162 61t162 -61q63 -61 63 -154q0 -88 -65 -151q-66 -64 -160 -64zM84 63l37 809h395l37 -809v-63h-469v63z" />
    <glyph glyph-name="questiondown.case" horiz-adv-x="1138" 
d="M582 967q-97 0 -162 64q-66 65 -66 153q0 91 65 153t163 62q97 0 161 -62t64 -153t-65 -154q-64 -63 -160 -63zM680 469l414 -84q-39 -178 -181 -290q-141 -111 -385 -111q-220 0 -356 126q-137 126 -137 312q0 142 89 242q86 97 247 141v90h407v-344h-176
q-69 0 -110 -29t-41 -76t29 -76q30 -30 77 -30q51 0 84 35t39 94z" />
    <glyph glyph-name="semicolon.case" horiz-adv-x="604" 
d="M338 1176q98 0 163 -67q64 -65 64 -159q0 -96 -64 -160q-65 -65 -163 -65q-99 0 -162 65q-63 64 -63 160q0 94 64 159q65 67 161 67zM301 -270h-315l118 651h439v-10z" />
    <glyph glyph-name="slash.case" horiz-adv-x="995" 
d="M403 0h-331l520 1372h332z" />
    <glyph glyph-name="braceleft.case" horiz-adv-x="851" 
d="M580 999v-108q0 -161 -111 -213q111 -52 111 -215v-92q0 -49 45 -49h161v-322h-305q-120 0 -195 75t-75 197v134q0 74 -92 98l-78 20v307l78 21q92 24 92 94v154q0 120 75 196t195 76h305v-321h-161q-45 0 -45 -52z" />
    <glyph glyph-name="braceright.case" horiz-adv-x="851" 
d="M811 831v-307l-78 -20q-92 -24 -92 -98v-134q0 -122 -75 -197t-195 -75h-305v322h161q43 0 43 49v92q0 163 111 215q-111 52 -111 213v108q0 52 -43 52h-161v321h305q120 0 195 -76t75 -196v-154q0 -70 92 -94z" />
    <glyph glyph-name="bracketleft.case" horiz-adv-x="856" 
d="M453 1051v-729h338v-322h-707v1372h707v-321h-338z" />
    <glyph glyph-name="bracketright.case" horiz-adv-x="856" 
d="M772 1372v-1372h-706v322h335v729h-335v321h706z" />
    <glyph glyph-name="parenleft.case" horiz-adv-x="757" 
d="M483 688q0 -108 35 -202q33 -89 70 -139q28 -38 114 -140l-270 -242q-116 110 -187 200q-75 95 -130 230q-58 142 -58 293q0 116 30 221t87 195t116 158q61 70 142 147l256 -244q-11 -14 -31 -40l-13.5 -18t-11.5 -15t-6 -8q-6 -8 -28 -37q-20 -27 -28 -43
q-12 -24 -23 -42q-16 -26 -23 -47q-1 -4 -4 -12.5t-6 -17.5l-6 -18q-9 -25 -14 -55q-6 -32 -8 -57q-3 -31 -3 -67z" />
    <glyph glyph-name="parenright.case" horiz-adv-x="757" 
d="M70 1165l256 244q177 -165 277 -333q99 -167 99 -388t-99 -389t-277 -334l-269 242q77 94 87 106q20 25 63 96q38 62 53 130q14 62 14 149q0 36 -3 71q-3 31 -12 67q-11 43 -14 57q-4 20 -23 55q-14 25 -23 46q-4 10 -31 48q-7 10 -14 19.5t-11 15t-5 7.5t-5 7.5t-13 17
t-17 22.5q-31 42 -33 44z" />
    <glyph glyph-name="emdash.case" horiz-adv-x="2129" 
d="M2007 506h-1884v323h1884v-323z" />
    <glyph glyph-name="endash.case" horiz-adv-x="1269" 
d="M1147 506h-1024v323h1024v-323z" />
    <glyph glyph-name="hyphen.case" horiz-adv-x="933" 
d="M811 498h-688v340h688v-340z" />
    <glyph glyph-name="guillemotleft.case" horiz-adv-x="1136" 
d="M51 659l195 365h368l-194 -365l194 -364h-368zM522 659l195 365h368l-194 -365l194 -364h-368z" />
    <glyph glyph-name="guillemotright.case" horiz-adv-x="1136" 
d="M51 295l195 364l-195 365h369l194 -365l-194 -364h-369zM522 295l195 364l-195 365h369l194 -365l-194 -364h-369z" />
    <glyph glyph-name="guilsinglleft.case" horiz-adv-x="665" 
d="M51 659l195 365h368l-194 -365l194 -364h-368z" />
    <glyph glyph-name="guilsinglright.case" horiz-adv-x="665" 
d="M51 295l195 364l-195 365h369l194 -365l-194 -364h-369z" />
    <glyph glyph-name="cent.tf" 
d="M635 313q64 0 108 40q45 41 60 114l375 -68q-22 -151 -123 -258q-99 -105 -250 -149v-258h-340v258q-184 50 -297 190q-115 142 -115 336q0 196 115 338t297 191v243h340v-243q147 -44 248 -149t125 -253l-377 -74q-15 72 -59 113t-107 41q-81 0 -134 -60
q-52 -59 -52 -147q0 -86 52 -145q53 -60 134 -60z" />
    <glyph glyph-name="dollar.tf" 
d="M1196 449q0 -176 -113 -280t-284 -138v-236h-338v240q-166 40 -280 147q-113 105 -140 248l389 74q45 -172 211 -172q56 0 94 22q39 22 39 58q0 56 -74 77l-264 66q-178 45 -269 136t-91 239q0 169 104 274q104 106 281 139v234h338v-238q161 -37 263 -136
q101 -98 122 -245l-373 -63q-37 162 -190 162q-52 0 -86 -23q-33 -22 -33 -65q0 -56 61 -72l256 -63q186 -46 283 -140q94 -91 94 -245z" />
    <glyph glyph-name="Euro.tf" 
d="M803 588l411 -76q-29 -240 -178 -391q-150 -152 -377 -152q-205 0 -350 128q-143 126 -194 356h-92v196h67v37v37h-67v195h92q49 227 193 356t351 129q229 0 381 -154q151 -152 172 -393l-403 -72q-30 269 -150 269q-93 0 -131 -135h203l-33 -195h-192v-37v-37h188
l-35 -196h-131q38 -134 131 -134q117 0 144 269z" />
    <glyph glyph-name="florin.tf" 
d="M1001 1061q-48 0 -83 -29q-37 -30 -44 -80l-22 -125h229v-317h-286l-82 -455q-34 -179 -155 -286t-296 -107q-25 0 -49 3q-28 3 -43 6q-12 2 -38 10q-15 5 -32 11q-7 3 -28 14q-11 6 -23 12q-2 1 -5 3l-7.5 5t-8.5 5l-18 11l111 293q75 -25 102 -25q67 0 84 78l76 422
h-170v317h227l29 158q34 189 172 304q137 114 328 114q151 0 276 -70l-123 -307q-68 35 -121 35z" />
    <glyph glyph-name="sterling.tf" 
d="M1178 352v-352h-1098v270l117 39v152h-117v325h117v168q0 203 134 326t353 123q205 0 338 -118t145 -304l-389 -74q-7 79 -32 107q-23 26 -62 26q-37 0 -58 -22q-22 -24 -22 -64v-168h322v-325h-322v-109h574z" />
    <glyph glyph-name="yen.tf" 
d="M911 657h189v-221h-275v-67h275v-224h-275v-145h-422v145h-253v224h253v67h-253v221h169l-301 715h437l159 -518l158 518h457z" />
    <glyph glyph-name="approxequal.tf" 
d="M1126 954v-284q-103 -47 -227 -47q-117 0 -264 54t-254 54q-165 0 -258 -59v276q95 68 258 68q108 0 261 -54q156 -55 261 -55q132 0 223 47zM1126 598v-285q-105 -49 -227 -49q-118 0 -264 55q-148 56 -254 56q-159 0 -258 -60v275q96 69 258 69q108 0 261 -54t261 -54
q132 0 223 47z" />
    <glyph glyph-name="divide.tf" 
d="M623 1174q72 0 121 -51t49 -119q0 -74 -49 -121t-121 -47q-75 0 -121 48q-47 49 -47 120q0 70 48 119q49 51 120 51zM1130 461h-1011v311h1011v-311zM623 397q73 0 121 -50q49 -51 49 -118q0 -73 -49 -120q-50 -48 -121 -48q-74 0 -121 49t-47 119q0 69 48 118
q48 50 120 50z" />
    <glyph glyph-name="equal.tf" 
d="M1130 684h-1011v295h1011v-295zM1130 279h-1011v294h1011v-294z" />
    <glyph glyph-name="greater.tf" 
d="M690 668l-475 114v359l870 -293v-365l-870 -290v356z" />
    <glyph glyph-name="greaterequal.tf" 
d="M711 856l-521 80v319l879 -213v-374l-879 -209v311zM1071 104h-881v314h881v-314z" />
    <glyph glyph-name="less.tf" 
d="M1034 193l-870 290v365l870 293v-359l-475 -114l475 -119v-356z" />
    <glyph glyph-name="lessequal.tf" 
d="M1059 459l-879 209v374l879 213v-319l-520 -80l520 -86v-311zM1059 418v-314h-881v314h881z" />
    <glyph glyph-name="minus.tf" 
d="M1130 461h-1011v311h1011v-311z" />
    <glyph glyph-name="multiply.tf" 
d="M844 616l262 -262l-217 -219l-264 262l-265 -262l-219 219l265 262l-265 263l219 219l265 -262l264 262l217 -219z" />
    <glyph glyph-name="notequal.tf" 
d="M801 684l-62 -111h391v-294h-550l-101 -187h-272l100 187h-188v294h348l61 111h-409v295h569l84 156h272l-83 -156h169v-295h-329z" />
    <glyph glyph-name="plus.tf" 
d="M1130 461h-350v-350h-311v350h-350v311h350v350h311v-350h350v-311z" />
    <glyph glyph-name="plusminus.tf" 
d="M1130 1006v-312h-350v-272h-311v272h-350v312h350v313h311v-313h350zM119 313h1011v-313h-1011v313z" />
    <glyph glyph-name="bar.case" horiz-adv-x="536" 
d="M453 -84h-369v1540h369v-1540z" />
    <glyph glyph-name="at.case" horiz-adv-x="1894" 
d="M1397 1032v-557q0 -74 82 -74q65 0 103 94t38 220q0 269 -185 432q-187 164 -462 164q-299 0 -498 -191t-199 -483q0 -288 195 -473q194 -184 498 -184q256 0 481 174l94 -152q-235 -199 -573 -199q-390 0 -638 233q-247 232 -247 593q0 369 255 612q256 244 632 244
q352 0 594 -215q241 -214 241 -553q0 -92 -20 -169q-20 -78 -65 -157q-42 -74 -130 -122q-85 -46 -204 -46q-197 0 -263 127q-92 -123 -268 -123q-164 0 -276 112q-111 111 -111 302q0 190 111 301t278 111q146 0 234 -88v67h303zM954 496q58 0 99 41t41 106q0 66 -40 106
q-39 39 -100 39q-59 0 -98 -39q-41 -41 -41 -106q0 -62 41 -105q40 -42 98 -42z" />
    <glyph glyph-name="caron.alt" horiz-adv-x="1228" 
d="M717 922h-271v409h361z" />
    </font>
</defs>
</svg>
